M48
; DRILL file {KiCad 8.0.3} date 2024-11-24T23:29:20-0800
; FORMAT={-:-/ absolute / inch / decimal}
; #@! TF.CreationDate,2024-11-24T23:29:20-08:00
; #@! TF.GenerationSoftware,Kicad,Pcbnew,8.0.3
; #@! TF.FileFunction,Plated,1,2,PTH
FMAT,2
INCH
; #@! TA.AperFunction,Plated,PTH,ComponentDrill
T1C0.0079
; #@! TA.AperFunction,Plated,PTH,ViaDrill
T2C0.0118
; #@! TA.AperFunction,Plated,PTH,ComponentDrill
T3C0.0130
; #@! TA.AperFunction,Plated,PTH,ComponentDrill
T4C0.0236
; #@! TA.AperFunction,Plated,PTH,ComponentDrill
T5C0.0256
; #@! TA.AperFunction,Plated,PTH,ComponentDrill
T6C0.0315
; #@! TA.AperFunction,Plated,PTH,ComponentDrill
T7C0.0394
; #@! TA.AperFunction,Plated,PTH,ComponentDrill
T8C0.0402
; #@! TA.AperFunction,Plated,PTH,ComponentDrill
T9C0.0453
; #@! TA.AperFunction,Plated,PTH,ComponentDrill
T10C0.0472
%
G90
G05
T1
X4.6789Y-2.267
X4.6789Y-2.3271
X4.709Y-2.237
X4.709Y-2.2971
X4.709Y-2.3571
X4.739Y-2.267
X4.739Y-2.3271
X4.769Y-2.237
X4.769Y-2.2971
X4.769Y-2.3571
X4.799Y-2.267
X4.799Y-2.3271
T2
X4.4677Y-2.025
X4.4677Y-2.675
X4.55Y-2.6148
X4.6177Y-1.875
X4.65Y-2.125
X4.6587Y-1.8258
X4.8162Y-2.5739
X4.8177Y-1.825
X4.8177Y-2.675
X4.8394Y-1.5258
X4.85Y-2.6148
X4.8927Y-2.4
X4.8957Y-3.0068
X4.95Y-1.9258
X4.9677Y-1.825
X4.9677Y-2.675
X5.0Y-1.9258
X5.0Y-2.8
X5.0177Y-1.9986
X5.0677Y-2.5144
X5.0677Y-2.725
X5.0927Y-2.45
X5.1984Y-2.5144
X5.2177Y-2.425
X5.2215Y-2.6274
X5.2677Y-2.5144
X5.311Y-2.3683
X5.3177Y-1.275
X5.3177Y-2.6797
X5.35Y-3.35
X5.361Y-2.3183
X5.3694Y-2.3767
X5.4177Y-2.7034
X5.5677Y-1.475
X5.5677Y-1.575
X5.6177Y-1.1821
X5.6177Y-2.725
X5.6834Y-2.425
X5.9621Y-2.7037
X6.0Y-2.375
X6.0Y-3.3
X6.05Y-2.475
X6.05Y-2.6797
X6.1Y-2.725
X6.1197Y-3.825
X6.15Y-5.0
X6.15Y-5.175
X6.2Y-2.775
X6.2Y-4.075
X6.225Y-5.0
X6.3Y-3.775
X6.475Y-3.75
X6.475Y-3.85
X6.475Y-4.325
X6.5Y-3.475
X6.5Y-4.425
X6.5Y-5.025
X6.5Y-5.175
X6.5167Y-4.4917
X6.525Y-2.55
T3
X6.3Y-5.0738
X6.3Y-5.125
X6.3Y-5.1762
X6.3512Y-5.0738
X6.3512Y-5.125
X6.3512Y-5.1762
T4
X4.4677Y-2.825
X4.5268Y-2.825
X5.1Y-4.3909
X5.1Y-4.45
X5.25Y-4.05
X5.25Y-4.1091
X5.2677Y-1.3659
X5.2677Y-1.425
X5.2677Y-1.625
X5.2677Y-1.6841
X6.4Y-5.375
X6.4591Y-5.375
T6
X6.1Y-2.875
X6.1Y-2.975
X6.1Y-3.075
X6.1Y-3.175
X6.1Y-3.275
X6.1Y-3.375
X6.1Y-3.475
X6.1Y-3.575
X6.1Y-3.775
X6.1Y-3.875
X6.1Y-3.975
X6.1Y-4.075
X6.1Y-4.175
X6.1Y-4.275
X6.1Y-4.375
X6.1Y-4.475
X6.1221Y-1.9065
X6.1221Y-2.0065
X6.1221Y-2.1065
X6.1221Y-2.2065
X6.1221Y-2.3065
X6.1221Y-2.4065
X6.1221Y-2.5065
X6.1221Y-2.6065
X6.6Y-2.875
X6.6Y-2.975
X6.6Y-3.075
X6.6Y-3.175
X6.6Y-3.275
X6.6Y-3.375
X6.6Y-3.475
X6.6Y-3.575
X6.6Y-3.775
X6.6Y-3.875
X6.6Y-3.975
X6.6Y-4.075
X6.6Y-4.175
X6.6Y-4.275
X6.6Y-4.375
X6.6Y-4.475
X6.6221Y-1.9065
X6.6221Y-2.0065
X6.6221Y-2.1065
X6.6221Y-2.2065
X6.6221Y-2.3065
X6.6221Y-2.4065
X6.6221Y-2.5065
X6.6221Y-2.6065
X6.8Y-1.8766
X6.8Y-1.975
X6.8Y-2.8766
X6.8Y-2.975
X6.8Y-3.7766
X6.8Y-3.875
T7
X4.7996Y-4.55
X4.8Y-4.0
X4.8Y-4.35
X4.9Y-4.0
X5.0Y-4.0
X5.2Y-3.35
X5.2Y-3.85
T9
X7.2Y-2.9781
X7.2Y-3.175
X7.2Y-3.3719
X7.2Y-3.5687
X7.2Y-3.925
X7.2Y-4.1219
X7.2Y-4.3187
X7.2Y-4.5156
X7.2213Y-1.9356
X7.2213Y-2.1325
X7.2213Y-2.3293
X7.2213Y-2.5262
T10
X6.95Y-5.025
X6.95Y-5.2219
T4
G00X5.4033Y-1.1388
M15
G01X5.4033Y-1.1112
M16
G05
G00X5.7321Y-1.1388
M15
G01X5.7321Y-1.1112
M16
G05
T5
G00X5.4801Y-1.247
M15
G01X5.4801Y-1.2392
M16
G05
G00X5.6553Y-1.247
M15
G01X5.6553Y-1.2392
M16
G05
T8
G00X4.7409Y-4.8382
M15
G01X4.8591Y-4.8382
M16
G05
G00X4.7409Y-5.0421
M15
G01X4.8591Y-5.0421
M16
G05
M30
