%TF.GenerationSoftware,KiCad,Pcbnew,8.0.3*%
%TF.CreationDate,2024-11-24T23:29:19-08:00*%
%TF.ProjectId,esp32cnc,65737033-3263-46e6-932e-6b696361645f,2*%
%TF.SameCoordinates,Original*%
%TF.FileFunction,Drillmap*%
%TF.FilePolarity,Positive*%
%FSLAX45Y45*%
G04 Gerber Fmt 4.5, Leading zero omitted, Abs format (unit mm)*
G04 Created by KiCad (PCBNEW 8.0.3) date 2024-11-24 23:29:19*
%MOMM*%
%LPD*%
G01*
G04 APERTURE LIST*
%ADD10C,0.050000*%
%ADD11C,0.200000*%
G04 APERTURE END LIST*
D10*
X10160000Y-2540000D02*
X19304000Y-2540000D01*
X19304000Y-14224000D01*
X10160000Y-14224000D01*
X10160000Y-2540000D01*
D11*
X10418277Y-14537984D02*
X10418277Y-14337984D01*
X10418277Y-14337984D02*
X10465896Y-14337984D01*
X10465896Y-14337984D02*
X10494467Y-14347508D01*
X10494467Y-14347508D02*
X10513515Y-14366555D01*
X10513515Y-14366555D02*
X10523039Y-14385603D01*
X10523039Y-14385603D02*
X10532563Y-14423698D01*
X10532563Y-14423698D02*
X10532563Y-14452269D01*
X10532563Y-14452269D02*
X10523039Y-14490365D01*
X10523039Y-14490365D02*
X10513515Y-14509412D01*
X10513515Y-14509412D02*
X10494467Y-14528460D01*
X10494467Y-14528460D02*
X10465896Y-14537984D01*
X10465896Y-14537984D02*
X10418277Y-14537984D01*
X10618277Y-14537984D02*
X10618277Y-14404650D01*
X10618277Y-14442746D02*
X10627801Y-14423698D01*
X10627801Y-14423698D02*
X10637324Y-14414174D01*
X10637324Y-14414174D02*
X10656372Y-14404650D01*
X10656372Y-14404650D02*
X10675420Y-14404650D01*
X10742086Y-14537984D02*
X10742086Y-14404650D01*
X10742086Y-14337984D02*
X10732563Y-14347508D01*
X10732563Y-14347508D02*
X10742086Y-14357031D01*
X10742086Y-14357031D02*
X10751610Y-14347508D01*
X10751610Y-14347508D02*
X10742086Y-14337984D01*
X10742086Y-14337984D02*
X10742086Y-14357031D01*
X10865896Y-14537984D02*
X10846848Y-14528460D01*
X10846848Y-14528460D02*
X10837324Y-14509412D01*
X10837324Y-14509412D02*
X10837324Y-14337984D01*
X10970658Y-14537984D02*
X10951610Y-14528460D01*
X10951610Y-14528460D02*
X10942086Y-14509412D01*
X10942086Y-14509412D02*
X10942086Y-14337984D01*
X11199229Y-14537984D02*
X11199229Y-14337984D01*
X11199229Y-14337984D02*
X11265896Y-14480841D01*
X11265896Y-14480841D02*
X11332562Y-14337984D01*
X11332562Y-14337984D02*
X11332562Y-14537984D01*
X11513515Y-14537984D02*
X11513515Y-14433222D01*
X11513515Y-14433222D02*
X11503991Y-14414174D01*
X11503991Y-14414174D02*
X11484943Y-14404650D01*
X11484943Y-14404650D02*
X11446848Y-14404650D01*
X11446848Y-14404650D02*
X11427801Y-14414174D01*
X11513515Y-14528460D02*
X11494467Y-14537984D01*
X11494467Y-14537984D02*
X11446848Y-14537984D01*
X11446848Y-14537984D02*
X11427801Y-14528460D01*
X11427801Y-14528460D02*
X11418277Y-14509412D01*
X11418277Y-14509412D02*
X11418277Y-14490365D01*
X11418277Y-14490365D02*
X11427801Y-14471317D01*
X11427801Y-14471317D02*
X11446848Y-14461793D01*
X11446848Y-14461793D02*
X11494467Y-14461793D01*
X11494467Y-14461793D02*
X11513515Y-14452269D01*
X11608753Y-14404650D02*
X11608753Y-14604650D01*
X11608753Y-14414174D02*
X11627801Y-14404650D01*
X11627801Y-14404650D02*
X11665896Y-14404650D01*
X11665896Y-14404650D02*
X11684943Y-14414174D01*
X11684943Y-14414174D02*
X11694467Y-14423698D01*
X11694467Y-14423698D02*
X11703991Y-14442746D01*
X11703991Y-14442746D02*
X11703991Y-14499888D01*
X11703991Y-14499888D02*
X11694467Y-14518936D01*
X11694467Y-14518936D02*
X11684943Y-14528460D01*
X11684943Y-14528460D02*
X11665896Y-14537984D01*
X11665896Y-14537984D02*
X11627801Y-14537984D01*
X11627801Y-14537984D02*
X11608753Y-14528460D01*
X11789705Y-14518936D02*
X11799229Y-14528460D01*
X11799229Y-14528460D02*
X11789705Y-14537984D01*
X11789705Y-14537984D02*
X11780182Y-14528460D01*
X11780182Y-14528460D02*
X11789705Y-14518936D01*
X11789705Y-14518936D02*
X11789705Y-14537984D01*
X11789705Y-14414174D02*
X11799229Y-14423698D01*
X11799229Y-14423698D02*
X11789705Y-14433222D01*
X11789705Y-14433222D02*
X11780182Y-14423698D01*
X11780182Y-14423698D02*
X11789705Y-14414174D01*
X11789705Y-14414174D02*
X11789705Y-14433222D01*
M02*
