%TF.GenerationSoftware,KiCad,Pcbnew,8.0.3*%
%TF.CreationDate,2024-11-24T23:29:19-08:00*%
%TF.ProjectId,esp32cnc,65737033-3263-46e6-932e-6b696361645f,2*%
%TF.SameCoordinates,Original*%
%TF.FileFunction,Drillmap*%
%TF.FilePolarity,Positive*%
%FSLAX45Y45*%
G04 Gerber Fmt 4.5, Leading zero omitted, Abs format (unit mm)*
G04 Created by KiCad (PCBNEW 8.0.3) date 2024-11-24 23:29:19*
%MOMM*%
%LPD*%
G01*
G04 APERTURE LIST*
%ADD10C,0.050000*%
%ADD11C,0.200000*%
%ADD12C,0.100000*%
%ADD13C,0.102000*%
%ADD14C,0.115000*%
%ADD15C,0.120000*%
G04 APERTURE END LIST*
D10*
X10160000Y-2540000D02*
X19304000Y-2540000D01*
X19304000Y-14224000D01*
X10160000Y-14224000D01*
X10160000Y-2540000D01*
D11*
D12*
X11874500Y-5748272D02*
X11894500Y-5768272D01*
X11894500Y-5748272D02*
X11874500Y-5768272D01*
X11874500Y-5900772D02*
X11894500Y-5920772D01*
X11894500Y-5900772D02*
X11874500Y-5920772D01*
X11950750Y-5672022D02*
X11970750Y-5692022D01*
X11970750Y-5672022D02*
X11950750Y-5692022D01*
X11950750Y-5824522D02*
X11970750Y-5844522D01*
X11970750Y-5824522D02*
X11950750Y-5844522D01*
X11950750Y-5977022D02*
X11970750Y-5997022D01*
X11970750Y-5977022D02*
X11950750Y-5997022D01*
X12027000Y-5748272D02*
X12047000Y-5768272D01*
X12047000Y-5748272D02*
X12027000Y-5768272D01*
X12027000Y-5900772D02*
X12047000Y-5920772D01*
X12047000Y-5900772D02*
X12027000Y-5920772D01*
X12103250Y-5672022D02*
X12123250Y-5692022D01*
X12123250Y-5672022D02*
X12103250Y-5692022D01*
X12103250Y-5824522D02*
X12123250Y-5844522D01*
X12123250Y-5824522D02*
X12103250Y-5844522D01*
X12103250Y-5977022D02*
X12123250Y-5997022D01*
X12123250Y-5977022D02*
X12103250Y-5997022D01*
X12179500Y-5748272D02*
X12199500Y-5768272D01*
X12199500Y-5748272D02*
X12179500Y-5768272D01*
X12179500Y-5900772D02*
X12199500Y-5920772D01*
X12199500Y-5900772D02*
X12179500Y-5920772D01*
X11363000Y-5143500D02*
G75*
G02*
X11333000Y-5143500I-15000J0D01*
G01*
X11333000Y-5143500D02*
G75*
G02*
X11363000Y-5143500I15000J0D01*
G01*
X11363000Y-6794500D02*
G75*
G02*
X11333000Y-6794500I-15000J0D01*
G01*
X11333000Y-6794500D02*
G75*
G02*
X11363000Y-6794500I15000J0D01*
G01*
X11572000Y-6641522D02*
G75*
G02*
X11542000Y-6641522I-15000J0D01*
G01*
X11542000Y-6641522D02*
G75*
G02*
X11572000Y-6641522I15000J0D01*
G01*
X11744000Y-4762500D02*
G75*
G02*
X11714000Y-4762500I-15000J0D01*
G01*
X11714000Y-4762500D02*
G75*
G02*
X11744000Y-4762500I15000J0D01*
G01*
X11826000Y-5397500D02*
G75*
G02*
X11796000Y-5397500I-15000J0D01*
G01*
X11796000Y-5397500D02*
G75*
G02*
X11826000Y-5397500I15000J0D01*
G01*
X11848000Y-4637523D02*
G75*
G02*
X11818000Y-4637523I-15000J0D01*
G01*
X11818000Y-4637523D02*
G75*
G02*
X11848000Y-4637523I15000J0D01*
G01*
X12248102Y-6537758D02*
G75*
G02*
X12218102Y-6537758I-15000J0D01*
G01*
X12218102Y-6537758D02*
G75*
G02*
X12248102Y-6537758I15000J0D01*
G01*
X12252000Y-4635500D02*
G75*
G02*
X12222000Y-4635500I-15000J0D01*
G01*
X12222000Y-4635500D02*
G75*
G02*
X12252000Y-4635500I15000J0D01*
G01*
X12252000Y-6794500D02*
G75*
G02*
X12222000Y-6794500I-15000J0D01*
G01*
X12222000Y-6794500D02*
G75*
G02*
X12252000Y-6794500I15000J0D01*
G01*
X12307000Y-3875522D02*
G75*
G02*
X12277000Y-3875522I-15000J0D01*
G01*
X12277000Y-3875522D02*
G75*
G02*
X12307000Y-3875522I15000J0D01*
G01*
X12334000Y-6641522D02*
G75*
G02*
X12304000Y-6641522I-15000J0D01*
G01*
X12304000Y-6641522D02*
G75*
G02*
X12334000Y-6641522I15000J0D01*
G01*
X12442500Y-6096000D02*
G75*
G02*
X12412500Y-6096000I-15000J0D01*
G01*
X12412500Y-6096000D02*
G75*
G02*
X12442500Y-6096000I15000J0D01*
G01*
X12450034Y-7637319D02*
G75*
G02*
X12420034Y-7637319I-15000J0D01*
G01*
X12420034Y-7637319D02*
G75*
G02*
X12450034Y-7637319I15000J0D01*
G01*
X12588000Y-4891523D02*
G75*
G02*
X12558000Y-4891523I-15000J0D01*
G01*
X12558000Y-4891523D02*
G75*
G02*
X12588000Y-4891523I15000J0D01*
G01*
X12633000Y-4635500D02*
G75*
G02*
X12603000Y-4635500I-15000J0D01*
G01*
X12603000Y-4635500D02*
G75*
G02*
X12633000Y-4635500I15000J0D01*
G01*
X12633000Y-6794500D02*
G75*
G02*
X12603000Y-6794500I-15000J0D01*
G01*
X12603000Y-6794500D02*
G75*
G02*
X12633000Y-6794500I15000J0D01*
G01*
X12715000Y-4891523D02*
G75*
G02*
X12685000Y-4891523I-15000J0D01*
G01*
X12685000Y-4891523D02*
G75*
G02*
X12715000Y-4891523I15000J0D01*
G01*
X12715000Y-7112000D02*
G75*
G02*
X12685000Y-7112000I-15000J0D01*
G01*
X12685000Y-7112000D02*
G75*
G02*
X12715000Y-7112000I15000J0D01*
G01*
X12760000Y-5076500D02*
G75*
G02*
X12730000Y-5076500I-15000J0D01*
G01*
X12730000Y-5076500D02*
G75*
G02*
X12760000Y-5076500I15000J0D01*
G01*
X12887000Y-6386500D02*
G75*
G02*
X12857000Y-6386500I-15000J0D01*
G01*
X12857000Y-6386500D02*
G75*
G02*
X12887000Y-6386500I15000J0D01*
G01*
X12887000Y-6921500D02*
G75*
G02*
X12857000Y-6921500I-15000J0D01*
G01*
X12857000Y-6921500D02*
G75*
G02*
X12887000Y-6921500I15000J0D01*
G01*
X12950500Y-6223000D02*
G75*
G02*
X12920500Y-6223000I-15000J0D01*
G01*
X12920500Y-6223000D02*
G75*
G02*
X12950500Y-6223000I15000J0D01*
G01*
X13218842Y-6386500D02*
G75*
G02*
X13188842Y-6386500I-15000J0D01*
G01*
X13188842Y-6386500D02*
G75*
G02*
X13218842Y-6386500I15000J0D01*
G01*
X13268000Y-6159500D02*
G75*
G02*
X13238000Y-6159500I-15000J0D01*
G01*
X13238000Y-6159500D02*
G75*
G02*
X13268000Y-6159500I15000J0D01*
G01*
X13277494Y-6673712D02*
G75*
G02*
X13247494Y-6673712I-15000J0D01*
G01*
X13247494Y-6673712D02*
G75*
G02*
X13277494Y-6673712I15000J0D01*
G01*
X13395000Y-6386500D02*
G75*
G02*
X13365000Y-6386500I-15000J0D01*
G01*
X13365000Y-6386500D02*
G75*
G02*
X13395000Y-6386500I15000J0D01*
G01*
X13504994Y-6015494D02*
G75*
G02*
X13474994Y-6015494I-15000J0D01*
G01*
X13474994Y-6015494D02*
G75*
G02*
X13504994Y-6015494I15000J0D01*
G01*
X13522000Y-3238500D02*
G75*
G02*
X13492000Y-3238500I-15000J0D01*
G01*
X13492000Y-3238500D02*
G75*
G02*
X13522000Y-3238500I15000J0D01*
G01*
X13522000Y-6806522D02*
G75*
G02*
X13492000Y-6806522I-15000J0D01*
G01*
X13492000Y-6806522D02*
G75*
G02*
X13522000Y-6806522I15000J0D01*
G01*
X13604000Y-8509000D02*
G75*
G02*
X13574000Y-8509000I-15000J0D01*
G01*
X13574000Y-8509000D02*
G75*
G02*
X13604000Y-8509000I15000J0D01*
G01*
X13631994Y-5888494D02*
G75*
G02*
X13601994Y-5888494I-15000J0D01*
G01*
X13601994Y-5888494D02*
G75*
G02*
X13631994Y-5888494I15000J0D01*
G01*
X13653347Y-6036847D02*
G75*
G02*
X13623347Y-6036847I-15000J0D01*
G01*
X13623347Y-6036847D02*
G75*
G02*
X13653347Y-6036847I15000J0D01*
G01*
X13776000Y-6866522D02*
G75*
G02*
X13746000Y-6866522I-15000J0D01*
G01*
X13746000Y-6866522D02*
G75*
G02*
X13776000Y-6866522I15000J0D01*
G01*
X14157000Y-3746500D02*
G75*
G02*
X14127000Y-3746500I-15000J0D01*
G01*
X14127000Y-3746500D02*
G75*
G02*
X14157000Y-3746500I15000J0D01*
G01*
X14157000Y-4000500D02*
G75*
G02*
X14127000Y-4000500I-15000J0D01*
G01*
X14127000Y-4000500D02*
G75*
G02*
X14157000Y-4000500I15000J0D01*
G01*
X14284000Y-3002500D02*
G75*
G02*
X14254000Y-3002500I-15000J0D01*
G01*
X14254000Y-3002500D02*
G75*
G02*
X14284000Y-3002500I15000J0D01*
G01*
X14284000Y-6921500D02*
G75*
G02*
X14254000Y-6921500I-15000J0D01*
G01*
X14254000Y-6921500D02*
G75*
G02*
X14284000Y-6921500I15000J0D01*
G01*
X14450853Y-6159500D02*
G75*
G02*
X14420853Y-6159500I-15000J0D01*
G01*
X14420853Y-6159500D02*
G75*
G02*
X14450853Y-6159500I15000J0D01*
G01*
X15158711Y-6867358D02*
G75*
G02*
X15128711Y-6867358I-15000J0D01*
G01*
X15128711Y-6867358D02*
G75*
G02*
X15158711Y-6867358I15000J0D01*
G01*
X15255000Y-6032500D02*
G75*
G02*
X15225000Y-6032500I-15000J0D01*
G01*
X15225000Y-6032500D02*
G75*
G02*
X15255000Y-6032500I15000J0D01*
G01*
X15255000Y-8382000D02*
G75*
G02*
X15225000Y-8382000I-15000J0D01*
G01*
X15225000Y-8382000D02*
G75*
G02*
X15255000Y-8382000I15000J0D01*
G01*
X15382000Y-6286500D02*
G75*
G02*
X15352000Y-6286500I-15000J0D01*
G01*
X15352000Y-6286500D02*
G75*
G02*
X15382000Y-6286500I15000J0D01*
G01*
X15382000Y-6806522D02*
G75*
G02*
X15352000Y-6806522I-15000J0D01*
G01*
X15352000Y-6806522D02*
G75*
G02*
X15382000Y-6806522I15000J0D01*
G01*
X15509000Y-6921500D02*
G75*
G02*
X15479000Y-6921500I-15000J0D01*
G01*
X15479000Y-6921500D02*
G75*
G02*
X15509000Y-6921500I15000J0D01*
G01*
X15559000Y-9715500D02*
G75*
G02*
X15529000Y-9715500I-15000J0D01*
G01*
X15529000Y-9715500D02*
G75*
G02*
X15559000Y-9715500I15000J0D01*
G01*
X15636000Y-12700000D02*
G75*
G02*
X15606000Y-12700000I-15000J0D01*
G01*
X15606000Y-12700000D02*
G75*
G02*
X15636000Y-12700000I15000J0D01*
G01*
X15636000Y-13144500D02*
G75*
G02*
X15606000Y-13144500I-15000J0D01*
G01*
X15606000Y-13144500D02*
G75*
G02*
X15636000Y-13144500I15000J0D01*
G01*
X15763000Y-7048500D02*
G75*
G02*
X15733000Y-7048500I-15000J0D01*
G01*
X15733000Y-7048500D02*
G75*
G02*
X15763000Y-7048500I15000J0D01*
G01*
X15763000Y-10350500D02*
G75*
G02*
X15733000Y-10350500I-15000J0D01*
G01*
X15733000Y-10350500D02*
G75*
G02*
X15763000Y-10350500I15000J0D01*
G01*
X15826500Y-12700000D02*
G75*
G02*
X15796500Y-12700000I-15000J0D01*
G01*
X15796500Y-12700000D02*
G75*
G02*
X15826500Y-12700000I15000J0D01*
G01*
X16017000Y-9588500D02*
G75*
G02*
X15987000Y-9588500I-15000J0D01*
G01*
X15987000Y-9588500D02*
G75*
G02*
X16017000Y-9588500I15000J0D01*
G01*
X16461500Y-9525000D02*
G75*
G02*
X16431500Y-9525000I-15000J0D01*
G01*
X16431500Y-9525000D02*
G75*
G02*
X16461500Y-9525000I15000J0D01*
G01*
X16461500Y-9779000D02*
G75*
G02*
X16431500Y-9779000I-15000J0D01*
G01*
X16431500Y-9779000D02*
G75*
G02*
X16461500Y-9779000I15000J0D01*
G01*
X16461500Y-10985500D02*
G75*
G02*
X16431500Y-10985500I-15000J0D01*
G01*
X16431500Y-10985500D02*
G75*
G02*
X16461500Y-10985500I15000J0D01*
G01*
X16525000Y-8826500D02*
G75*
G02*
X16495000Y-8826500I-15000J0D01*
G01*
X16495000Y-8826500D02*
G75*
G02*
X16525000Y-8826500I15000J0D01*
G01*
X16525000Y-11239500D02*
G75*
G02*
X16495000Y-11239500I-15000J0D01*
G01*
X16495000Y-11239500D02*
G75*
G02*
X16525000Y-11239500I15000J0D01*
G01*
X16525000Y-12763500D02*
G75*
G02*
X16495000Y-12763500I-15000J0D01*
G01*
X16495000Y-12763500D02*
G75*
G02*
X16525000Y-12763500I15000J0D01*
G01*
X16525000Y-13144500D02*
G75*
G02*
X16495000Y-13144500I-15000J0D01*
G01*
X16495000Y-13144500D02*
G75*
G02*
X16525000Y-13144500I15000J0D01*
G01*
X16567426Y-11408926D02*
G75*
G02*
X16537426Y-11408926I-15000J0D01*
G01*
X16537426Y-11408926D02*
G75*
G02*
X16567426Y-11408926I15000J0D01*
G01*
X16588500Y-6477000D02*
G75*
G02*
X16558500Y-6477000I-15000J0D01*
G01*
X16558500Y-6477000D02*
G75*
G02*
X16588500Y-6477000I15000J0D01*
G01*
X16002000Y-12871000D02*
X16002000Y-12904000D01*
X15985500Y-12887500D02*
X16018500Y-12887500D01*
X16002000Y-13001000D02*
X16002000Y-13034000D01*
X15985500Y-13017500D02*
X16018500Y-13017500D01*
X16002000Y-13131000D02*
X16002000Y-13164000D01*
X15985500Y-13147500D02*
X16018500Y-13147500D01*
X16132000Y-12871000D02*
X16132000Y-12904000D01*
X16115500Y-12887500D02*
X16148500Y-12887500D01*
X16132000Y-13001000D02*
X16132000Y-13034000D01*
X16115500Y-13017500D02*
X16148500Y-13017500D01*
X16132000Y-13131000D02*
X16132000Y-13164000D01*
X16115500Y-13147500D02*
X16148500Y-13147500D01*
X11369213Y-7196713D02*
X11369213Y-7154287D01*
X11326787Y-7154287D01*
X11326787Y-7196713D01*
X11369213Y-7196713D01*
X11519213Y-7196713D02*
X11519213Y-7154287D01*
X11476787Y-7154287D01*
X11476787Y-7196713D01*
X11519213Y-7196713D01*
X12975213Y-11174213D02*
X12975213Y-11131787D01*
X12932787Y-11131787D01*
X12932787Y-11174213D01*
X12975213Y-11174213D01*
X12975213Y-11324213D02*
X12975213Y-11281787D01*
X12932787Y-11281787D01*
X12932787Y-11324213D01*
X12975213Y-11324213D01*
X13356213Y-10308213D02*
X13356213Y-10265787D01*
X13313787Y-10265787D01*
X13313787Y-10308213D01*
X13356213Y-10308213D01*
X13356213Y-10458213D02*
X13356213Y-10415787D01*
X13313787Y-10415787D01*
X13313787Y-10458213D01*
X13356213Y-10458213D01*
X13401213Y-3490713D02*
X13401213Y-3448287D01*
X13358787Y-3448287D01*
X13358787Y-3490713D01*
X13401213Y-3490713D01*
X13401213Y-3640713D02*
X13401213Y-3598287D01*
X13358787Y-3598287D01*
X13358787Y-3640713D01*
X13401213Y-3640713D01*
X13401213Y-4148713D02*
X13401213Y-4106287D01*
X13358787Y-4106287D01*
X13358787Y-4148713D01*
X13401213Y-4148713D01*
X13401213Y-4298713D02*
X13401213Y-4256287D01*
X13358787Y-4256287D01*
X13358787Y-4298713D01*
X13401213Y-4298713D01*
X13745713Y-2878713D02*
X13745713Y-2836287D01*
X13703287Y-2836287D01*
X13703287Y-2878713D01*
X13745713Y-2878713D01*
X13754500Y-2892500D02*
X13754500Y-2822500D01*
X13694500Y-2822500D02*
G75*
G02*
X13754500Y-2822500I30000J0D01*
G01*
X13694500Y-2822500D02*
X13694500Y-2892500D01*
X13694500Y-2892500D02*
G75*
G03*
X13754500Y-2892500I30000J0D01*
G01*
X14580713Y-2878713D02*
X14580713Y-2836287D01*
X14538287Y-2836287D01*
X14538287Y-2878713D01*
X14580713Y-2878713D01*
X14589500Y-2892500D02*
X14589500Y-2822500D01*
X14529500Y-2822500D02*
G75*
G02*
X14589500Y-2822500I30000J0D01*
G01*
X14529500Y-2822500D02*
X14529500Y-2892500D01*
X14529500Y-2892500D02*
G75*
G03*
X14589500Y-2892500I30000J0D01*
G01*
X16277213Y-13673713D02*
X16277213Y-13631287D01*
X16234787Y-13631287D01*
X16234787Y-13673713D01*
X16277213Y-13673713D01*
X16427213Y-13673713D02*
X16427213Y-13631287D01*
X16384787Y-13631287D01*
X16384787Y-13673713D01*
X16427213Y-13673713D01*
X13919500Y-3190000D02*
X13952000Y-3157500D01*
X13919500Y-3125000D01*
X13887000Y-3157500D01*
X13919500Y-3190000D01*
X13952000Y-3167500D02*
X13952000Y-3147500D01*
X13887000Y-3147500D02*
G75*
G02*
X13952000Y-3147500I32500J0D01*
G01*
X13887000Y-3147500D02*
X13887000Y-3167500D01*
X13887000Y-3167500D02*
G75*
G03*
X13952000Y-3167500I32500J0D01*
G01*
X14364500Y-3190000D02*
X14397000Y-3157500D01*
X14364500Y-3125000D01*
X14332000Y-3157500D01*
X14364500Y-3190000D01*
X14397000Y-3167500D02*
X14397000Y-3147500D01*
X14332000Y-3147500D02*
G75*
G02*
X14397000Y-3147500I32500J0D01*
G01*
X14332000Y-3147500D02*
X14332000Y-3167500D01*
X14332000Y-3167500D02*
G75*
G03*
X14397000Y-3167500I32500J0D01*
G01*
X15454000Y-7262500D02*
X15534000Y-7342500D01*
X15534000Y-7262500D02*
X15454000Y-7342500D01*
X15534000Y-7302500D02*
G75*
G02*
X15454000Y-7302500I-40000J0D01*
G01*
X15454000Y-7302500D02*
G75*
G02*
X15534000Y-7302500I40000J0D01*
G01*
X15454000Y-7516500D02*
X15534000Y-7596500D01*
X15534000Y-7516500D02*
X15454000Y-7596500D01*
X15534000Y-7556500D02*
G75*
G02*
X15454000Y-7556500I-40000J0D01*
G01*
X15454000Y-7556500D02*
G75*
G02*
X15534000Y-7556500I40000J0D01*
G01*
X15454000Y-7770500D02*
X15534000Y-7850500D01*
X15534000Y-7770500D02*
X15454000Y-7850500D01*
X15534000Y-7810500D02*
G75*
G02*
X15454000Y-7810500I-40000J0D01*
G01*
X15454000Y-7810500D02*
G75*
G02*
X15534000Y-7810500I40000J0D01*
G01*
X15454000Y-8024500D02*
X15534000Y-8104500D01*
X15534000Y-8024500D02*
X15454000Y-8104500D01*
X15534000Y-8064500D02*
G75*
G02*
X15454000Y-8064500I-40000J0D01*
G01*
X15454000Y-8064500D02*
G75*
G02*
X15534000Y-8064500I40000J0D01*
G01*
X15454000Y-8278500D02*
X15534000Y-8358500D01*
X15534000Y-8278500D02*
X15454000Y-8358500D01*
X15534000Y-8318500D02*
G75*
G02*
X15454000Y-8318500I-40000J0D01*
G01*
X15454000Y-8318500D02*
G75*
G02*
X15534000Y-8318500I40000J0D01*
G01*
X15454000Y-8532500D02*
X15534000Y-8612500D01*
X15534000Y-8532500D02*
X15454000Y-8612500D01*
X15534000Y-8572500D02*
G75*
G02*
X15454000Y-8572500I-40000J0D01*
G01*
X15454000Y-8572500D02*
G75*
G02*
X15534000Y-8572500I40000J0D01*
G01*
X15454000Y-8786500D02*
X15534000Y-8866500D01*
X15534000Y-8786500D02*
X15454000Y-8866500D01*
X15534000Y-8826500D02*
G75*
G02*
X15454000Y-8826500I-40000J0D01*
G01*
X15454000Y-8826500D02*
G75*
G02*
X15534000Y-8826500I40000J0D01*
G01*
X15454000Y-9040500D02*
X15534000Y-9120500D01*
X15534000Y-9040500D02*
X15454000Y-9120500D01*
X15534000Y-9080500D02*
G75*
G02*
X15454000Y-9080500I-40000J0D01*
G01*
X15454000Y-9080500D02*
G75*
G02*
X15534000Y-9080500I40000J0D01*
G01*
X15454000Y-9548500D02*
X15534000Y-9628500D01*
X15534000Y-9548500D02*
X15454000Y-9628500D01*
X15534000Y-9588500D02*
G75*
G02*
X15454000Y-9588500I-40000J0D01*
G01*
X15454000Y-9588500D02*
G75*
G02*
X15534000Y-9588500I40000J0D01*
G01*
X15454000Y-9802500D02*
X15534000Y-9882500D01*
X15534000Y-9802500D02*
X15454000Y-9882500D01*
X15534000Y-9842500D02*
G75*
G02*
X15454000Y-9842500I-40000J0D01*
G01*
X15454000Y-9842500D02*
G75*
G02*
X15534000Y-9842500I40000J0D01*
G01*
X15454000Y-10056500D02*
X15534000Y-10136500D01*
X15534000Y-10056500D02*
X15454000Y-10136500D01*
X15534000Y-10096500D02*
G75*
G02*
X15454000Y-10096500I-40000J0D01*
G01*
X15454000Y-10096500D02*
G75*
G02*
X15534000Y-10096500I40000J0D01*
G01*
X15454000Y-10310500D02*
X15534000Y-10390500D01*
X15534000Y-10310500D02*
X15454000Y-10390500D01*
X15534000Y-10350500D02*
G75*
G02*
X15454000Y-10350500I-40000J0D01*
G01*
X15454000Y-10350500D02*
G75*
G02*
X15534000Y-10350500I40000J0D01*
G01*
X15454000Y-10564500D02*
X15534000Y-10644500D01*
X15534000Y-10564500D02*
X15454000Y-10644500D01*
X15534000Y-10604500D02*
G75*
G02*
X15454000Y-10604500I-40000J0D01*
G01*
X15454000Y-10604500D02*
G75*
G02*
X15534000Y-10604500I40000J0D01*
G01*
X15454000Y-10818500D02*
X15534000Y-10898500D01*
X15534000Y-10818500D02*
X15454000Y-10898500D01*
X15534000Y-10858500D02*
G75*
G02*
X15454000Y-10858500I-40000J0D01*
G01*
X15454000Y-10858500D02*
G75*
G02*
X15534000Y-10858500I40000J0D01*
G01*
X15454000Y-11072500D02*
X15534000Y-11152500D01*
X15534000Y-11072500D02*
X15454000Y-11152500D01*
X15534000Y-11112500D02*
G75*
G02*
X15454000Y-11112500I-40000J0D01*
G01*
X15454000Y-11112500D02*
G75*
G02*
X15534000Y-11112500I40000J0D01*
G01*
X15454000Y-11326500D02*
X15534000Y-11406500D01*
X15534000Y-11326500D02*
X15454000Y-11406500D01*
X15534000Y-11366500D02*
G75*
G02*
X15454000Y-11366500I-40000J0D01*
G01*
X15454000Y-11366500D02*
G75*
G02*
X15534000Y-11366500I40000J0D01*
G01*
X15510022Y-4802500D02*
X15590022Y-4882500D01*
X15590022Y-4802500D02*
X15510022Y-4882500D01*
X15590022Y-4842500D02*
G75*
G02*
X15510022Y-4842500I-40000J0D01*
G01*
X15510022Y-4842500D02*
G75*
G02*
X15590022Y-4842500I40000J0D01*
G01*
X15510022Y-5056500D02*
X15590022Y-5136500D01*
X15590022Y-5056500D02*
X15510022Y-5136500D01*
X15590022Y-5096500D02*
G75*
G02*
X15510022Y-5096500I-40000J0D01*
G01*
X15510022Y-5096500D02*
G75*
G02*
X15590022Y-5096500I40000J0D01*
G01*
X15510022Y-5310500D02*
X15590022Y-5390500D01*
X15590022Y-5310500D02*
X15510022Y-5390500D01*
X15590022Y-5350500D02*
G75*
G02*
X15510022Y-5350500I-40000J0D01*
G01*
X15510022Y-5350500D02*
G75*
G02*
X15590022Y-5350500I40000J0D01*
G01*
X15510022Y-5564500D02*
X15590022Y-5644500D01*
X15590022Y-5564500D02*
X15510022Y-5644500D01*
X15590022Y-5604500D02*
G75*
G02*
X15510022Y-5604500I-40000J0D01*
G01*
X15510022Y-5604500D02*
G75*
G02*
X15590022Y-5604500I40000J0D01*
G01*
X15510022Y-5818500D02*
X15590022Y-5898500D01*
X15590022Y-5818500D02*
X15510022Y-5898500D01*
X15590022Y-5858500D02*
G75*
G02*
X15510022Y-5858500I-40000J0D01*
G01*
X15510022Y-5858500D02*
G75*
G02*
X15590022Y-5858500I40000J0D01*
G01*
X15510022Y-6072500D02*
X15590022Y-6152500D01*
X15590022Y-6072500D02*
X15510022Y-6152500D01*
X15590022Y-6112500D02*
G75*
G02*
X15510022Y-6112500I-40000J0D01*
G01*
X15510022Y-6112500D02*
G75*
G02*
X15590022Y-6112500I40000J0D01*
G01*
X15510022Y-6326500D02*
X15590022Y-6406500D01*
X15590022Y-6326500D02*
X15510022Y-6406500D01*
X15590022Y-6366500D02*
G75*
G02*
X15510022Y-6366500I-40000J0D01*
G01*
X15510022Y-6366500D02*
G75*
G02*
X15590022Y-6366500I40000J0D01*
G01*
X15510022Y-6580500D02*
X15590022Y-6660500D01*
X15590022Y-6580500D02*
X15510022Y-6660500D01*
X15590022Y-6620500D02*
G75*
G02*
X15510022Y-6620500I-40000J0D01*
G01*
X15510022Y-6620500D02*
G75*
G02*
X15590022Y-6620500I40000J0D01*
G01*
X16724000Y-7262500D02*
X16804000Y-7342500D01*
X16804000Y-7262500D02*
X16724000Y-7342500D01*
X16804000Y-7302500D02*
G75*
G02*
X16724000Y-7302500I-40000J0D01*
G01*
X16724000Y-7302500D02*
G75*
G02*
X16804000Y-7302500I40000J0D01*
G01*
X16724000Y-7516500D02*
X16804000Y-7596500D01*
X16804000Y-7516500D02*
X16724000Y-7596500D01*
X16804000Y-7556500D02*
G75*
G02*
X16724000Y-7556500I-40000J0D01*
G01*
X16724000Y-7556500D02*
G75*
G02*
X16804000Y-7556500I40000J0D01*
G01*
X16724000Y-7770500D02*
X16804000Y-7850500D01*
X16804000Y-7770500D02*
X16724000Y-7850500D01*
X16804000Y-7810500D02*
G75*
G02*
X16724000Y-7810500I-40000J0D01*
G01*
X16724000Y-7810500D02*
G75*
G02*
X16804000Y-7810500I40000J0D01*
G01*
X16724000Y-8024500D02*
X16804000Y-8104500D01*
X16804000Y-8024500D02*
X16724000Y-8104500D01*
X16804000Y-8064500D02*
G75*
G02*
X16724000Y-8064500I-40000J0D01*
G01*
X16724000Y-8064500D02*
G75*
G02*
X16804000Y-8064500I40000J0D01*
G01*
X16724000Y-8278500D02*
X16804000Y-8358500D01*
X16804000Y-8278500D02*
X16724000Y-8358500D01*
X16804000Y-8318500D02*
G75*
G02*
X16724000Y-8318500I-40000J0D01*
G01*
X16724000Y-8318500D02*
G75*
G02*
X16804000Y-8318500I40000J0D01*
G01*
X16724000Y-8532500D02*
X16804000Y-8612500D01*
X16804000Y-8532500D02*
X16724000Y-8612500D01*
X16804000Y-8572500D02*
G75*
G02*
X16724000Y-8572500I-40000J0D01*
G01*
X16724000Y-8572500D02*
G75*
G02*
X16804000Y-8572500I40000J0D01*
G01*
X16724000Y-8786500D02*
X16804000Y-8866500D01*
X16804000Y-8786500D02*
X16724000Y-8866500D01*
X16804000Y-8826500D02*
G75*
G02*
X16724000Y-8826500I-40000J0D01*
G01*
X16724000Y-8826500D02*
G75*
G02*
X16804000Y-8826500I40000J0D01*
G01*
X16724000Y-9040500D02*
X16804000Y-9120500D01*
X16804000Y-9040500D02*
X16724000Y-9120500D01*
X16804000Y-9080500D02*
G75*
G02*
X16724000Y-9080500I-40000J0D01*
G01*
X16724000Y-9080500D02*
G75*
G02*
X16804000Y-9080500I40000J0D01*
G01*
X16724000Y-9548500D02*
X16804000Y-9628500D01*
X16804000Y-9548500D02*
X16724000Y-9628500D01*
X16804000Y-9588500D02*
G75*
G02*
X16724000Y-9588500I-40000J0D01*
G01*
X16724000Y-9588500D02*
G75*
G02*
X16804000Y-9588500I40000J0D01*
G01*
X16724000Y-9802500D02*
X16804000Y-9882500D01*
X16804000Y-9802500D02*
X16724000Y-9882500D01*
X16804000Y-9842500D02*
G75*
G02*
X16724000Y-9842500I-40000J0D01*
G01*
X16724000Y-9842500D02*
G75*
G02*
X16804000Y-9842500I40000J0D01*
G01*
X16724000Y-10056500D02*
X16804000Y-10136500D01*
X16804000Y-10056500D02*
X16724000Y-10136500D01*
X16804000Y-10096500D02*
G75*
G02*
X16724000Y-10096500I-40000J0D01*
G01*
X16724000Y-10096500D02*
G75*
G02*
X16804000Y-10096500I40000J0D01*
G01*
X16724000Y-10310500D02*
X16804000Y-10390500D01*
X16804000Y-10310500D02*
X16724000Y-10390500D01*
X16804000Y-10350500D02*
G75*
G02*
X16724000Y-10350500I-40000J0D01*
G01*
X16724000Y-10350500D02*
G75*
G02*
X16804000Y-10350500I40000J0D01*
G01*
X16724000Y-10564500D02*
X16804000Y-10644500D01*
X16804000Y-10564500D02*
X16724000Y-10644500D01*
X16804000Y-10604500D02*
G75*
G02*
X16724000Y-10604500I-40000J0D01*
G01*
X16724000Y-10604500D02*
G75*
G02*
X16804000Y-10604500I40000J0D01*
G01*
X16724000Y-10818500D02*
X16804000Y-10898500D01*
X16804000Y-10818500D02*
X16724000Y-10898500D01*
X16804000Y-10858500D02*
G75*
G02*
X16724000Y-10858500I-40000J0D01*
G01*
X16724000Y-10858500D02*
G75*
G02*
X16804000Y-10858500I40000J0D01*
G01*
X16724000Y-11072500D02*
X16804000Y-11152500D01*
X16804000Y-11072500D02*
X16724000Y-11152500D01*
X16804000Y-11112500D02*
G75*
G02*
X16724000Y-11112500I-40000J0D01*
G01*
X16724000Y-11112500D02*
G75*
G02*
X16804000Y-11112500I40000J0D01*
G01*
X16724000Y-11326500D02*
X16804000Y-11406500D01*
X16804000Y-11326500D02*
X16724000Y-11406500D01*
X16804000Y-11366500D02*
G75*
G02*
X16724000Y-11366500I-40000J0D01*
G01*
X16724000Y-11366500D02*
G75*
G02*
X16804000Y-11366500I40000J0D01*
G01*
X16780023Y-4802500D02*
X16860023Y-4882500D01*
X16860023Y-4802500D02*
X16780023Y-4882500D01*
X16860023Y-4842500D02*
G75*
G02*
X16780023Y-4842500I-40000J0D01*
G01*
X16780023Y-4842500D02*
G75*
G02*
X16860023Y-4842500I40000J0D01*
G01*
X16780023Y-5056500D02*
X16860023Y-5136500D01*
X16860023Y-5056500D02*
X16780023Y-5136500D01*
X16860023Y-5096500D02*
G75*
G02*
X16780023Y-5096500I-40000J0D01*
G01*
X16780023Y-5096500D02*
G75*
G02*
X16860023Y-5096500I40000J0D01*
G01*
X16780023Y-5310500D02*
X16860023Y-5390500D01*
X16860023Y-5310500D02*
X16780023Y-5390500D01*
X16860023Y-5350500D02*
G75*
G02*
X16780023Y-5350500I-40000J0D01*
G01*
X16780023Y-5350500D02*
G75*
G02*
X16860023Y-5350500I40000J0D01*
G01*
X16780023Y-5564500D02*
X16860023Y-5644500D01*
X16860023Y-5564500D02*
X16780023Y-5644500D01*
X16860023Y-5604500D02*
G75*
G02*
X16780023Y-5604500I-40000J0D01*
G01*
X16780023Y-5604500D02*
G75*
G02*
X16860023Y-5604500I40000J0D01*
G01*
X16780023Y-5818500D02*
X16860023Y-5898500D01*
X16860023Y-5818500D02*
X16780023Y-5898500D01*
X16860023Y-5858500D02*
G75*
G02*
X16780023Y-5858500I-40000J0D01*
G01*
X16780023Y-5858500D02*
G75*
G02*
X16860023Y-5858500I40000J0D01*
G01*
X16780023Y-6072500D02*
X16860023Y-6152500D01*
X16860023Y-6072500D02*
X16780023Y-6152500D01*
X16860023Y-6112500D02*
G75*
G02*
X16780023Y-6112500I-40000J0D01*
G01*
X16780023Y-6112500D02*
G75*
G02*
X16860023Y-6112500I40000J0D01*
G01*
X16780023Y-6326500D02*
X16860023Y-6406500D01*
X16860023Y-6326500D02*
X16780023Y-6406500D01*
X16860023Y-6366500D02*
G75*
G02*
X16780023Y-6366500I-40000J0D01*
G01*
X16780023Y-6366500D02*
G75*
G02*
X16860023Y-6366500I40000J0D01*
G01*
X16780023Y-6580500D02*
X16860023Y-6660500D01*
X16860023Y-6580500D02*
X16780023Y-6660500D01*
X16860023Y-6620500D02*
G75*
G02*
X16780023Y-6620500I-40000J0D01*
G01*
X16780023Y-6620500D02*
G75*
G02*
X16860023Y-6620500I40000J0D01*
G01*
X17232000Y-4726500D02*
X17312000Y-4806500D01*
X17312000Y-4726500D02*
X17232000Y-4806500D01*
X17312000Y-4766500D02*
G75*
G02*
X17232000Y-4766500I-40000J0D01*
G01*
X17232000Y-4766500D02*
G75*
G02*
X17312000Y-4766500I40000J0D01*
G01*
X17232000Y-4976500D02*
X17312000Y-5056500D01*
X17312000Y-4976500D02*
X17232000Y-5056500D01*
X17312000Y-5016500D02*
G75*
G02*
X17232000Y-5016500I-40000J0D01*
G01*
X17232000Y-5016500D02*
G75*
G02*
X17312000Y-5016500I40000J0D01*
G01*
X17232000Y-7266500D02*
X17312000Y-7346500D01*
X17312000Y-7266500D02*
X17232000Y-7346500D01*
X17312000Y-7306500D02*
G75*
G02*
X17232000Y-7306500I-40000J0D01*
G01*
X17232000Y-7306500D02*
G75*
G02*
X17312000Y-7306500I40000J0D01*
G01*
X17232000Y-7516500D02*
X17312000Y-7596500D01*
X17312000Y-7516500D02*
X17232000Y-7596500D01*
X17312000Y-7556500D02*
G75*
G02*
X17232000Y-7556500I-40000J0D01*
G01*
X17232000Y-7556500D02*
G75*
G02*
X17312000Y-7556500I40000J0D01*
G01*
X17232000Y-9552500D02*
X17312000Y-9632500D01*
X17312000Y-9552500D02*
X17232000Y-9632500D01*
X17312000Y-9592500D02*
G75*
G02*
X17232000Y-9592500I-40000J0D01*
G01*
X17232000Y-9592500D02*
G75*
G02*
X17312000Y-9592500I40000J0D01*
G01*
X17232000Y-9802500D02*
X17312000Y-9882500D01*
X17312000Y-9802500D02*
X17232000Y-9882500D01*
X17312000Y-9842500D02*
G75*
G02*
X17232000Y-9842500I-40000J0D01*
G01*
X17232000Y-9842500D02*
G75*
G02*
X17312000Y-9842500I40000J0D01*
G01*
X12141000Y-11507000D02*
X12241000Y-11607000D01*
X12241000Y-11507000D02*
X12141000Y-11607000D01*
X12191000Y-11507000D02*
X12191000Y-11607000D01*
X12141000Y-11557000D02*
X12241000Y-11557000D01*
X12142000Y-10110000D02*
X12242000Y-10210000D01*
X12242000Y-10110000D02*
X12142000Y-10210000D01*
X12192000Y-10110000D02*
X12192000Y-10210000D01*
X12142000Y-10160000D02*
X12242000Y-10160000D01*
X12142000Y-10999000D02*
X12242000Y-11099000D01*
X12242000Y-10999000D02*
X12142000Y-11099000D01*
X12192000Y-10999000D02*
X12192000Y-11099000D01*
X12142000Y-11049000D02*
X12242000Y-11049000D01*
X12396000Y-10110000D02*
X12496000Y-10210000D01*
X12496000Y-10110000D02*
X12396000Y-10210000D01*
X12446000Y-10110000D02*
X12446000Y-10210000D01*
X12396000Y-10160000D02*
X12496000Y-10160000D01*
X12650000Y-10110000D02*
X12750000Y-10210000D01*
X12750000Y-10110000D02*
X12650000Y-10210000D01*
X12700000Y-10110000D02*
X12700000Y-10210000D01*
X12650000Y-10160000D02*
X12750000Y-10160000D01*
X13158000Y-8459000D02*
X13258000Y-8559000D01*
X13258000Y-8459000D02*
X13158000Y-8559000D01*
X13208000Y-8459000D02*
X13208000Y-8559000D01*
X13158000Y-8509000D02*
X13258000Y-8509000D01*
X13158000Y-9729000D02*
X13258000Y-9829000D01*
X13258000Y-9729000D02*
X13158000Y-9829000D01*
X13208000Y-9729000D02*
X13208000Y-9829000D01*
X13158000Y-9779000D02*
X13258000Y-9779000D01*
D13*
X12141000Y-12238000D02*
X12243000Y-12340000D01*
X12243000Y-12238000D02*
X12141000Y-12340000D01*
X12228063Y-12325063D02*
X12228063Y-12252937D01*
X12155937Y-12252937D01*
X12155937Y-12325063D01*
X12228063Y-12325063D01*
D12*
X12042000Y-12340000D02*
X12342000Y-12340000D01*
X12342000Y-12238000D02*
G75*
G02*
X12342000Y-12340000I0J-51000D01*
G01*
X12342000Y-12238000D02*
X12042000Y-12238000D01*
X12042000Y-12238000D02*
G75*
G03*
X12042000Y-12340000I0J-51000D01*
G01*
D13*
X12141000Y-12756000D02*
X12243000Y-12858000D01*
X12243000Y-12756000D02*
X12141000Y-12858000D01*
X12228063Y-12843063D02*
X12228063Y-12770937D01*
X12155937Y-12770937D01*
X12155937Y-12843063D01*
X12228063Y-12843063D01*
D12*
X12042000Y-12858000D02*
X12342000Y-12858000D01*
X12342000Y-12756000D02*
G75*
G02*
X12342000Y-12858000I0J-51000D01*
G01*
X12342000Y-12756000D02*
X12042000Y-12756000D01*
X12042000Y-12756000D02*
G75*
G03*
X12042000Y-12858000I0J-51000D01*
G01*
D14*
X18230500Y-7507000D02*
X18345500Y-7622000D01*
X18345500Y-7507000D02*
X18230500Y-7622000D01*
X18288000Y-7622000D02*
X18345500Y-7564500D01*
X18288000Y-7507000D01*
X18230500Y-7564500D01*
X18288000Y-7622000D01*
X18230500Y-8007000D02*
X18345500Y-8122000D01*
X18345500Y-8007000D02*
X18230500Y-8122000D01*
X18288000Y-8122000D02*
X18345500Y-8064500D01*
X18288000Y-8007000D01*
X18230500Y-8064500D01*
X18288000Y-8122000D01*
X18230500Y-8507000D02*
X18345500Y-8622000D01*
X18345500Y-8507000D02*
X18230500Y-8622000D01*
X18288000Y-8622000D02*
X18345500Y-8564500D01*
X18288000Y-8507000D01*
X18230500Y-8564500D01*
X18288000Y-8622000D01*
X18230500Y-9007000D02*
X18345500Y-9122000D01*
X18345500Y-9007000D02*
X18230500Y-9122000D01*
X18288000Y-9122000D02*
X18345500Y-9064500D01*
X18288000Y-9007000D01*
X18230500Y-9064500D01*
X18288000Y-9122000D01*
X18230500Y-9912000D02*
X18345500Y-10027000D01*
X18345500Y-9912000D02*
X18230500Y-10027000D01*
X18288000Y-10027000D02*
X18345500Y-9969500D01*
X18288000Y-9912000D01*
X18230500Y-9969500D01*
X18288000Y-10027000D01*
X18230500Y-10412000D02*
X18345500Y-10527000D01*
X18345500Y-10412000D02*
X18230500Y-10527000D01*
X18288000Y-10527000D02*
X18345500Y-10469500D01*
X18288000Y-10412000D01*
X18230500Y-10469500D01*
X18288000Y-10527000D01*
X18230500Y-10912000D02*
X18345500Y-11027000D01*
X18345500Y-10912000D02*
X18230500Y-11027000D01*
X18288000Y-11027000D02*
X18345500Y-10969500D01*
X18288000Y-10912000D01*
X18230500Y-10969500D01*
X18288000Y-11027000D01*
X18230500Y-11412000D02*
X18345500Y-11527000D01*
X18345500Y-11412000D02*
X18230500Y-11527000D01*
X18288000Y-11527000D02*
X18345500Y-11469500D01*
X18288000Y-11412000D01*
X18230500Y-11469500D01*
X18288000Y-11527000D01*
X18284500Y-4859000D02*
X18399500Y-4974000D01*
X18399500Y-4859000D02*
X18284500Y-4974000D01*
X18342000Y-4974000D02*
X18399500Y-4916500D01*
X18342000Y-4859000D01*
X18284500Y-4916500D01*
X18342000Y-4974000D01*
X18284500Y-5359000D02*
X18399500Y-5474000D01*
X18399500Y-5359000D02*
X18284500Y-5474000D01*
X18342000Y-5474000D02*
X18399500Y-5416500D01*
X18342000Y-5359000D01*
X18284500Y-5416500D01*
X18342000Y-5474000D01*
X18284500Y-5859000D02*
X18399500Y-5974000D01*
X18399500Y-5859000D02*
X18284500Y-5974000D01*
X18342000Y-5974000D02*
X18399500Y-5916500D01*
X18342000Y-5859000D01*
X18284500Y-5916500D01*
X18342000Y-5974000D01*
X18284500Y-6359000D02*
X18399500Y-6474000D01*
X18399500Y-6359000D02*
X18284500Y-6474000D01*
X18342000Y-6474000D02*
X18399500Y-6416500D01*
X18342000Y-6359000D01*
X18284500Y-6416500D01*
X18342000Y-6474000D01*
D15*
X17653000Y-12703500D02*
X17653000Y-12823500D01*
X17593000Y-12763500D02*
X17713000Y-12763500D01*
X17713000Y-12763500D02*
G75*
G02*
X17593000Y-12763500I-60000J0D01*
G01*
X17593000Y-12763500D02*
G75*
G02*
X17713000Y-12763500I60000J0D01*
G01*
X17653000Y-13203500D02*
X17653000Y-13323500D01*
X17593000Y-13263500D02*
X17713000Y-13263500D01*
X17713000Y-13263500D02*
G75*
G02*
X17593000Y-13263500I-60000J0D01*
G01*
X17593000Y-13263500D02*
G75*
G02*
X17713000Y-13263500I60000J0D01*
G01*
D11*
X10418277Y-14537984D02*
X10418277Y-14337984D01*
X10418277Y-14337984D02*
X10465896Y-14337984D01*
X10465896Y-14337984D02*
X10494467Y-14347508D01*
X10494467Y-14347508D02*
X10513515Y-14366555D01*
X10513515Y-14366555D02*
X10523039Y-14385603D01*
X10523039Y-14385603D02*
X10532563Y-14423698D01*
X10532563Y-14423698D02*
X10532563Y-14452269D01*
X10532563Y-14452269D02*
X10523039Y-14490365D01*
X10523039Y-14490365D02*
X10513515Y-14509412D01*
X10513515Y-14509412D02*
X10494467Y-14528460D01*
X10494467Y-14528460D02*
X10465896Y-14537984D01*
X10465896Y-14537984D02*
X10418277Y-14537984D01*
X10618277Y-14537984D02*
X10618277Y-14404650D01*
X10618277Y-14442746D02*
X10627801Y-14423698D01*
X10627801Y-14423698D02*
X10637324Y-14414174D01*
X10637324Y-14414174D02*
X10656372Y-14404650D01*
X10656372Y-14404650D02*
X10675420Y-14404650D01*
X10742086Y-14537984D02*
X10742086Y-14404650D01*
X10742086Y-14337984D02*
X10732563Y-14347508D01*
X10732563Y-14347508D02*
X10742086Y-14357031D01*
X10742086Y-14357031D02*
X10751610Y-14347508D01*
X10751610Y-14347508D02*
X10742086Y-14337984D01*
X10742086Y-14337984D02*
X10742086Y-14357031D01*
X10865896Y-14537984D02*
X10846848Y-14528460D01*
X10846848Y-14528460D02*
X10837324Y-14509412D01*
X10837324Y-14509412D02*
X10837324Y-14337984D01*
X10970658Y-14537984D02*
X10951610Y-14528460D01*
X10951610Y-14528460D02*
X10942086Y-14509412D01*
X10942086Y-14509412D02*
X10942086Y-14337984D01*
X11199229Y-14537984D02*
X11199229Y-14337984D01*
X11199229Y-14337984D02*
X11265896Y-14480841D01*
X11265896Y-14480841D02*
X11332562Y-14337984D01*
X11332562Y-14337984D02*
X11332562Y-14537984D01*
X11513515Y-14537984D02*
X11513515Y-14433222D01*
X11513515Y-14433222D02*
X11503991Y-14414174D01*
X11503991Y-14414174D02*
X11484943Y-14404650D01*
X11484943Y-14404650D02*
X11446848Y-14404650D01*
X11446848Y-14404650D02*
X11427801Y-14414174D01*
X11513515Y-14528460D02*
X11494467Y-14537984D01*
X11494467Y-14537984D02*
X11446848Y-14537984D01*
X11446848Y-14537984D02*
X11427801Y-14528460D01*
X11427801Y-14528460D02*
X11418277Y-14509412D01*
X11418277Y-14509412D02*
X11418277Y-14490365D01*
X11418277Y-14490365D02*
X11427801Y-14471317D01*
X11427801Y-14471317D02*
X11446848Y-14461793D01*
X11446848Y-14461793D02*
X11494467Y-14461793D01*
X11494467Y-14461793D02*
X11513515Y-14452269D01*
X11608753Y-14404650D02*
X11608753Y-14604650D01*
X11608753Y-14414174D02*
X11627801Y-14404650D01*
X11627801Y-14404650D02*
X11665896Y-14404650D01*
X11665896Y-14404650D02*
X11684943Y-14414174D01*
X11684943Y-14414174D02*
X11694467Y-14423698D01*
X11694467Y-14423698D02*
X11703991Y-14442746D01*
X11703991Y-14442746D02*
X11703991Y-14499888D01*
X11703991Y-14499888D02*
X11694467Y-14518936D01*
X11694467Y-14518936D02*
X11684943Y-14528460D01*
X11684943Y-14528460D02*
X11665896Y-14537984D01*
X11665896Y-14537984D02*
X11627801Y-14537984D01*
X11627801Y-14537984D02*
X11608753Y-14528460D01*
X11789705Y-14518936D02*
X11799229Y-14528460D01*
X11799229Y-14528460D02*
X11789705Y-14537984D01*
X11789705Y-14537984D02*
X11780182Y-14528460D01*
X11780182Y-14528460D02*
X11789705Y-14518936D01*
X11789705Y-14518936D02*
X11789705Y-14537984D01*
X11789705Y-14414174D02*
X11799229Y-14423698D01*
X11799229Y-14423698D02*
X11789705Y-14433222D01*
X11789705Y-14433222D02*
X11780182Y-14423698D01*
X11780182Y-14423698D02*
X11789705Y-14414174D01*
X11789705Y-14414174D02*
X11789705Y-14433222D01*
D12*
X10137500Y-14856500D02*
X10157500Y-14876500D01*
X10157500Y-14856500D02*
X10137500Y-14876500D01*
D11*
X10456372Y-14757984D02*
X10475420Y-14757984D01*
X10475420Y-14757984D02*
X10494467Y-14767508D01*
X10494467Y-14767508D02*
X10503991Y-14777031D01*
X10503991Y-14777031D02*
X10513515Y-14796079D01*
X10513515Y-14796079D02*
X10523039Y-14834174D01*
X10523039Y-14834174D02*
X10523039Y-14881793D01*
X10523039Y-14881793D02*
X10513515Y-14919888D01*
X10513515Y-14919888D02*
X10503991Y-14938936D01*
X10503991Y-14938936D02*
X10494467Y-14948460D01*
X10494467Y-14948460D02*
X10475420Y-14957984D01*
X10475420Y-14957984D02*
X10456372Y-14957984D01*
X10456372Y-14957984D02*
X10437324Y-14948460D01*
X10437324Y-14948460D02*
X10427801Y-14938936D01*
X10427801Y-14938936D02*
X10418277Y-14919888D01*
X10418277Y-14919888D02*
X10408753Y-14881793D01*
X10408753Y-14881793D02*
X10408753Y-14834174D01*
X10408753Y-14834174D02*
X10418277Y-14796079D01*
X10418277Y-14796079D02*
X10427801Y-14777031D01*
X10427801Y-14777031D02*
X10437324Y-14767508D01*
X10437324Y-14767508D02*
X10456372Y-14757984D01*
X10608753Y-14938936D02*
X10618277Y-14948460D01*
X10618277Y-14948460D02*
X10608753Y-14957984D01*
X10608753Y-14957984D02*
X10599229Y-14948460D01*
X10599229Y-14948460D02*
X10608753Y-14938936D01*
X10608753Y-14938936D02*
X10608753Y-14957984D01*
X10694467Y-14777031D02*
X10703991Y-14767508D01*
X10703991Y-14767508D02*
X10723039Y-14757984D01*
X10723039Y-14757984D02*
X10770658Y-14757984D01*
X10770658Y-14757984D02*
X10789705Y-14767508D01*
X10789705Y-14767508D02*
X10799229Y-14777031D01*
X10799229Y-14777031D02*
X10808753Y-14796079D01*
X10808753Y-14796079D02*
X10808753Y-14815127D01*
X10808753Y-14815127D02*
X10799229Y-14843698D01*
X10799229Y-14843698D02*
X10684944Y-14957984D01*
X10684944Y-14957984D02*
X10808753Y-14957984D01*
X10932563Y-14757984D02*
X10951610Y-14757984D01*
X10951610Y-14757984D02*
X10970658Y-14767508D01*
X10970658Y-14767508D02*
X10980182Y-14777031D01*
X10980182Y-14777031D02*
X10989705Y-14796079D01*
X10989705Y-14796079D02*
X10999229Y-14834174D01*
X10999229Y-14834174D02*
X10999229Y-14881793D01*
X10999229Y-14881793D02*
X10989705Y-14919888D01*
X10989705Y-14919888D02*
X10980182Y-14938936D01*
X10980182Y-14938936D02*
X10970658Y-14948460D01*
X10970658Y-14948460D02*
X10951610Y-14957984D01*
X10951610Y-14957984D02*
X10932563Y-14957984D01*
X10932563Y-14957984D02*
X10913515Y-14948460D01*
X10913515Y-14948460D02*
X10903991Y-14938936D01*
X10903991Y-14938936D02*
X10894467Y-14919888D01*
X10894467Y-14919888D02*
X10884944Y-14881793D01*
X10884944Y-14881793D02*
X10884944Y-14834174D01*
X10884944Y-14834174D02*
X10894467Y-14796079D01*
X10894467Y-14796079D02*
X10903991Y-14777031D01*
X10903991Y-14777031D02*
X10913515Y-14767508D01*
X10913515Y-14767508D02*
X10932563Y-14757984D01*
X11123039Y-14757984D02*
X11142086Y-14757984D01*
X11142086Y-14757984D02*
X11161134Y-14767508D01*
X11161134Y-14767508D02*
X11170658Y-14777031D01*
X11170658Y-14777031D02*
X11180182Y-14796079D01*
X11180182Y-14796079D02*
X11189705Y-14834174D01*
X11189705Y-14834174D02*
X11189705Y-14881793D01*
X11189705Y-14881793D02*
X11180182Y-14919888D01*
X11180182Y-14919888D02*
X11170658Y-14938936D01*
X11170658Y-14938936D02*
X11161134Y-14948460D01*
X11161134Y-14948460D02*
X11142086Y-14957984D01*
X11142086Y-14957984D02*
X11123039Y-14957984D01*
X11123039Y-14957984D02*
X11103991Y-14948460D01*
X11103991Y-14948460D02*
X11094467Y-14938936D01*
X11094467Y-14938936D02*
X11084944Y-14919888D01*
X11084944Y-14919888D02*
X11075420Y-14881793D01*
X11075420Y-14881793D02*
X11075420Y-14834174D01*
X11075420Y-14834174D02*
X11084944Y-14796079D01*
X11084944Y-14796079D02*
X11094467Y-14777031D01*
X11094467Y-14777031D02*
X11103991Y-14767508D01*
X11103991Y-14767508D02*
X11123039Y-14757984D01*
X11275420Y-14957984D02*
X11275420Y-14824650D01*
X11275420Y-14843698D02*
X11284943Y-14834174D01*
X11284943Y-14834174D02*
X11303991Y-14824650D01*
X11303991Y-14824650D02*
X11332563Y-14824650D01*
X11332563Y-14824650D02*
X11351610Y-14834174D01*
X11351610Y-14834174D02*
X11361134Y-14853222D01*
X11361134Y-14853222D02*
X11361134Y-14957984D01*
X11361134Y-14853222D02*
X11370658Y-14834174D01*
X11370658Y-14834174D02*
X11389705Y-14824650D01*
X11389705Y-14824650D02*
X11418277Y-14824650D01*
X11418277Y-14824650D02*
X11437324Y-14834174D01*
X11437324Y-14834174D02*
X11446848Y-14853222D01*
X11446848Y-14853222D02*
X11446848Y-14957984D01*
X11542086Y-14957984D02*
X11542086Y-14824650D01*
X11542086Y-14843698D02*
X11551610Y-14834174D01*
X11551610Y-14834174D02*
X11570658Y-14824650D01*
X11570658Y-14824650D02*
X11599229Y-14824650D01*
X11599229Y-14824650D02*
X11618277Y-14834174D01*
X11618277Y-14834174D02*
X11627801Y-14853222D01*
X11627801Y-14853222D02*
X11627801Y-14957984D01*
X11627801Y-14853222D02*
X11637324Y-14834174D01*
X11637324Y-14834174D02*
X11656372Y-14824650D01*
X11656372Y-14824650D02*
X11684943Y-14824650D01*
X11684943Y-14824650D02*
X11703991Y-14834174D01*
X11703991Y-14834174D02*
X11713515Y-14853222D01*
X11713515Y-14853222D02*
X11713515Y-14957984D01*
X12103991Y-14748460D02*
X11932563Y-15005603D01*
X12361134Y-14757984D02*
X12380182Y-14757984D01*
X12380182Y-14757984D02*
X12399229Y-14767508D01*
X12399229Y-14767508D02*
X12408753Y-14777031D01*
X12408753Y-14777031D02*
X12418277Y-14796079D01*
X12418277Y-14796079D02*
X12427801Y-14834174D01*
X12427801Y-14834174D02*
X12427801Y-14881793D01*
X12427801Y-14881793D02*
X12418277Y-14919888D01*
X12418277Y-14919888D02*
X12408753Y-14938936D01*
X12408753Y-14938936D02*
X12399229Y-14948460D01*
X12399229Y-14948460D02*
X12380182Y-14957984D01*
X12380182Y-14957984D02*
X12361134Y-14957984D01*
X12361134Y-14957984D02*
X12342086Y-14948460D01*
X12342086Y-14948460D02*
X12332563Y-14938936D01*
X12332563Y-14938936D02*
X12323039Y-14919888D01*
X12323039Y-14919888D02*
X12313515Y-14881793D01*
X12313515Y-14881793D02*
X12313515Y-14834174D01*
X12313515Y-14834174D02*
X12323039Y-14796079D01*
X12323039Y-14796079D02*
X12332563Y-14777031D01*
X12332563Y-14777031D02*
X12342086Y-14767508D01*
X12342086Y-14767508D02*
X12361134Y-14757984D01*
X12513515Y-14938936D02*
X12523039Y-14948460D01*
X12523039Y-14948460D02*
X12513515Y-14957984D01*
X12513515Y-14957984D02*
X12503991Y-14948460D01*
X12503991Y-14948460D02*
X12513515Y-14938936D01*
X12513515Y-14938936D02*
X12513515Y-14957984D01*
X12646848Y-14757984D02*
X12665896Y-14757984D01*
X12665896Y-14757984D02*
X12684944Y-14767508D01*
X12684944Y-14767508D02*
X12694467Y-14777031D01*
X12694467Y-14777031D02*
X12703991Y-14796079D01*
X12703991Y-14796079D02*
X12713515Y-14834174D01*
X12713515Y-14834174D02*
X12713515Y-14881793D01*
X12713515Y-14881793D02*
X12703991Y-14919888D01*
X12703991Y-14919888D02*
X12694467Y-14938936D01*
X12694467Y-14938936D02*
X12684944Y-14948460D01*
X12684944Y-14948460D02*
X12665896Y-14957984D01*
X12665896Y-14957984D02*
X12646848Y-14957984D01*
X12646848Y-14957984D02*
X12627801Y-14948460D01*
X12627801Y-14948460D02*
X12618277Y-14938936D01*
X12618277Y-14938936D02*
X12608753Y-14919888D01*
X12608753Y-14919888D02*
X12599229Y-14881793D01*
X12599229Y-14881793D02*
X12599229Y-14834174D01*
X12599229Y-14834174D02*
X12608753Y-14796079D01*
X12608753Y-14796079D02*
X12618277Y-14777031D01*
X12618277Y-14777031D02*
X12627801Y-14767508D01*
X12627801Y-14767508D02*
X12646848Y-14757984D01*
X12837325Y-14757984D02*
X12856372Y-14757984D01*
X12856372Y-14757984D02*
X12875420Y-14767508D01*
X12875420Y-14767508D02*
X12884944Y-14777031D01*
X12884944Y-14777031D02*
X12894467Y-14796079D01*
X12894467Y-14796079D02*
X12903991Y-14834174D01*
X12903991Y-14834174D02*
X12903991Y-14881793D01*
X12903991Y-14881793D02*
X12894467Y-14919888D01*
X12894467Y-14919888D02*
X12884944Y-14938936D01*
X12884944Y-14938936D02*
X12875420Y-14948460D01*
X12875420Y-14948460D02*
X12856372Y-14957984D01*
X12856372Y-14957984D02*
X12837325Y-14957984D01*
X12837325Y-14957984D02*
X12818277Y-14948460D01*
X12818277Y-14948460D02*
X12808753Y-14938936D01*
X12808753Y-14938936D02*
X12799229Y-14919888D01*
X12799229Y-14919888D02*
X12789706Y-14881793D01*
X12789706Y-14881793D02*
X12789706Y-14834174D01*
X12789706Y-14834174D02*
X12799229Y-14796079D01*
X12799229Y-14796079D02*
X12808753Y-14777031D01*
X12808753Y-14777031D02*
X12818277Y-14767508D01*
X12818277Y-14767508D02*
X12837325Y-14757984D01*
X12970658Y-14757984D02*
X13103991Y-14757984D01*
X13103991Y-14757984D02*
X13018277Y-14957984D01*
X13189706Y-14957984D02*
X13227801Y-14957984D01*
X13227801Y-14957984D02*
X13246848Y-14948460D01*
X13246848Y-14948460D02*
X13256372Y-14938936D01*
X13256372Y-14938936D02*
X13275420Y-14910365D01*
X13275420Y-14910365D02*
X13284944Y-14872269D01*
X13284944Y-14872269D02*
X13284944Y-14796079D01*
X13284944Y-14796079D02*
X13275420Y-14777031D01*
X13275420Y-14777031D02*
X13265896Y-14767508D01*
X13265896Y-14767508D02*
X13246848Y-14757984D01*
X13246848Y-14757984D02*
X13208753Y-14757984D01*
X13208753Y-14757984D02*
X13189706Y-14767508D01*
X13189706Y-14767508D02*
X13180182Y-14777031D01*
X13180182Y-14777031D02*
X13170658Y-14796079D01*
X13170658Y-14796079D02*
X13170658Y-14843698D01*
X13170658Y-14843698D02*
X13180182Y-14862746D01*
X13180182Y-14862746D02*
X13189706Y-14872269D01*
X13189706Y-14872269D02*
X13208753Y-14881793D01*
X13208753Y-14881793D02*
X13246848Y-14881793D01*
X13246848Y-14881793D02*
X13265896Y-14872269D01*
X13265896Y-14872269D02*
X13275420Y-14862746D01*
X13275420Y-14862746D02*
X13284944Y-14843698D01*
X13361134Y-14757984D02*
X13361134Y-14796079D01*
X13437325Y-14757984D02*
X13437325Y-14796079D01*
X13732563Y-15034174D02*
X13723039Y-15024650D01*
X13723039Y-15024650D02*
X13703991Y-14996079D01*
X13703991Y-14996079D02*
X13694468Y-14977031D01*
X13694468Y-14977031D02*
X13684944Y-14948460D01*
X13684944Y-14948460D02*
X13675420Y-14900841D01*
X13675420Y-14900841D02*
X13675420Y-14862746D01*
X13675420Y-14862746D02*
X13684944Y-14815127D01*
X13684944Y-14815127D02*
X13694468Y-14786555D01*
X13694468Y-14786555D02*
X13703991Y-14767508D01*
X13703991Y-14767508D02*
X13723039Y-14738936D01*
X13723039Y-14738936D02*
X13732563Y-14729412D01*
X13913515Y-14957984D02*
X13799229Y-14957984D01*
X13856372Y-14957984D02*
X13856372Y-14757984D01*
X13856372Y-14757984D02*
X13837325Y-14786555D01*
X13837325Y-14786555D02*
X13818277Y-14805603D01*
X13818277Y-14805603D02*
X13799229Y-14815127D01*
X13989706Y-14777031D02*
X13999229Y-14767508D01*
X13999229Y-14767508D02*
X14018277Y-14757984D01*
X14018277Y-14757984D02*
X14065896Y-14757984D01*
X14065896Y-14757984D02*
X14084944Y-14767508D01*
X14084944Y-14767508D02*
X14094468Y-14777031D01*
X14094468Y-14777031D02*
X14103991Y-14796079D01*
X14103991Y-14796079D02*
X14103991Y-14815127D01*
X14103991Y-14815127D02*
X14094468Y-14843698D01*
X14094468Y-14843698D02*
X13980182Y-14957984D01*
X13980182Y-14957984D02*
X14103991Y-14957984D01*
X14342087Y-14957984D02*
X14342087Y-14757984D01*
X14427801Y-14957984D02*
X14427801Y-14853222D01*
X14427801Y-14853222D02*
X14418277Y-14834174D01*
X14418277Y-14834174D02*
X14399230Y-14824650D01*
X14399230Y-14824650D02*
X14370658Y-14824650D01*
X14370658Y-14824650D02*
X14351610Y-14834174D01*
X14351610Y-14834174D02*
X14342087Y-14843698D01*
X14551610Y-14957984D02*
X14532563Y-14948460D01*
X14532563Y-14948460D02*
X14523039Y-14938936D01*
X14523039Y-14938936D02*
X14513515Y-14919888D01*
X14513515Y-14919888D02*
X14513515Y-14862746D01*
X14513515Y-14862746D02*
X14523039Y-14843698D01*
X14523039Y-14843698D02*
X14532563Y-14834174D01*
X14532563Y-14834174D02*
X14551610Y-14824650D01*
X14551610Y-14824650D02*
X14580182Y-14824650D01*
X14580182Y-14824650D02*
X14599230Y-14834174D01*
X14599230Y-14834174D02*
X14608753Y-14843698D01*
X14608753Y-14843698D02*
X14618277Y-14862746D01*
X14618277Y-14862746D02*
X14618277Y-14919888D01*
X14618277Y-14919888D02*
X14608753Y-14938936D01*
X14608753Y-14938936D02*
X14599230Y-14948460D01*
X14599230Y-14948460D02*
X14580182Y-14957984D01*
X14580182Y-14957984D02*
X14551610Y-14957984D01*
X14732563Y-14957984D02*
X14713515Y-14948460D01*
X14713515Y-14948460D02*
X14703991Y-14929412D01*
X14703991Y-14929412D02*
X14703991Y-14757984D01*
X14884944Y-14948460D02*
X14865896Y-14957984D01*
X14865896Y-14957984D02*
X14827801Y-14957984D01*
X14827801Y-14957984D02*
X14808753Y-14948460D01*
X14808753Y-14948460D02*
X14799230Y-14929412D01*
X14799230Y-14929412D02*
X14799230Y-14853222D01*
X14799230Y-14853222D02*
X14808753Y-14834174D01*
X14808753Y-14834174D02*
X14827801Y-14824650D01*
X14827801Y-14824650D02*
X14865896Y-14824650D01*
X14865896Y-14824650D02*
X14884944Y-14834174D01*
X14884944Y-14834174D02*
X14894468Y-14853222D01*
X14894468Y-14853222D02*
X14894468Y-14872269D01*
X14894468Y-14872269D02*
X14799230Y-14891317D01*
X14970658Y-14948460D02*
X14989706Y-14957984D01*
X14989706Y-14957984D02*
X15027801Y-14957984D01*
X15027801Y-14957984D02*
X15046849Y-14948460D01*
X15046849Y-14948460D02*
X15056372Y-14929412D01*
X15056372Y-14929412D02*
X15056372Y-14919888D01*
X15056372Y-14919888D02*
X15046849Y-14900841D01*
X15046849Y-14900841D02*
X15027801Y-14891317D01*
X15027801Y-14891317D02*
X14999230Y-14891317D01*
X14999230Y-14891317D02*
X14980182Y-14881793D01*
X14980182Y-14881793D02*
X14970658Y-14862746D01*
X14970658Y-14862746D02*
X14970658Y-14853222D01*
X14970658Y-14853222D02*
X14980182Y-14834174D01*
X14980182Y-14834174D02*
X14999230Y-14824650D01*
X14999230Y-14824650D02*
X15027801Y-14824650D01*
X15027801Y-14824650D02*
X15046849Y-14834174D01*
X15123039Y-15034174D02*
X15132563Y-15024650D01*
X15132563Y-15024650D02*
X15151611Y-14996079D01*
X15151611Y-14996079D02*
X15161134Y-14977031D01*
X15161134Y-14977031D02*
X15170658Y-14948460D01*
X15170658Y-14948460D02*
X15180182Y-14900841D01*
X15180182Y-14900841D02*
X15180182Y-14862746D01*
X15180182Y-14862746D02*
X15170658Y-14815127D01*
X15170658Y-14815127D02*
X15161134Y-14786555D01*
X15161134Y-14786555D02*
X15151611Y-14767508D01*
X15151611Y-14767508D02*
X15132563Y-14738936D01*
X15132563Y-14738936D02*
X15123039Y-14729412D01*
D12*
X10157500Y-15130500D02*
G75*
G02*
X10127500Y-15130500I-15000J0D01*
G01*
X10127500Y-15130500D02*
G75*
G02*
X10157500Y-15130500I15000J0D01*
G01*
D11*
X10456372Y-15021984D02*
X10475420Y-15021984D01*
X10475420Y-15021984D02*
X10494467Y-15031508D01*
X10494467Y-15031508D02*
X10503991Y-15041031D01*
X10503991Y-15041031D02*
X10513515Y-15060079D01*
X10513515Y-15060079D02*
X10523039Y-15098174D01*
X10523039Y-15098174D02*
X10523039Y-15145793D01*
X10523039Y-15145793D02*
X10513515Y-15183888D01*
X10513515Y-15183888D02*
X10503991Y-15202936D01*
X10503991Y-15202936D02*
X10494467Y-15212460D01*
X10494467Y-15212460D02*
X10475420Y-15221984D01*
X10475420Y-15221984D02*
X10456372Y-15221984D01*
X10456372Y-15221984D02*
X10437324Y-15212460D01*
X10437324Y-15212460D02*
X10427801Y-15202936D01*
X10427801Y-15202936D02*
X10418277Y-15183888D01*
X10418277Y-15183888D02*
X10408753Y-15145793D01*
X10408753Y-15145793D02*
X10408753Y-15098174D01*
X10408753Y-15098174D02*
X10418277Y-15060079D01*
X10418277Y-15060079D02*
X10427801Y-15041031D01*
X10427801Y-15041031D02*
X10437324Y-15031508D01*
X10437324Y-15031508D02*
X10456372Y-15021984D01*
X10608753Y-15202936D02*
X10618277Y-15212460D01*
X10618277Y-15212460D02*
X10608753Y-15221984D01*
X10608753Y-15221984D02*
X10599229Y-15212460D01*
X10599229Y-15212460D02*
X10608753Y-15202936D01*
X10608753Y-15202936D02*
X10608753Y-15221984D01*
X10684944Y-15021984D02*
X10808753Y-15021984D01*
X10808753Y-15021984D02*
X10742086Y-15098174D01*
X10742086Y-15098174D02*
X10770658Y-15098174D01*
X10770658Y-15098174D02*
X10789705Y-15107698D01*
X10789705Y-15107698D02*
X10799229Y-15117222D01*
X10799229Y-15117222D02*
X10808753Y-15136269D01*
X10808753Y-15136269D02*
X10808753Y-15183888D01*
X10808753Y-15183888D02*
X10799229Y-15202936D01*
X10799229Y-15202936D02*
X10789705Y-15212460D01*
X10789705Y-15212460D02*
X10770658Y-15221984D01*
X10770658Y-15221984D02*
X10713515Y-15221984D01*
X10713515Y-15221984D02*
X10694467Y-15212460D01*
X10694467Y-15212460D02*
X10684944Y-15202936D01*
X10932563Y-15021984D02*
X10951610Y-15021984D01*
X10951610Y-15021984D02*
X10970658Y-15031508D01*
X10970658Y-15031508D02*
X10980182Y-15041031D01*
X10980182Y-15041031D02*
X10989705Y-15060079D01*
X10989705Y-15060079D02*
X10999229Y-15098174D01*
X10999229Y-15098174D02*
X10999229Y-15145793D01*
X10999229Y-15145793D02*
X10989705Y-15183888D01*
X10989705Y-15183888D02*
X10980182Y-15202936D01*
X10980182Y-15202936D02*
X10970658Y-15212460D01*
X10970658Y-15212460D02*
X10951610Y-15221984D01*
X10951610Y-15221984D02*
X10932563Y-15221984D01*
X10932563Y-15221984D02*
X10913515Y-15212460D01*
X10913515Y-15212460D02*
X10903991Y-15202936D01*
X10903991Y-15202936D02*
X10894467Y-15183888D01*
X10894467Y-15183888D02*
X10884944Y-15145793D01*
X10884944Y-15145793D02*
X10884944Y-15098174D01*
X10884944Y-15098174D02*
X10894467Y-15060079D01*
X10894467Y-15060079D02*
X10903991Y-15041031D01*
X10903991Y-15041031D02*
X10913515Y-15031508D01*
X10913515Y-15031508D02*
X10932563Y-15021984D01*
X11123039Y-15021984D02*
X11142086Y-15021984D01*
X11142086Y-15021984D02*
X11161134Y-15031508D01*
X11161134Y-15031508D02*
X11170658Y-15041031D01*
X11170658Y-15041031D02*
X11180182Y-15060079D01*
X11180182Y-15060079D02*
X11189705Y-15098174D01*
X11189705Y-15098174D02*
X11189705Y-15145793D01*
X11189705Y-15145793D02*
X11180182Y-15183888D01*
X11180182Y-15183888D02*
X11170658Y-15202936D01*
X11170658Y-15202936D02*
X11161134Y-15212460D01*
X11161134Y-15212460D02*
X11142086Y-15221984D01*
X11142086Y-15221984D02*
X11123039Y-15221984D01*
X11123039Y-15221984D02*
X11103991Y-15212460D01*
X11103991Y-15212460D02*
X11094467Y-15202936D01*
X11094467Y-15202936D02*
X11084944Y-15183888D01*
X11084944Y-15183888D02*
X11075420Y-15145793D01*
X11075420Y-15145793D02*
X11075420Y-15098174D01*
X11075420Y-15098174D02*
X11084944Y-15060079D01*
X11084944Y-15060079D02*
X11094467Y-15041031D01*
X11094467Y-15041031D02*
X11103991Y-15031508D01*
X11103991Y-15031508D02*
X11123039Y-15021984D01*
X11275420Y-15221984D02*
X11275420Y-15088650D01*
X11275420Y-15107698D02*
X11284943Y-15098174D01*
X11284943Y-15098174D02*
X11303991Y-15088650D01*
X11303991Y-15088650D02*
X11332563Y-15088650D01*
X11332563Y-15088650D02*
X11351610Y-15098174D01*
X11351610Y-15098174D02*
X11361134Y-15117222D01*
X11361134Y-15117222D02*
X11361134Y-15221984D01*
X11361134Y-15117222D02*
X11370658Y-15098174D01*
X11370658Y-15098174D02*
X11389705Y-15088650D01*
X11389705Y-15088650D02*
X11418277Y-15088650D01*
X11418277Y-15088650D02*
X11437324Y-15098174D01*
X11437324Y-15098174D02*
X11446848Y-15117222D01*
X11446848Y-15117222D02*
X11446848Y-15221984D01*
X11542086Y-15221984D02*
X11542086Y-15088650D01*
X11542086Y-15107698D02*
X11551610Y-15098174D01*
X11551610Y-15098174D02*
X11570658Y-15088650D01*
X11570658Y-15088650D02*
X11599229Y-15088650D01*
X11599229Y-15088650D02*
X11618277Y-15098174D01*
X11618277Y-15098174D02*
X11627801Y-15117222D01*
X11627801Y-15117222D02*
X11627801Y-15221984D01*
X11627801Y-15117222D02*
X11637324Y-15098174D01*
X11637324Y-15098174D02*
X11656372Y-15088650D01*
X11656372Y-15088650D02*
X11684943Y-15088650D01*
X11684943Y-15088650D02*
X11703991Y-15098174D01*
X11703991Y-15098174D02*
X11713515Y-15117222D01*
X11713515Y-15117222D02*
X11713515Y-15221984D01*
X12103991Y-15012460D02*
X11932563Y-15269603D01*
X12361134Y-15021984D02*
X12380182Y-15021984D01*
X12380182Y-15021984D02*
X12399229Y-15031508D01*
X12399229Y-15031508D02*
X12408753Y-15041031D01*
X12408753Y-15041031D02*
X12418277Y-15060079D01*
X12418277Y-15060079D02*
X12427801Y-15098174D01*
X12427801Y-15098174D02*
X12427801Y-15145793D01*
X12427801Y-15145793D02*
X12418277Y-15183888D01*
X12418277Y-15183888D02*
X12408753Y-15202936D01*
X12408753Y-15202936D02*
X12399229Y-15212460D01*
X12399229Y-15212460D02*
X12380182Y-15221984D01*
X12380182Y-15221984D02*
X12361134Y-15221984D01*
X12361134Y-15221984D02*
X12342086Y-15212460D01*
X12342086Y-15212460D02*
X12332563Y-15202936D01*
X12332563Y-15202936D02*
X12323039Y-15183888D01*
X12323039Y-15183888D02*
X12313515Y-15145793D01*
X12313515Y-15145793D02*
X12313515Y-15098174D01*
X12313515Y-15098174D02*
X12323039Y-15060079D01*
X12323039Y-15060079D02*
X12332563Y-15041031D01*
X12332563Y-15041031D02*
X12342086Y-15031508D01*
X12342086Y-15031508D02*
X12361134Y-15021984D01*
X12513515Y-15202936D02*
X12523039Y-15212460D01*
X12523039Y-15212460D02*
X12513515Y-15221984D01*
X12513515Y-15221984D02*
X12503991Y-15212460D01*
X12503991Y-15212460D02*
X12513515Y-15202936D01*
X12513515Y-15202936D02*
X12513515Y-15221984D01*
X12646848Y-15021984D02*
X12665896Y-15021984D01*
X12665896Y-15021984D02*
X12684944Y-15031508D01*
X12684944Y-15031508D02*
X12694467Y-15041031D01*
X12694467Y-15041031D02*
X12703991Y-15060079D01*
X12703991Y-15060079D02*
X12713515Y-15098174D01*
X12713515Y-15098174D02*
X12713515Y-15145793D01*
X12713515Y-15145793D02*
X12703991Y-15183888D01*
X12703991Y-15183888D02*
X12694467Y-15202936D01*
X12694467Y-15202936D02*
X12684944Y-15212460D01*
X12684944Y-15212460D02*
X12665896Y-15221984D01*
X12665896Y-15221984D02*
X12646848Y-15221984D01*
X12646848Y-15221984D02*
X12627801Y-15212460D01*
X12627801Y-15212460D02*
X12618277Y-15202936D01*
X12618277Y-15202936D02*
X12608753Y-15183888D01*
X12608753Y-15183888D02*
X12599229Y-15145793D01*
X12599229Y-15145793D02*
X12599229Y-15098174D01*
X12599229Y-15098174D02*
X12608753Y-15060079D01*
X12608753Y-15060079D02*
X12618277Y-15041031D01*
X12618277Y-15041031D02*
X12627801Y-15031508D01*
X12627801Y-15031508D02*
X12646848Y-15021984D01*
X12903991Y-15221984D02*
X12789706Y-15221984D01*
X12846848Y-15221984D02*
X12846848Y-15021984D01*
X12846848Y-15021984D02*
X12827801Y-15050555D01*
X12827801Y-15050555D02*
X12808753Y-15069603D01*
X12808753Y-15069603D02*
X12789706Y-15079127D01*
X13094467Y-15221984D02*
X12980182Y-15221984D01*
X13037325Y-15221984D02*
X13037325Y-15021984D01*
X13037325Y-15021984D02*
X13018277Y-15050555D01*
X13018277Y-15050555D02*
X12999229Y-15069603D01*
X12999229Y-15069603D02*
X12980182Y-15079127D01*
X13208753Y-15107698D02*
X13189706Y-15098174D01*
X13189706Y-15098174D02*
X13180182Y-15088650D01*
X13180182Y-15088650D02*
X13170658Y-15069603D01*
X13170658Y-15069603D02*
X13170658Y-15060079D01*
X13170658Y-15060079D02*
X13180182Y-15041031D01*
X13180182Y-15041031D02*
X13189706Y-15031508D01*
X13189706Y-15031508D02*
X13208753Y-15021984D01*
X13208753Y-15021984D02*
X13246848Y-15021984D01*
X13246848Y-15021984D02*
X13265896Y-15031508D01*
X13265896Y-15031508D02*
X13275420Y-15041031D01*
X13275420Y-15041031D02*
X13284944Y-15060079D01*
X13284944Y-15060079D02*
X13284944Y-15069603D01*
X13284944Y-15069603D02*
X13275420Y-15088650D01*
X13275420Y-15088650D02*
X13265896Y-15098174D01*
X13265896Y-15098174D02*
X13246848Y-15107698D01*
X13246848Y-15107698D02*
X13208753Y-15107698D01*
X13208753Y-15107698D02*
X13189706Y-15117222D01*
X13189706Y-15117222D02*
X13180182Y-15126746D01*
X13180182Y-15126746D02*
X13170658Y-15145793D01*
X13170658Y-15145793D02*
X13170658Y-15183888D01*
X13170658Y-15183888D02*
X13180182Y-15202936D01*
X13180182Y-15202936D02*
X13189706Y-15212460D01*
X13189706Y-15212460D02*
X13208753Y-15221984D01*
X13208753Y-15221984D02*
X13246848Y-15221984D01*
X13246848Y-15221984D02*
X13265896Y-15212460D01*
X13265896Y-15212460D02*
X13275420Y-15202936D01*
X13275420Y-15202936D02*
X13284944Y-15183888D01*
X13284944Y-15183888D02*
X13284944Y-15145793D01*
X13284944Y-15145793D02*
X13275420Y-15126746D01*
X13275420Y-15126746D02*
X13265896Y-15117222D01*
X13265896Y-15117222D02*
X13246848Y-15107698D01*
X13361134Y-15021984D02*
X13361134Y-15060079D01*
X13437325Y-15021984D02*
X13437325Y-15060079D01*
X13732563Y-15298174D02*
X13723039Y-15288650D01*
X13723039Y-15288650D02*
X13703991Y-15260079D01*
X13703991Y-15260079D02*
X13694468Y-15241031D01*
X13694468Y-15241031D02*
X13684944Y-15212460D01*
X13684944Y-15212460D02*
X13675420Y-15164841D01*
X13675420Y-15164841D02*
X13675420Y-15126746D01*
X13675420Y-15126746D02*
X13684944Y-15079127D01*
X13684944Y-15079127D02*
X13694468Y-15050555D01*
X13694468Y-15050555D02*
X13703991Y-15031508D01*
X13703991Y-15031508D02*
X13723039Y-15002936D01*
X13723039Y-15002936D02*
X13732563Y-14993412D01*
X13894468Y-15021984D02*
X13856372Y-15021984D01*
X13856372Y-15021984D02*
X13837325Y-15031508D01*
X13837325Y-15031508D02*
X13827801Y-15041031D01*
X13827801Y-15041031D02*
X13808753Y-15069603D01*
X13808753Y-15069603D02*
X13799229Y-15107698D01*
X13799229Y-15107698D02*
X13799229Y-15183888D01*
X13799229Y-15183888D02*
X13808753Y-15202936D01*
X13808753Y-15202936D02*
X13818277Y-15212460D01*
X13818277Y-15212460D02*
X13837325Y-15221984D01*
X13837325Y-15221984D02*
X13875420Y-15221984D01*
X13875420Y-15221984D02*
X13894468Y-15212460D01*
X13894468Y-15212460D02*
X13903991Y-15202936D01*
X13903991Y-15202936D02*
X13913515Y-15183888D01*
X13913515Y-15183888D02*
X13913515Y-15136269D01*
X13913515Y-15136269D02*
X13903991Y-15117222D01*
X13903991Y-15117222D02*
X13894468Y-15107698D01*
X13894468Y-15107698D02*
X13875420Y-15098174D01*
X13875420Y-15098174D02*
X13837325Y-15098174D01*
X13837325Y-15098174D02*
X13818277Y-15107698D01*
X13818277Y-15107698D02*
X13808753Y-15117222D01*
X13808753Y-15117222D02*
X13799229Y-15136269D01*
X14037325Y-15021984D02*
X14056372Y-15021984D01*
X14056372Y-15021984D02*
X14075420Y-15031508D01*
X14075420Y-15031508D02*
X14084944Y-15041031D01*
X14084944Y-15041031D02*
X14094468Y-15060079D01*
X14094468Y-15060079D02*
X14103991Y-15098174D01*
X14103991Y-15098174D02*
X14103991Y-15145793D01*
X14103991Y-15145793D02*
X14094468Y-15183888D01*
X14094468Y-15183888D02*
X14084944Y-15202936D01*
X14084944Y-15202936D02*
X14075420Y-15212460D01*
X14075420Y-15212460D02*
X14056372Y-15221984D01*
X14056372Y-15221984D02*
X14037325Y-15221984D01*
X14037325Y-15221984D02*
X14018277Y-15212460D01*
X14018277Y-15212460D02*
X14008753Y-15202936D01*
X14008753Y-15202936D02*
X13999229Y-15183888D01*
X13999229Y-15183888D02*
X13989706Y-15145793D01*
X13989706Y-15145793D02*
X13989706Y-15098174D01*
X13989706Y-15098174D02*
X13999229Y-15060079D01*
X13999229Y-15060079D02*
X14008753Y-15041031D01*
X14008753Y-15041031D02*
X14018277Y-15031508D01*
X14018277Y-15031508D02*
X14037325Y-15021984D01*
X14342087Y-15221984D02*
X14342087Y-15021984D01*
X14427801Y-15221984D02*
X14427801Y-15117222D01*
X14427801Y-15117222D02*
X14418277Y-15098174D01*
X14418277Y-15098174D02*
X14399230Y-15088650D01*
X14399230Y-15088650D02*
X14370658Y-15088650D01*
X14370658Y-15088650D02*
X14351610Y-15098174D01*
X14351610Y-15098174D02*
X14342087Y-15107698D01*
X14551610Y-15221984D02*
X14532563Y-15212460D01*
X14532563Y-15212460D02*
X14523039Y-15202936D01*
X14523039Y-15202936D02*
X14513515Y-15183888D01*
X14513515Y-15183888D02*
X14513515Y-15126746D01*
X14513515Y-15126746D02*
X14523039Y-15107698D01*
X14523039Y-15107698D02*
X14532563Y-15098174D01*
X14532563Y-15098174D02*
X14551610Y-15088650D01*
X14551610Y-15088650D02*
X14580182Y-15088650D01*
X14580182Y-15088650D02*
X14599230Y-15098174D01*
X14599230Y-15098174D02*
X14608753Y-15107698D01*
X14608753Y-15107698D02*
X14618277Y-15126746D01*
X14618277Y-15126746D02*
X14618277Y-15183888D01*
X14618277Y-15183888D02*
X14608753Y-15202936D01*
X14608753Y-15202936D02*
X14599230Y-15212460D01*
X14599230Y-15212460D02*
X14580182Y-15221984D01*
X14580182Y-15221984D02*
X14551610Y-15221984D01*
X14732563Y-15221984D02*
X14713515Y-15212460D01*
X14713515Y-15212460D02*
X14703991Y-15193412D01*
X14703991Y-15193412D02*
X14703991Y-15021984D01*
X14884944Y-15212460D02*
X14865896Y-15221984D01*
X14865896Y-15221984D02*
X14827801Y-15221984D01*
X14827801Y-15221984D02*
X14808753Y-15212460D01*
X14808753Y-15212460D02*
X14799230Y-15193412D01*
X14799230Y-15193412D02*
X14799230Y-15117222D01*
X14799230Y-15117222D02*
X14808753Y-15098174D01*
X14808753Y-15098174D02*
X14827801Y-15088650D01*
X14827801Y-15088650D02*
X14865896Y-15088650D01*
X14865896Y-15088650D02*
X14884944Y-15098174D01*
X14884944Y-15098174D02*
X14894468Y-15117222D01*
X14894468Y-15117222D02*
X14894468Y-15136269D01*
X14894468Y-15136269D02*
X14799230Y-15155317D01*
X14970658Y-15212460D02*
X14989706Y-15221984D01*
X14989706Y-15221984D02*
X15027801Y-15221984D01*
X15027801Y-15221984D02*
X15046849Y-15212460D01*
X15046849Y-15212460D02*
X15056372Y-15193412D01*
X15056372Y-15193412D02*
X15056372Y-15183888D01*
X15056372Y-15183888D02*
X15046849Y-15164841D01*
X15046849Y-15164841D02*
X15027801Y-15155317D01*
X15027801Y-15155317D02*
X14999230Y-15155317D01*
X14999230Y-15155317D02*
X14980182Y-15145793D01*
X14980182Y-15145793D02*
X14970658Y-15126746D01*
X14970658Y-15126746D02*
X14970658Y-15117222D01*
X14970658Y-15117222D02*
X14980182Y-15098174D01*
X14980182Y-15098174D02*
X14999230Y-15088650D01*
X14999230Y-15088650D02*
X15027801Y-15088650D01*
X15027801Y-15088650D02*
X15046849Y-15098174D01*
X15123039Y-15298174D02*
X15132563Y-15288650D01*
X15132563Y-15288650D02*
X15151611Y-15260079D01*
X15151611Y-15260079D02*
X15161134Y-15241031D01*
X15161134Y-15241031D02*
X15170658Y-15212460D01*
X15170658Y-15212460D02*
X15180182Y-15164841D01*
X15180182Y-15164841D02*
X15180182Y-15126746D01*
X15180182Y-15126746D02*
X15170658Y-15079127D01*
X15170658Y-15079127D02*
X15161134Y-15050555D01*
X15161134Y-15050555D02*
X15151611Y-15031508D01*
X15151611Y-15031508D02*
X15132563Y-15002936D01*
X15132563Y-15002936D02*
X15123039Y-14993412D01*
D12*
X10141000Y-15378000D02*
X10141000Y-15411000D01*
X10124500Y-15394500D02*
X10157500Y-15394500D01*
D11*
X10456372Y-15285984D02*
X10475420Y-15285984D01*
X10475420Y-15285984D02*
X10494467Y-15295508D01*
X10494467Y-15295508D02*
X10503991Y-15305031D01*
X10503991Y-15305031D02*
X10513515Y-15324079D01*
X10513515Y-15324079D02*
X10523039Y-15362174D01*
X10523039Y-15362174D02*
X10523039Y-15409793D01*
X10523039Y-15409793D02*
X10513515Y-15447888D01*
X10513515Y-15447888D02*
X10503991Y-15466936D01*
X10503991Y-15466936D02*
X10494467Y-15476460D01*
X10494467Y-15476460D02*
X10475420Y-15485984D01*
X10475420Y-15485984D02*
X10456372Y-15485984D01*
X10456372Y-15485984D02*
X10437324Y-15476460D01*
X10437324Y-15476460D02*
X10427801Y-15466936D01*
X10427801Y-15466936D02*
X10418277Y-15447888D01*
X10418277Y-15447888D02*
X10408753Y-15409793D01*
X10408753Y-15409793D02*
X10408753Y-15362174D01*
X10408753Y-15362174D02*
X10418277Y-15324079D01*
X10418277Y-15324079D02*
X10427801Y-15305031D01*
X10427801Y-15305031D02*
X10437324Y-15295508D01*
X10437324Y-15295508D02*
X10456372Y-15285984D01*
X10608753Y-15466936D02*
X10618277Y-15476460D01*
X10618277Y-15476460D02*
X10608753Y-15485984D01*
X10608753Y-15485984D02*
X10599229Y-15476460D01*
X10599229Y-15476460D02*
X10608753Y-15466936D01*
X10608753Y-15466936D02*
X10608753Y-15485984D01*
X10684944Y-15285984D02*
X10808753Y-15285984D01*
X10808753Y-15285984D02*
X10742086Y-15362174D01*
X10742086Y-15362174D02*
X10770658Y-15362174D01*
X10770658Y-15362174D02*
X10789705Y-15371698D01*
X10789705Y-15371698D02*
X10799229Y-15381222D01*
X10799229Y-15381222D02*
X10808753Y-15400269D01*
X10808753Y-15400269D02*
X10808753Y-15447888D01*
X10808753Y-15447888D02*
X10799229Y-15466936D01*
X10799229Y-15466936D02*
X10789705Y-15476460D01*
X10789705Y-15476460D02*
X10770658Y-15485984D01*
X10770658Y-15485984D02*
X10713515Y-15485984D01*
X10713515Y-15485984D02*
X10694467Y-15476460D01*
X10694467Y-15476460D02*
X10684944Y-15466936D01*
X10875420Y-15285984D02*
X10999229Y-15285984D01*
X10999229Y-15285984D02*
X10932563Y-15362174D01*
X10932563Y-15362174D02*
X10961134Y-15362174D01*
X10961134Y-15362174D02*
X10980182Y-15371698D01*
X10980182Y-15371698D02*
X10989705Y-15381222D01*
X10989705Y-15381222D02*
X10999229Y-15400269D01*
X10999229Y-15400269D02*
X10999229Y-15447888D01*
X10999229Y-15447888D02*
X10989705Y-15466936D01*
X10989705Y-15466936D02*
X10980182Y-15476460D01*
X10980182Y-15476460D02*
X10961134Y-15485984D01*
X10961134Y-15485984D02*
X10903991Y-15485984D01*
X10903991Y-15485984D02*
X10884944Y-15476460D01*
X10884944Y-15476460D02*
X10875420Y-15466936D01*
X11123039Y-15285984D02*
X11142086Y-15285984D01*
X11142086Y-15285984D02*
X11161134Y-15295508D01*
X11161134Y-15295508D02*
X11170658Y-15305031D01*
X11170658Y-15305031D02*
X11180182Y-15324079D01*
X11180182Y-15324079D02*
X11189705Y-15362174D01*
X11189705Y-15362174D02*
X11189705Y-15409793D01*
X11189705Y-15409793D02*
X11180182Y-15447888D01*
X11180182Y-15447888D02*
X11170658Y-15466936D01*
X11170658Y-15466936D02*
X11161134Y-15476460D01*
X11161134Y-15476460D02*
X11142086Y-15485984D01*
X11142086Y-15485984D02*
X11123039Y-15485984D01*
X11123039Y-15485984D02*
X11103991Y-15476460D01*
X11103991Y-15476460D02*
X11094467Y-15466936D01*
X11094467Y-15466936D02*
X11084944Y-15447888D01*
X11084944Y-15447888D02*
X11075420Y-15409793D01*
X11075420Y-15409793D02*
X11075420Y-15362174D01*
X11075420Y-15362174D02*
X11084944Y-15324079D01*
X11084944Y-15324079D02*
X11094467Y-15305031D01*
X11094467Y-15305031D02*
X11103991Y-15295508D01*
X11103991Y-15295508D02*
X11123039Y-15285984D01*
X11275420Y-15485984D02*
X11275420Y-15352650D01*
X11275420Y-15371698D02*
X11284943Y-15362174D01*
X11284943Y-15362174D02*
X11303991Y-15352650D01*
X11303991Y-15352650D02*
X11332563Y-15352650D01*
X11332563Y-15352650D02*
X11351610Y-15362174D01*
X11351610Y-15362174D02*
X11361134Y-15381222D01*
X11361134Y-15381222D02*
X11361134Y-15485984D01*
X11361134Y-15381222D02*
X11370658Y-15362174D01*
X11370658Y-15362174D02*
X11389705Y-15352650D01*
X11389705Y-15352650D02*
X11418277Y-15352650D01*
X11418277Y-15352650D02*
X11437324Y-15362174D01*
X11437324Y-15362174D02*
X11446848Y-15381222D01*
X11446848Y-15381222D02*
X11446848Y-15485984D01*
X11542086Y-15485984D02*
X11542086Y-15352650D01*
X11542086Y-15371698D02*
X11551610Y-15362174D01*
X11551610Y-15362174D02*
X11570658Y-15352650D01*
X11570658Y-15352650D02*
X11599229Y-15352650D01*
X11599229Y-15352650D02*
X11618277Y-15362174D01*
X11618277Y-15362174D02*
X11627801Y-15381222D01*
X11627801Y-15381222D02*
X11627801Y-15485984D01*
X11627801Y-15381222D02*
X11637324Y-15362174D01*
X11637324Y-15362174D02*
X11656372Y-15352650D01*
X11656372Y-15352650D02*
X11684943Y-15352650D01*
X11684943Y-15352650D02*
X11703991Y-15362174D01*
X11703991Y-15362174D02*
X11713515Y-15381222D01*
X11713515Y-15381222D02*
X11713515Y-15485984D01*
X12103991Y-15276460D02*
X11932563Y-15533603D01*
X12361134Y-15285984D02*
X12380182Y-15285984D01*
X12380182Y-15285984D02*
X12399229Y-15295508D01*
X12399229Y-15295508D02*
X12408753Y-15305031D01*
X12408753Y-15305031D02*
X12418277Y-15324079D01*
X12418277Y-15324079D02*
X12427801Y-15362174D01*
X12427801Y-15362174D02*
X12427801Y-15409793D01*
X12427801Y-15409793D02*
X12418277Y-15447888D01*
X12418277Y-15447888D02*
X12408753Y-15466936D01*
X12408753Y-15466936D02*
X12399229Y-15476460D01*
X12399229Y-15476460D02*
X12380182Y-15485984D01*
X12380182Y-15485984D02*
X12361134Y-15485984D01*
X12361134Y-15485984D02*
X12342086Y-15476460D01*
X12342086Y-15476460D02*
X12332563Y-15466936D01*
X12332563Y-15466936D02*
X12323039Y-15447888D01*
X12323039Y-15447888D02*
X12313515Y-15409793D01*
X12313515Y-15409793D02*
X12313515Y-15362174D01*
X12313515Y-15362174D02*
X12323039Y-15324079D01*
X12323039Y-15324079D02*
X12332563Y-15305031D01*
X12332563Y-15305031D02*
X12342086Y-15295508D01*
X12342086Y-15295508D02*
X12361134Y-15285984D01*
X12513515Y-15466936D02*
X12523039Y-15476460D01*
X12523039Y-15476460D02*
X12513515Y-15485984D01*
X12513515Y-15485984D02*
X12503991Y-15476460D01*
X12503991Y-15476460D02*
X12513515Y-15466936D01*
X12513515Y-15466936D02*
X12513515Y-15485984D01*
X12646848Y-15285984D02*
X12665896Y-15285984D01*
X12665896Y-15285984D02*
X12684944Y-15295508D01*
X12684944Y-15295508D02*
X12694467Y-15305031D01*
X12694467Y-15305031D02*
X12703991Y-15324079D01*
X12703991Y-15324079D02*
X12713515Y-15362174D01*
X12713515Y-15362174D02*
X12713515Y-15409793D01*
X12713515Y-15409793D02*
X12703991Y-15447888D01*
X12703991Y-15447888D02*
X12694467Y-15466936D01*
X12694467Y-15466936D02*
X12684944Y-15476460D01*
X12684944Y-15476460D02*
X12665896Y-15485984D01*
X12665896Y-15485984D02*
X12646848Y-15485984D01*
X12646848Y-15485984D02*
X12627801Y-15476460D01*
X12627801Y-15476460D02*
X12618277Y-15466936D01*
X12618277Y-15466936D02*
X12608753Y-15447888D01*
X12608753Y-15447888D02*
X12599229Y-15409793D01*
X12599229Y-15409793D02*
X12599229Y-15362174D01*
X12599229Y-15362174D02*
X12608753Y-15324079D01*
X12608753Y-15324079D02*
X12618277Y-15305031D01*
X12618277Y-15305031D02*
X12627801Y-15295508D01*
X12627801Y-15295508D02*
X12646848Y-15285984D01*
X12903991Y-15485984D02*
X12789706Y-15485984D01*
X12846848Y-15485984D02*
X12846848Y-15285984D01*
X12846848Y-15285984D02*
X12827801Y-15314555D01*
X12827801Y-15314555D02*
X12808753Y-15333603D01*
X12808753Y-15333603D02*
X12789706Y-15343127D01*
X12970658Y-15285984D02*
X13094467Y-15285984D01*
X13094467Y-15285984D02*
X13027801Y-15362174D01*
X13027801Y-15362174D02*
X13056372Y-15362174D01*
X13056372Y-15362174D02*
X13075420Y-15371698D01*
X13075420Y-15371698D02*
X13084944Y-15381222D01*
X13084944Y-15381222D02*
X13094467Y-15400269D01*
X13094467Y-15400269D02*
X13094467Y-15447888D01*
X13094467Y-15447888D02*
X13084944Y-15466936D01*
X13084944Y-15466936D02*
X13075420Y-15476460D01*
X13075420Y-15476460D02*
X13056372Y-15485984D01*
X13056372Y-15485984D02*
X12999229Y-15485984D01*
X12999229Y-15485984D02*
X12980182Y-15476460D01*
X12980182Y-15476460D02*
X12970658Y-15466936D01*
X13218277Y-15285984D02*
X13237325Y-15285984D01*
X13237325Y-15285984D02*
X13256372Y-15295508D01*
X13256372Y-15295508D02*
X13265896Y-15305031D01*
X13265896Y-15305031D02*
X13275420Y-15324079D01*
X13275420Y-15324079D02*
X13284944Y-15362174D01*
X13284944Y-15362174D02*
X13284944Y-15409793D01*
X13284944Y-15409793D02*
X13275420Y-15447888D01*
X13275420Y-15447888D02*
X13265896Y-15466936D01*
X13265896Y-15466936D02*
X13256372Y-15476460D01*
X13256372Y-15476460D02*
X13237325Y-15485984D01*
X13237325Y-15485984D02*
X13218277Y-15485984D01*
X13218277Y-15485984D02*
X13199229Y-15476460D01*
X13199229Y-15476460D02*
X13189706Y-15466936D01*
X13189706Y-15466936D02*
X13180182Y-15447888D01*
X13180182Y-15447888D02*
X13170658Y-15409793D01*
X13170658Y-15409793D02*
X13170658Y-15362174D01*
X13170658Y-15362174D02*
X13180182Y-15324079D01*
X13180182Y-15324079D02*
X13189706Y-15305031D01*
X13189706Y-15305031D02*
X13199229Y-15295508D01*
X13199229Y-15295508D02*
X13218277Y-15285984D01*
X13361134Y-15285984D02*
X13361134Y-15324079D01*
X13437325Y-15285984D02*
X13437325Y-15324079D01*
X13732563Y-15562174D02*
X13723039Y-15552650D01*
X13723039Y-15552650D02*
X13703991Y-15524079D01*
X13703991Y-15524079D02*
X13694468Y-15505031D01*
X13694468Y-15505031D02*
X13684944Y-15476460D01*
X13684944Y-15476460D02*
X13675420Y-15428841D01*
X13675420Y-15428841D02*
X13675420Y-15390746D01*
X13675420Y-15390746D02*
X13684944Y-15343127D01*
X13684944Y-15343127D02*
X13694468Y-15314555D01*
X13694468Y-15314555D02*
X13703991Y-15295508D01*
X13703991Y-15295508D02*
X13723039Y-15266936D01*
X13723039Y-15266936D02*
X13732563Y-15257412D01*
X13894468Y-15285984D02*
X13856372Y-15285984D01*
X13856372Y-15285984D02*
X13837325Y-15295508D01*
X13837325Y-15295508D02*
X13827801Y-15305031D01*
X13827801Y-15305031D02*
X13808753Y-15333603D01*
X13808753Y-15333603D02*
X13799229Y-15371698D01*
X13799229Y-15371698D02*
X13799229Y-15447888D01*
X13799229Y-15447888D02*
X13808753Y-15466936D01*
X13808753Y-15466936D02*
X13818277Y-15476460D01*
X13818277Y-15476460D02*
X13837325Y-15485984D01*
X13837325Y-15485984D02*
X13875420Y-15485984D01*
X13875420Y-15485984D02*
X13894468Y-15476460D01*
X13894468Y-15476460D02*
X13903991Y-15466936D01*
X13903991Y-15466936D02*
X13913515Y-15447888D01*
X13913515Y-15447888D02*
X13913515Y-15400269D01*
X13913515Y-15400269D02*
X13903991Y-15381222D01*
X13903991Y-15381222D02*
X13894468Y-15371698D01*
X13894468Y-15371698D02*
X13875420Y-15362174D01*
X13875420Y-15362174D02*
X13837325Y-15362174D01*
X13837325Y-15362174D02*
X13818277Y-15371698D01*
X13818277Y-15371698D02*
X13808753Y-15381222D01*
X13808753Y-15381222D02*
X13799229Y-15400269D01*
X14151610Y-15485984D02*
X14151610Y-15285984D01*
X14237325Y-15485984D02*
X14237325Y-15381222D01*
X14237325Y-15381222D02*
X14227801Y-15362174D01*
X14227801Y-15362174D02*
X14208753Y-15352650D01*
X14208753Y-15352650D02*
X14180182Y-15352650D01*
X14180182Y-15352650D02*
X14161134Y-15362174D01*
X14161134Y-15362174D02*
X14151610Y-15371698D01*
X14361134Y-15485984D02*
X14342087Y-15476460D01*
X14342087Y-15476460D02*
X14332563Y-15466936D01*
X14332563Y-15466936D02*
X14323039Y-15447888D01*
X14323039Y-15447888D02*
X14323039Y-15390746D01*
X14323039Y-15390746D02*
X14332563Y-15371698D01*
X14332563Y-15371698D02*
X14342087Y-15362174D01*
X14342087Y-15362174D02*
X14361134Y-15352650D01*
X14361134Y-15352650D02*
X14389706Y-15352650D01*
X14389706Y-15352650D02*
X14408753Y-15362174D01*
X14408753Y-15362174D02*
X14418277Y-15371698D01*
X14418277Y-15371698D02*
X14427801Y-15390746D01*
X14427801Y-15390746D02*
X14427801Y-15447888D01*
X14427801Y-15447888D02*
X14418277Y-15466936D01*
X14418277Y-15466936D02*
X14408753Y-15476460D01*
X14408753Y-15476460D02*
X14389706Y-15485984D01*
X14389706Y-15485984D02*
X14361134Y-15485984D01*
X14542087Y-15485984D02*
X14523039Y-15476460D01*
X14523039Y-15476460D02*
X14513515Y-15457412D01*
X14513515Y-15457412D02*
X14513515Y-15285984D01*
X14694468Y-15476460D02*
X14675420Y-15485984D01*
X14675420Y-15485984D02*
X14637325Y-15485984D01*
X14637325Y-15485984D02*
X14618277Y-15476460D01*
X14618277Y-15476460D02*
X14608753Y-15457412D01*
X14608753Y-15457412D02*
X14608753Y-15381222D01*
X14608753Y-15381222D02*
X14618277Y-15362174D01*
X14618277Y-15362174D02*
X14637325Y-15352650D01*
X14637325Y-15352650D02*
X14675420Y-15352650D01*
X14675420Y-15352650D02*
X14694468Y-15362174D01*
X14694468Y-15362174D02*
X14703991Y-15381222D01*
X14703991Y-15381222D02*
X14703991Y-15400269D01*
X14703991Y-15400269D02*
X14608753Y-15419317D01*
X14780182Y-15476460D02*
X14799230Y-15485984D01*
X14799230Y-15485984D02*
X14837325Y-15485984D01*
X14837325Y-15485984D02*
X14856372Y-15476460D01*
X14856372Y-15476460D02*
X14865896Y-15457412D01*
X14865896Y-15457412D02*
X14865896Y-15447888D01*
X14865896Y-15447888D02*
X14856372Y-15428841D01*
X14856372Y-15428841D02*
X14837325Y-15419317D01*
X14837325Y-15419317D02*
X14808753Y-15419317D01*
X14808753Y-15419317D02*
X14789706Y-15409793D01*
X14789706Y-15409793D02*
X14780182Y-15390746D01*
X14780182Y-15390746D02*
X14780182Y-15381222D01*
X14780182Y-15381222D02*
X14789706Y-15362174D01*
X14789706Y-15362174D02*
X14808753Y-15352650D01*
X14808753Y-15352650D02*
X14837325Y-15352650D01*
X14837325Y-15352650D02*
X14856372Y-15362174D01*
X14932563Y-15562174D02*
X14942087Y-15552650D01*
X14942087Y-15552650D02*
X14961134Y-15524079D01*
X14961134Y-15524079D02*
X14970658Y-15505031D01*
X14970658Y-15505031D02*
X14980182Y-15476460D01*
X14980182Y-15476460D02*
X14989706Y-15428841D01*
X14989706Y-15428841D02*
X14989706Y-15390746D01*
X14989706Y-15390746D02*
X14980182Y-15343127D01*
X14980182Y-15343127D02*
X14970658Y-15314555D01*
X14970658Y-15314555D02*
X14961134Y-15295508D01*
X14961134Y-15295508D02*
X14942087Y-15266936D01*
X14942087Y-15266936D02*
X14932563Y-15257412D01*
D12*
X10148713Y-15679713D02*
X10148713Y-15637287D01*
X10106287Y-15637287D01*
X10106287Y-15679713D01*
X10148713Y-15679713D01*
D11*
X10456372Y-15549984D02*
X10475420Y-15549984D01*
X10475420Y-15549984D02*
X10494467Y-15559508D01*
X10494467Y-15559508D02*
X10503991Y-15569031D01*
X10503991Y-15569031D02*
X10513515Y-15588079D01*
X10513515Y-15588079D02*
X10523039Y-15626174D01*
X10523039Y-15626174D02*
X10523039Y-15673793D01*
X10523039Y-15673793D02*
X10513515Y-15711888D01*
X10513515Y-15711888D02*
X10503991Y-15730936D01*
X10503991Y-15730936D02*
X10494467Y-15740460D01*
X10494467Y-15740460D02*
X10475420Y-15749984D01*
X10475420Y-15749984D02*
X10456372Y-15749984D01*
X10456372Y-15749984D02*
X10437324Y-15740460D01*
X10437324Y-15740460D02*
X10427801Y-15730936D01*
X10427801Y-15730936D02*
X10418277Y-15711888D01*
X10418277Y-15711888D02*
X10408753Y-15673793D01*
X10408753Y-15673793D02*
X10408753Y-15626174D01*
X10408753Y-15626174D02*
X10418277Y-15588079D01*
X10418277Y-15588079D02*
X10427801Y-15569031D01*
X10427801Y-15569031D02*
X10437324Y-15559508D01*
X10437324Y-15559508D02*
X10456372Y-15549984D01*
X10608753Y-15730936D02*
X10618277Y-15740460D01*
X10618277Y-15740460D02*
X10608753Y-15749984D01*
X10608753Y-15749984D02*
X10599229Y-15740460D01*
X10599229Y-15740460D02*
X10608753Y-15730936D01*
X10608753Y-15730936D02*
X10608753Y-15749984D01*
X10789705Y-15549984D02*
X10751610Y-15549984D01*
X10751610Y-15549984D02*
X10732563Y-15559508D01*
X10732563Y-15559508D02*
X10723039Y-15569031D01*
X10723039Y-15569031D02*
X10703991Y-15597603D01*
X10703991Y-15597603D02*
X10694467Y-15635698D01*
X10694467Y-15635698D02*
X10694467Y-15711888D01*
X10694467Y-15711888D02*
X10703991Y-15730936D01*
X10703991Y-15730936D02*
X10713515Y-15740460D01*
X10713515Y-15740460D02*
X10732563Y-15749984D01*
X10732563Y-15749984D02*
X10770658Y-15749984D01*
X10770658Y-15749984D02*
X10789705Y-15740460D01*
X10789705Y-15740460D02*
X10799229Y-15730936D01*
X10799229Y-15730936D02*
X10808753Y-15711888D01*
X10808753Y-15711888D02*
X10808753Y-15664269D01*
X10808753Y-15664269D02*
X10799229Y-15645222D01*
X10799229Y-15645222D02*
X10789705Y-15635698D01*
X10789705Y-15635698D02*
X10770658Y-15626174D01*
X10770658Y-15626174D02*
X10732563Y-15626174D01*
X10732563Y-15626174D02*
X10713515Y-15635698D01*
X10713515Y-15635698D02*
X10703991Y-15645222D01*
X10703991Y-15645222D02*
X10694467Y-15664269D01*
X10932563Y-15549984D02*
X10951610Y-15549984D01*
X10951610Y-15549984D02*
X10970658Y-15559508D01*
X10970658Y-15559508D02*
X10980182Y-15569031D01*
X10980182Y-15569031D02*
X10989705Y-15588079D01*
X10989705Y-15588079D02*
X10999229Y-15626174D01*
X10999229Y-15626174D02*
X10999229Y-15673793D01*
X10999229Y-15673793D02*
X10989705Y-15711888D01*
X10989705Y-15711888D02*
X10980182Y-15730936D01*
X10980182Y-15730936D02*
X10970658Y-15740460D01*
X10970658Y-15740460D02*
X10951610Y-15749984D01*
X10951610Y-15749984D02*
X10932563Y-15749984D01*
X10932563Y-15749984D02*
X10913515Y-15740460D01*
X10913515Y-15740460D02*
X10903991Y-15730936D01*
X10903991Y-15730936D02*
X10894467Y-15711888D01*
X10894467Y-15711888D02*
X10884944Y-15673793D01*
X10884944Y-15673793D02*
X10884944Y-15626174D01*
X10884944Y-15626174D02*
X10894467Y-15588079D01*
X10894467Y-15588079D02*
X10903991Y-15569031D01*
X10903991Y-15569031D02*
X10913515Y-15559508D01*
X10913515Y-15559508D02*
X10932563Y-15549984D01*
X11123039Y-15549984D02*
X11142086Y-15549984D01*
X11142086Y-15549984D02*
X11161134Y-15559508D01*
X11161134Y-15559508D02*
X11170658Y-15569031D01*
X11170658Y-15569031D02*
X11180182Y-15588079D01*
X11180182Y-15588079D02*
X11189705Y-15626174D01*
X11189705Y-15626174D02*
X11189705Y-15673793D01*
X11189705Y-15673793D02*
X11180182Y-15711888D01*
X11180182Y-15711888D02*
X11170658Y-15730936D01*
X11170658Y-15730936D02*
X11161134Y-15740460D01*
X11161134Y-15740460D02*
X11142086Y-15749984D01*
X11142086Y-15749984D02*
X11123039Y-15749984D01*
X11123039Y-15749984D02*
X11103991Y-15740460D01*
X11103991Y-15740460D02*
X11094467Y-15730936D01*
X11094467Y-15730936D02*
X11084944Y-15711888D01*
X11084944Y-15711888D02*
X11075420Y-15673793D01*
X11075420Y-15673793D02*
X11075420Y-15626174D01*
X11075420Y-15626174D02*
X11084944Y-15588079D01*
X11084944Y-15588079D02*
X11094467Y-15569031D01*
X11094467Y-15569031D02*
X11103991Y-15559508D01*
X11103991Y-15559508D02*
X11123039Y-15549984D01*
X11275420Y-15749984D02*
X11275420Y-15616650D01*
X11275420Y-15635698D02*
X11284943Y-15626174D01*
X11284943Y-15626174D02*
X11303991Y-15616650D01*
X11303991Y-15616650D02*
X11332563Y-15616650D01*
X11332563Y-15616650D02*
X11351610Y-15626174D01*
X11351610Y-15626174D02*
X11361134Y-15645222D01*
X11361134Y-15645222D02*
X11361134Y-15749984D01*
X11361134Y-15645222D02*
X11370658Y-15626174D01*
X11370658Y-15626174D02*
X11389705Y-15616650D01*
X11389705Y-15616650D02*
X11418277Y-15616650D01*
X11418277Y-15616650D02*
X11437324Y-15626174D01*
X11437324Y-15626174D02*
X11446848Y-15645222D01*
X11446848Y-15645222D02*
X11446848Y-15749984D01*
X11542086Y-15749984D02*
X11542086Y-15616650D01*
X11542086Y-15635698D02*
X11551610Y-15626174D01*
X11551610Y-15626174D02*
X11570658Y-15616650D01*
X11570658Y-15616650D02*
X11599229Y-15616650D01*
X11599229Y-15616650D02*
X11618277Y-15626174D01*
X11618277Y-15626174D02*
X11627801Y-15645222D01*
X11627801Y-15645222D02*
X11627801Y-15749984D01*
X11627801Y-15645222D02*
X11637324Y-15626174D01*
X11637324Y-15626174D02*
X11656372Y-15616650D01*
X11656372Y-15616650D02*
X11684943Y-15616650D01*
X11684943Y-15616650D02*
X11703991Y-15626174D01*
X11703991Y-15626174D02*
X11713515Y-15645222D01*
X11713515Y-15645222D02*
X11713515Y-15749984D01*
X12103991Y-15540460D02*
X11932563Y-15797603D01*
X12361134Y-15549984D02*
X12380182Y-15549984D01*
X12380182Y-15549984D02*
X12399229Y-15559508D01*
X12399229Y-15559508D02*
X12408753Y-15569031D01*
X12408753Y-15569031D02*
X12418277Y-15588079D01*
X12418277Y-15588079D02*
X12427801Y-15626174D01*
X12427801Y-15626174D02*
X12427801Y-15673793D01*
X12427801Y-15673793D02*
X12418277Y-15711888D01*
X12418277Y-15711888D02*
X12408753Y-15730936D01*
X12408753Y-15730936D02*
X12399229Y-15740460D01*
X12399229Y-15740460D02*
X12380182Y-15749984D01*
X12380182Y-15749984D02*
X12361134Y-15749984D01*
X12361134Y-15749984D02*
X12342086Y-15740460D01*
X12342086Y-15740460D02*
X12332563Y-15730936D01*
X12332563Y-15730936D02*
X12323039Y-15711888D01*
X12323039Y-15711888D02*
X12313515Y-15673793D01*
X12313515Y-15673793D02*
X12313515Y-15626174D01*
X12313515Y-15626174D02*
X12323039Y-15588079D01*
X12323039Y-15588079D02*
X12332563Y-15569031D01*
X12332563Y-15569031D02*
X12342086Y-15559508D01*
X12342086Y-15559508D02*
X12361134Y-15549984D01*
X12513515Y-15730936D02*
X12523039Y-15740460D01*
X12523039Y-15740460D02*
X12513515Y-15749984D01*
X12513515Y-15749984D02*
X12503991Y-15740460D01*
X12503991Y-15740460D02*
X12513515Y-15730936D01*
X12513515Y-15730936D02*
X12513515Y-15749984D01*
X12646848Y-15549984D02*
X12665896Y-15549984D01*
X12665896Y-15549984D02*
X12684944Y-15559508D01*
X12684944Y-15559508D02*
X12694467Y-15569031D01*
X12694467Y-15569031D02*
X12703991Y-15588079D01*
X12703991Y-15588079D02*
X12713515Y-15626174D01*
X12713515Y-15626174D02*
X12713515Y-15673793D01*
X12713515Y-15673793D02*
X12703991Y-15711888D01*
X12703991Y-15711888D02*
X12694467Y-15730936D01*
X12694467Y-15730936D02*
X12684944Y-15740460D01*
X12684944Y-15740460D02*
X12665896Y-15749984D01*
X12665896Y-15749984D02*
X12646848Y-15749984D01*
X12646848Y-15749984D02*
X12627801Y-15740460D01*
X12627801Y-15740460D02*
X12618277Y-15730936D01*
X12618277Y-15730936D02*
X12608753Y-15711888D01*
X12608753Y-15711888D02*
X12599229Y-15673793D01*
X12599229Y-15673793D02*
X12599229Y-15626174D01*
X12599229Y-15626174D02*
X12608753Y-15588079D01*
X12608753Y-15588079D02*
X12618277Y-15569031D01*
X12618277Y-15569031D02*
X12627801Y-15559508D01*
X12627801Y-15559508D02*
X12646848Y-15549984D01*
X12789706Y-15569031D02*
X12799229Y-15559508D01*
X12799229Y-15559508D02*
X12818277Y-15549984D01*
X12818277Y-15549984D02*
X12865896Y-15549984D01*
X12865896Y-15549984D02*
X12884944Y-15559508D01*
X12884944Y-15559508D02*
X12894467Y-15569031D01*
X12894467Y-15569031D02*
X12903991Y-15588079D01*
X12903991Y-15588079D02*
X12903991Y-15607127D01*
X12903991Y-15607127D02*
X12894467Y-15635698D01*
X12894467Y-15635698D02*
X12780182Y-15749984D01*
X12780182Y-15749984D02*
X12903991Y-15749984D01*
X12970658Y-15549984D02*
X13094467Y-15549984D01*
X13094467Y-15549984D02*
X13027801Y-15626174D01*
X13027801Y-15626174D02*
X13056372Y-15626174D01*
X13056372Y-15626174D02*
X13075420Y-15635698D01*
X13075420Y-15635698D02*
X13084944Y-15645222D01*
X13084944Y-15645222D02*
X13094467Y-15664269D01*
X13094467Y-15664269D02*
X13094467Y-15711888D01*
X13094467Y-15711888D02*
X13084944Y-15730936D01*
X13084944Y-15730936D02*
X13075420Y-15740460D01*
X13075420Y-15740460D02*
X13056372Y-15749984D01*
X13056372Y-15749984D02*
X12999229Y-15749984D01*
X12999229Y-15749984D02*
X12980182Y-15740460D01*
X12980182Y-15740460D02*
X12970658Y-15730936D01*
X13265896Y-15549984D02*
X13227801Y-15549984D01*
X13227801Y-15549984D02*
X13208753Y-15559508D01*
X13208753Y-15559508D02*
X13199229Y-15569031D01*
X13199229Y-15569031D02*
X13180182Y-15597603D01*
X13180182Y-15597603D02*
X13170658Y-15635698D01*
X13170658Y-15635698D02*
X13170658Y-15711888D01*
X13170658Y-15711888D02*
X13180182Y-15730936D01*
X13180182Y-15730936D02*
X13189706Y-15740460D01*
X13189706Y-15740460D02*
X13208753Y-15749984D01*
X13208753Y-15749984D02*
X13246848Y-15749984D01*
X13246848Y-15749984D02*
X13265896Y-15740460D01*
X13265896Y-15740460D02*
X13275420Y-15730936D01*
X13275420Y-15730936D02*
X13284944Y-15711888D01*
X13284944Y-15711888D02*
X13284944Y-15664269D01*
X13284944Y-15664269D02*
X13275420Y-15645222D01*
X13275420Y-15645222D02*
X13265896Y-15635698D01*
X13265896Y-15635698D02*
X13246848Y-15626174D01*
X13246848Y-15626174D02*
X13208753Y-15626174D01*
X13208753Y-15626174D02*
X13189706Y-15635698D01*
X13189706Y-15635698D02*
X13180182Y-15645222D01*
X13180182Y-15645222D02*
X13170658Y-15664269D01*
X13361134Y-15549984D02*
X13361134Y-15588079D01*
X13437325Y-15549984D02*
X13437325Y-15588079D01*
X13732563Y-15826174D02*
X13723039Y-15816650D01*
X13723039Y-15816650D02*
X13703991Y-15788079D01*
X13703991Y-15788079D02*
X13694468Y-15769031D01*
X13694468Y-15769031D02*
X13684944Y-15740460D01*
X13684944Y-15740460D02*
X13675420Y-15692841D01*
X13675420Y-15692841D02*
X13675420Y-15654746D01*
X13675420Y-15654746D02*
X13684944Y-15607127D01*
X13684944Y-15607127D02*
X13694468Y-15578555D01*
X13694468Y-15578555D02*
X13703991Y-15559508D01*
X13703991Y-15559508D02*
X13723039Y-15530936D01*
X13723039Y-15530936D02*
X13732563Y-15521412D01*
X13913515Y-15749984D02*
X13799229Y-15749984D01*
X13856372Y-15749984D02*
X13856372Y-15549984D01*
X13856372Y-15549984D02*
X13837325Y-15578555D01*
X13837325Y-15578555D02*
X13818277Y-15597603D01*
X13818277Y-15597603D02*
X13799229Y-15607127D01*
X13989706Y-15569031D02*
X13999229Y-15559508D01*
X13999229Y-15559508D02*
X14018277Y-15549984D01*
X14018277Y-15549984D02*
X14065896Y-15549984D01*
X14065896Y-15549984D02*
X14084944Y-15559508D01*
X14084944Y-15559508D02*
X14094468Y-15569031D01*
X14094468Y-15569031D02*
X14103991Y-15588079D01*
X14103991Y-15588079D02*
X14103991Y-15607127D01*
X14103991Y-15607127D02*
X14094468Y-15635698D01*
X14094468Y-15635698D02*
X13980182Y-15749984D01*
X13980182Y-15749984D02*
X14103991Y-15749984D01*
X14342087Y-15749984D02*
X14342087Y-15549984D01*
X14427801Y-15749984D02*
X14427801Y-15645222D01*
X14427801Y-15645222D02*
X14418277Y-15626174D01*
X14418277Y-15626174D02*
X14399230Y-15616650D01*
X14399230Y-15616650D02*
X14370658Y-15616650D01*
X14370658Y-15616650D02*
X14351610Y-15626174D01*
X14351610Y-15626174D02*
X14342087Y-15635698D01*
X14551610Y-15749984D02*
X14532563Y-15740460D01*
X14532563Y-15740460D02*
X14523039Y-15730936D01*
X14523039Y-15730936D02*
X14513515Y-15711888D01*
X14513515Y-15711888D02*
X14513515Y-15654746D01*
X14513515Y-15654746D02*
X14523039Y-15635698D01*
X14523039Y-15635698D02*
X14532563Y-15626174D01*
X14532563Y-15626174D02*
X14551610Y-15616650D01*
X14551610Y-15616650D02*
X14580182Y-15616650D01*
X14580182Y-15616650D02*
X14599230Y-15626174D01*
X14599230Y-15626174D02*
X14608753Y-15635698D01*
X14608753Y-15635698D02*
X14618277Y-15654746D01*
X14618277Y-15654746D02*
X14618277Y-15711888D01*
X14618277Y-15711888D02*
X14608753Y-15730936D01*
X14608753Y-15730936D02*
X14599230Y-15740460D01*
X14599230Y-15740460D02*
X14580182Y-15749984D01*
X14580182Y-15749984D02*
X14551610Y-15749984D01*
X14732563Y-15749984D02*
X14713515Y-15740460D01*
X14713515Y-15740460D02*
X14703991Y-15721412D01*
X14703991Y-15721412D02*
X14703991Y-15549984D01*
X14884944Y-15740460D02*
X14865896Y-15749984D01*
X14865896Y-15749984D02*
X14827801Y-15749984D01*
X14827801Y-15749984D02*
X14808753Y-15740460D01*
X14808753Y-15740460D02*
X14799230Y-15721412D01*
X14799230Y-15721412D02*
X14799230Y-15645222D01*
X14799230Y-15645222D02*
X14808753Y-15626174D01*
X14808753Y-15626174D02*
X14827801Y-15616650D01*
X14827801Y-15616650D02*
X14865896Y-15616650D01*
X14865896Y-15616650D02*
X14884944Y-15626174D01*
X14884944Y-15626174D02*
X14894468Y-15645222D01*
X14894468Y-15645222D02*
X14894468Y-15664269D01*
X14894468Y-15664269D02*
X14799230Y-15683317D01*
X14970658Y-15740460D02*
X14989706Y-15749984D01*
X14989706Y-15749984D02*
X15027801Y-15749984D01*
X15027801Y-15749984D02*
X15046849Y-15740460D01*
X15046849Y-15740460D02*
X15056372Y-15721412D01*
X15056372Y-15721412D02*
X15056372Y-15711888D01*
X15056372Y-15711888D02*
X15046849Y-15692841D01*
X15046849Y-15692841D02*
X15027801Y-15683317D01*
X15027801Y-15683317D02*
X14999230Y-15683317D01*
X14999230Y-15683317D02*
X14980182Y-15673793D01*
X14980182Y-15673793D02*
X14970658Y-15654746D01*
X14970658Y-15654746D02*
X14970658Y-15645222D01*
X14970658Y-15645222D02*
X14980182Y-15626174D01*
X14980182Y-15626174D02*
X14999230Y-15616650D01*
X14999230Y-15616650D02*
X15027801Y-15616650D01*
X15027801Y-15616650D02*
X15046849Y-15626174D01*
X15294468Y-15673793D02*
X15446849Y-15673793D01*
X15370658Y-15749984D02*
X15370658Y-15597603D01*
X15684944Y-15569031D02*
X15694468Y-15559508D01*
X15694468Y-15559508D02*
X15713515Y-15549984D01*
X15713515Y-15549984D02*
X15761134Y-15549984D01*
X15761134Y-15549984D02*
X15780182Y-15559508D01*
X15780182Y-15559508D02*
X15789706Y-15569031D01*
X15789706Y-15569031D02*
X15799230Y-15588079D01*
X15799230Y-15588079D02*
X15799230Y-15607127D01*
X15799230Y-15607127D02*
X15789706Y-15635698D01*
X15789706Y-15635698D02*
X15675420Y-15749984D01*
X15675420Y-15749984D02*
X15799230Y-15749984D01*
X16027801Y-15740460D02*
X16046849Y-15749984D01*
X16046849Y-15749984D02*
X16084944Y-15749984D01*
X16084944Y-15749984D02*
X16103992Y-15740460D01*
X16103992Y-15740460D02*
X16113515Y-15721412D01*
X16113515Y-15721412D02*
X16113515Y-15711888D01*
X16113515Y-15711888D02*
X16103992Y-15692841D01*
X16103992Y-15692841D02*
X16084944Y-15683317D01*
X16084944Y-15683317D02*
X16056373Y-15683317D01*
X16056373Y-15683317D02*
X16037325Y-15673793D01*
X16037325Y-15673793D02*
X16027801Y-15654746D01*
X16027801Y-15654746D02*
X16027801Y-15645222D01*
X16027801Y-15645222D02*
X16037325Y-15626174D01*
X16037325Y-15626174D02*
X16056373Y-15616650D01*
X16056373Y-15616650D02*
X16084944Y-15616650D01*
X16084944Y-15616650D02*
X16103992Y-15626174D01*
X16227801Y-15749984D02*
X16208754Y-15740460D01*
X16208754Y-15740460D02*
X16199230Y-15721412D01*
X16199230Y-15721412D02*
X16199230Y-15549984D01*
X16332563Y-15749984D02*
X16313515Y-15740460D01*
X16313515Y-15740460D02*
X16303992Y-15730936D01*
X16303992Y-15730936D02*
X16294468Y-15711888D01*
X16294468Y-15711888D02*
X16294468Y-15654746D01*
X16294468Y-15654746D02*
X16303992Y-15635698D01*
X16303992Y-15635698D02*
X16313515Y-15626174D01*
X16313515Y-15626174D02*
X16332563Y-15616650D01*
X16332563Y-15616650D02*
X16361135Y-15616650D01*
X16361135Y-15616650D02*
X16380182Y-15626174D01*
X16380182Y-15626174D02*
X16389706Y-15635698D01*
X16389706Y-15635698D02*
X16399230Y-15654746D01*
X16399230Y-15654746D02*
X16399230Y-15711888D01*
X16399230Y-15711888D02*
X16389706Y-15730936D01*
X16389706Y-15730936D02*
X16380182Y-15740460D01*
X16380182Y-15740460D02*
X16361135Y-15749984D01*
X16361135Y-15749984D02*
X16332563Y-15749984D01*
X16456373Y-15616650D02*
X16532563Y-15616650D01*
X16484944Y-15549984D02*
X16484944Y-15721412D01*
X16484944Y-15721412D02*
X16494468Y-15740460D01*
X16494468Y-15740460D02*
X16513515Y-15749984D01*
X16513515Y-15749984D02*
X16532563Y-15749984D01*
X16589706Y-15740460D02*
X16608754Y-15749984D01*
X16608754Y-15749984D02*
X16646849Y-15749984D01*
X16646849Y-15749984D02*
X16665896Y-15740460D01*
X16665896Y-15740460D02*
X16675420Y-15721412D01*
X16675420Y-15721412D02*
X16675420Y-15711888D01*
X16675420Y-15711888D02*
X16665896Y-15692841D01*
X16665896Y-15692841D02*
X16646849Y-15683317D01*
X16646849Y-15683317D02*
X16618277Y-15683317D01*
X16618277Y-15683317D02*
X16599230Y-15673793D01*
X16599230Y-15673793D02*
X16589706Y-15654746D01*
X16589706Y-15654746D02*
X16589706Y-15645222D01*
X16589706Y-15645222D02*
X16599230Y-15626174D01*
X16599230Y-15626174D02*
X16618277Y-15616650D01*
X16618277Y-15616650D02*
X16646849Y-15616650D01*
X16646849Y-15616650D02*
X16665896Y-15626174D01*
X16742087Y-15826174D02*
X16751611Y-15816650D01*
X16751611Y-15816650D02*
X16770658Y-15788079D01*
X16770658Y-15788079D02*
X16780182Y-15769031D01*
X16780182Y-15769031D02*
X16789706Y-15740460D01*
X16789706Y-15740460D02*
X16799230Y-15692841D01*
X16799230Y-15692841D02*
X16799230Y-15654746D01*
X16799230Y-15654746D02*
X16789706Y-15607127D01*
X16789706Y-15607127D02*
X16780182Y-15578555D01*
X16780182Y-15578555D02*
X16770658Y-15559508D01*
X16770658Y-15559508D02*
X16751611Y-15530936D01*
X16751611Y-15530936D02*
X16742087Y-15521412D01*
D12*
X10125000Y-15955000D02*
X10157500Y-15922500D01*
X10125000Y-15890000D01*
X10092500Y-15922500D01*
X10125000Y-15955000D01*
D11*
X10456372Y-15813984D02*
X10475420Y-15813984D01*
X10475420Y-15813984D02*
X10494467Y-15823508D01*
X10494467Y-15823508D02*
X10503991Y-15833031D01*
X10503991Y-15833031D02*
X10513515Y-15852079D01*
X10513515Y-15852079D02*
X10523039Y-15890174D01*
X10523039Y-15890174D02*
X10523039Y-15937793D01*
X10523039Y-15937793D02*
X10513515Y-15975888D01*
X10513515Y-15975888D02*
X10503991Y-15994936D01*
X10503991Y-15994936D02*
X10494467Y-16004460D01*
X10494467Y-16004460D02*
X10475420Y-16013984D01*
X10475420Y-16013984D02*
X10456372Y-16013984D01*
X10456372Y-16013984D02*
X10437324Y-16004460D01*
X10437324Y-16004460D02*
X10427801Y-15994936D01*
X10427801Y-15994936D02*
X10418277Y-15975888D01*
X10418277Y-15975888D02*
X10408753Y-15937793D01*
X10408753Y-15937793D02*
X10408753Y-15890174D01*
X10408753Y-15890174D02*
X10418277Y-15852079D01*
X10418277Y-15852079D02*
X10427801Y-15833031D01*
X10427801Y-15833031D02*
X10437324Y-15823508D01*
X10437324Y-15823508D02*
X10456372Y-15813984D01*
X10608753Y-15994936D02*
X10618277Y-16004460D01*
X10618277Y-16004460D02*
X10608753Y-16013984D01*
X10608753Y-16013984D02*
X10599229Y-16004460D01*
X10599229Y-16004460D02*
X10608753Y-15994936D01*
X10608753Y-15994936D02*
X10608753Y-16013984D01*
X10789705Y-15813984D02*
X10751610Y-15813984D01*
X10751610Y-15813984D02*
X10732563Y-15823508D01*
X10732563Y-15823508D02*
X10723039Y-15833031D01*
X10723039Y-15833031D02*
X10703991Y-15861603D01*
X10703991Y-15861603D02*
X10694467Y-15899698D01*
X10694467Y-15899698D02*
X10694467Y-15975888D01*
X10694467Y-15975888D02*
X10703991Y-15994936D01*
X10703991Y-15994936D02*
X10713515Y-16004460D01*
X10713515Y-16004460D02*
X10732563Y-16013984D01*
X10732563Y-16013984D02*
X10770658Y-16013984D01*
X10770658Y-16013984D02*
X10789705Y-16004460D01*
X10789705Y-16004460D02*
X10799229Y-15994936D01*
X10799229Y-15994936D02*
X10808753Y-15975888D01*
X10808753Y-15975888D02*
X10808753Y-15928269D01*
X10808753Y-15928269D02*
X10799229Y-15909222D01*
X10799229Y-15909222D02*
X10789705Y-15899698D01*
X10789705Y-15899698D02*
X10770658Y-15890174D01*
X10770658Y-15890174D02*
X10732563Y-15890174D01*
X10732563Y-15890174D02*
X10713515Y-15899698D01*
X10713515Y-15899698D02*
X10703991Y-15909222D01*
X10703991Y-15909222D02*
X10694467Y-15928269D01*
X10989705Y-15813984D02*
X10894467Y-15813984D01*
X10894467Y-15813984D02*
X10884944Y-15909222D01*
X10884944Y-15909222D02*
X10894467Y-15899698D01*
X10894467Y-15899698D02*
X10913515Y-15890174D01*
X10913515Y-15890174D02*
X10961134Y-15890174D01*
X10961134Y-15890174D02*
X10980182Y-15899698D01*
X10980182Y-15899698D02*
X10989705Y-15909222D01*
X10989705Y-15909222D02*
X10999229Y-15928269D01*
X10999229Y-15928269D02*
X10999229Y-15975888D01*
X10999229Y-15975888D02*
X10989705Y-15994936D01*
X10989705Y-15994936D02*
X10980182Y-16004460D01*
X10980182Y-16004460D02*
X10961134Y-16013984D01*
X10961134Y-16013984D02*
X10913515Y-16013984D01*
X10913515Y-16013984D02*
X10894467Y-16004460D01*
X10894467Y-16004460D02*
X10884944Y-15994936D01*
X11123039Y-15813984D02*
X11142086Y-15813984D01*
X11142086Y-15813984D02*
X11161134Y-15823508D01*
X11161134Y-15823508D02*
X11170658Y-15833031D01*
X11170658Y-15833031D02*
X11180182Y-15852079D01*
X11180182Y-15852079D02*
X11189705Y-15890174D01*
X11189705Y-15890174D02*
X11189705Y-15937793D01*
X11189705Y-15937793D02*
X11180182Y-15975888D01*
X11180182Y-15975888D02*
X11170658Y-15994936D01*
X11170658Y-15994936D02*
X11161134Y-16004460D01*
X11161134Y-16004460D02*
X11142086Y-16013984D01*
X11142086Y-16013984D02*
X11123039Y-16013984D01*
X11123039Y-16013984D02*
X11103991Y-16004460D01*
X11103991Y-16004460D02*
X11094467Y-15994936D01*
X11094467Y-15994936D02*
X11084944Y-15975888D01*
X11084944Y-15975888D02*
X11075420Y-15937793D01*
X11075420Y-15937793D02*
X11075420Y-15890174D01*
X11075420Y-15890174D02*
X11084944Y-15852079D01*
X11084944Y-15852079D02*
X11094467Y-15833031D01*
X11094467Y-15833031D02*
X11103991Y-15823508D01*
X11103991Y-15823508D02*
X11123039Y-15813984D01*
X11275420Y-16013984D02*
X11275420Y-15880650D01*
X11275420Y-15899698D02*
X11284943Y-15890174D01*
X11284943Y-15890174D02*
X11303991Y-15880650D01*
X11303991Y-15880650D02*
X11332563Y-15880650D01*
X11332563Y-15880650D02*
X11351610Y-15890174D01*
X11351610Y-15890174D02*
X11361134Y-15909222D01*
X11361134Y-15909222D02*
X11361134Y-16013984D01*
X11361134Y-15909222D02*
X11370658Y-15890174D01*
X11370658Y-15890174D02*
X11389705Y-15880650D01*
X11389705Y-15880650D02*
X11418277Y-15880650D01*
X11418277Y-15880650D02*
X11437324Y-15890174D01*
X11437324Y-15890174D02*
X11446848Y-15909222D01*
X11446848Y-15909222D02*
X11446848Y-16013984D01*
X11542086Y-16013984D02*
X11542086Y-15880650D01*
X11542086Y-15899698D02*
X11551610Y-15890174D01*
X11551610Y-15890174D02*
X11570658Y-15880650D01*
X11570658Y-15880650D02*
X11599229Y-15880650D01*
X11599229Y-15880650D02*
X11618277Y-15890174D01*
X11618277Y-15890174D02*
X11627801Y-15909222D01*
X11627801Y-15909222D02*
X11627801Y-16013984D01*
X11627801Y-15909222D02*
X11637324Y-15890174D01*
X11637324Y-15890174D02*
X11656372Y-15880650D01*
X11656372Y-15880650D02*
X11684943Y-15880650D01*
X11684943Y-15880650D02*
X11703991Y-15890174D01*
X11703991Y-15890174D02*
X11713515Y-15909222D01*
X11713515Y-15909222D02*
X11713515Y-16013984D01*
X12103991Y-15804460D02*
X11932563Y-16061603D01*
X12361134Y-15813984D02*
X12380182Y-15813984D01*
X12380182Y-15813984D02*
X12399229Y-15823508D01*
X12399229Y-15823508D02*
X12408753Y-15833031D01*
X12408753Y-15833031D02*
X12418277Y-15852079D01*
X12418277Y-15852079D02*
X12427801Y-15890174D01*
X12427801Y-15890174D02*
X12427801Y-15937793D01*
X12427801Y-15937793D02*
X12418277Y-15975888D01*
X12418277Y-15975888D02*
X12408753Y-15994936D01*
X12408753Y-15994936D02*
X12399229Y-16004460D01*
X12399229Y-16004460D02*
X12380182Y-16013984D01*
X12380182Y-16013984D02*
X12361134Y-16013984D01*
X12361134Y-16013984D02*
X12342086Y-16004460D01*
X12342086Y-16004460D02*
X12332563Y-15994936D01*
X12332563Y-15994936D02*
X12323039Y-15975888D01*
X12323039Y-15975888D02*
X12313515Y-15937793D01*
X12313515Y-15937793D02*
X12313515Y-15890174D01*
X12313515Y-15890174D02*
X12323039Y-15852079D01*
X12323039Y-15852079D02*
X12332563Y-15833031D01*
X12332563Y-15833031D02*
X12342086Y-15823508D01*
X12342086Y-15823508D02*
X12361134Y-15813984D01*
X12513515Y-15994936D02*
X12523039Y-16004460D01*
X12523039Y-16004460D02*
X12513515Y-16013984D01*
X12513515Y-16013984D02*
X12503991Y-16004460D01*
X12503991Y-16004460D02*
X12513515Y-15994936D01*
X12513515Y-15994936D02*
X12513515Y-16013984D01*
X12646848Y-15813984D02*
X12665896Y-15813984D01*
X12665896Y-15813984D02*
X12684944Y-15823508D01*
X12684944Y-15823508D02*
X12694467Y-15833031D01*
X12694467Y-15833031D02*
X12703991Y-15852079D01*
X12703991Y-15852079D02*
X12713515Y-15890174D01*
X12713515Y-15890174D02*
X12713515Y-15937793D01*
X12713515Y-15937793D02*
X12703991Y-15975888D01*
X12703991Y-15975888D02*
X12694467Y-15994936D01*
X12694467Y-15994936D02*
X12684944Y-16004460D01*
X12684944Y-16004460D02*
X12665896Y-16013984D01*
X12665896Y-16013984D02*
X12646848Y-16013984D01*
X12646848Y-16013984D02*
X12627801Y-16004460D01*
X12627801Y-16004460D02*
X12618277Y-15994936D01*
X12618277Y-15994936D02*
X12608753Y-15975888D01*
X12608753Y-15975888D02*
X12599229Y-15937793D01*
X12599229Y-15937793D02*
X12599229Y-15890174D01*
X12599229Y-15890174D02*
X12608753Y-15852079D01*
X12608753Y-15852079D02*
X12618277Y-15833031D01*
X12618277Y-15833031D02*
X12627801Y-15823508D01*
X12627801Y-15823508D02*
X12646848Y-15813984D01*
X12789706Y-15833031D02*
X12799229Y-15823508D01*
X12799229Y-15823508D02*
X12818277Y-15813984D01*
X12818277Y-15813984D02*
X12865896Y-15813984D01*
X12865896Y-15813984D02*
X12884944Y-15823508D01*
X12884944Y-15823508D02*
X12894467Y-15833031D01*
X12894467Y-15833031D02*
X12903991Y-15852079D01*
X12903991Y-15852079D02*
X12903991Y-15871127D01*
X12903991Y-15871127D02*
X12894467Y-15899698D01*
X12894467Y-15899698D02*
X12780182Y-16013984D01*
X12780182Y-16013984D02*
X12903991Y-16013984D01*
X13084944Y-15813984D02*
X12989706Y-15813984D01*
X12989706Y-15813984D02*
X12980182Y-15909222D01*
X12980182Y-15909222D02*
X12989706Y-15899698D01*
X12989706Y-15899698D02*
X13008753Y-15890174D01*
X13008753Y-15890174D02*
X13056372Y-15890174D01*
X13056372Y-15890174D02*
X13075420Y-15899698D01*
X13075420Y-15899698D02*
X13084944Y-15909222D01*
X13084944Y-15909222D02*
X13094467Y-15928269D01*
X13094467Y-15928269D02*
X13094467Y-15975888D01*
X13094467Y-15975888D02*
X13084944Y-15994936D01*
X13084944Y-15994936D02*
X13075420Y-16004460D01*
X13075420Y-16004460D02*
X13056372Y-16013984D01*
X13056372Y-16013984D02*
X13008753Y-16013984D01*
X13008753Y-16013984D02*
X12989706Y-16004460D01*
X12989706Y-16004460D02*
X12980182Y-15994936D01*
X13265896Y-15813984D02*
X13227801Y-15813984D01*
X13227801Y-15813984D02*
X13208753Y-15823508D01*
X13208753Y-15823508D02*
X13199229Y-15833031D01*
X13199229Y-15833031D02*
X13180182Y-15861603D01*
X13180182Y-15861603D02*
X13170658Y-15899698D01*
X13170658Y-15899698D02*
X13170658Y-15975888D01*
X13170658Y-15975888D02*
X13180182Y-15994936D01*
X13180182Y-15994936D02*
X13189706Y-16004460D01*
X13189706Y-16004460D02*
X13208753Y-16013984D01*
X13208753Y-16013984D02*
X13246848Y-16013984D01*
X13246848Y-16013984D02*
X13265896Y-16004460D01*
X13265896Y-16004460D02*
X13275420Y-15994936D01*
X13275420Y-15994936D02*
X13284944Y-15975888D01*
X13284944Y-15975888D02*
X13284944Y-15928269D01*
X13284944Y-15928269D02*
X13275420Y-15909222D01*
X13275420Y-15909222D02*
X13265896Y-15899698D01*
X13265896Y-15899698D02*
X13246848Y-15890174D01*
X13246848Y-15890174D02*
X13208753Y-15890174D01*
X13208753Y-15890174D02*
X13189706Y-15899698D01*
X13189706Y-15899698D02*
X13180182Y-15909222D01*
X13180182Y-15909222D02*
X13170658Y-15928269D01*
X13361134Y-15813984D02*
X13361134Y-15852079D01*
X13437325Y-15813984D02*
X13437325Y-15852079D01*
X13732563Y-16090174D02*
X13723039Y-16080650D01*
X13723039Y-16080650D02*
X13703991Y-16052079D01*
X13703991Y-16052079D02*
X13694468Y-16033031D01*
X13694468Y-16033031D02*
X13684944Y-16004460D01*
X13684944Y-16004460D02*
X13675420Y-15956841D01*
X13675420Y-15956841D02*
X13675420Y-15918746D01*
X13675420Y-15918746D02*
X13684944Y-15871127D01*
X13684944Y-15871127D02*
X13694468Y-15842555D01*
X13694468Y-15842555D02*
X13703991Y-15823508D01*
X13703991Y-15823508D02*
X13723039Y-15794936D01*
X13723039Y-15794936D02*
X13732563Y-15785412D01*
X13846848Y-15813984D02*
X13865896Y-15813984D01*
X13865896Y-15813984D02*
X13884944Y-15823508D01*
X13884944Y-15823508D02*
X13894468Y-15833031D01*
X13894468Y-15833031D02*
X13903991Y-15852079D01*
X13903991Y-15852079D02*
X13913515Y-15890174D01*
X13913515Y-15890174D02*
X13913515Y-15937793D01*
X13913515Y-15937793D02*
X13903991Y-15975888D01*
X13903991Y-15975888D02*
X13894468Y-15994936D01*
X13894468Y-15994936D02*
X13884944Y-16004460D01*
X13884944Y-16004460D02*
X13865896Y-16013984D01*
X13865896Y-16013984D02*
X13846848Y-16013984D01*
X13846848Y-16013984D02*
X13827801Y-16004460D01*
X13827801Y-16004460D02*
X13818277Y-15994936D01*
X13818277Y-15994936D02*
X13808753Y-15975888D01*
X13808753Y-15975888D02*
X13799229Y-15937793D01*
X13799229Y-15937793D02*
X13799229Y-15890174D01*
X13799229Y-15890174D02*
X13808753Y-15852079D01*
X13808753Y-15852079D02*
X13818277Y-15833031D01*
X13818277Y-15833031D02*
X13827801Y-15823508D01*
X13827801Y-15823508D02*
X13846848Y-15813984D01*
X14151610Y-16013984D02*
X14151610Y-15813984D01*
X14237325Y-16013984D02*
X14237325Y-15909222D01*
X14237325Y-15909222D02*
X14227801Y-15890174D01*
X14227801Y-15890174D02*
X14208753Y-15880650D01*
X14208753Y-15880650D02*
X14180182Y-15880650D01*
X14180182Y-15880650D02*
X14161134Y-15890174D01*
X14161134Y-15890174D02*
X14151610Y-15899698D01*
X14361134Y-16013984D02*
X14342087Y-16004460D01*
X14342087Y-16004460D02*
X14332563Y-15994936D01*
X14332563Y-15994936D02*
X14323039Y-15975888D01*
X14323039Y-15975888D02*
X14323039Y-15918746D01*
X14323039Y-15918746D02*
X14332563Y-15899698D01*
X14332563Y-15899698D02*
X14342087Y-15890174D01*
X14342087Y-15890174D02*
X14361134Y-15880650D01*
X14361134Y-15880650D02*
X14389706Y-15880650D01*
X14389706Y-15880650D02*
X14408753Y-15890174D01*
X14408753Y-15890174D02*
X14418277Y-15899698D01*
X14418277Y-15899698D02*
X14427801Y-15918746D01*
X14427801Y-15918746D02*
X14427801Y-15975888D01*
X14427801Y-15975888D02*
X14418277Y-15994936D01*
X14418277Y-15994936D02*
X14408753Y-16004460D01*
X14408753Y-16004460D02*
X14389706Y-16013984D01*
X14389706Y-16013984D02*
X14361134Y-16013984D01*
X14542087Y-16013984D02*
X14523039Y-16004460D01*
X14523039Y-16004460D02*
X14513515Y-15985412D01*
X14513515Y-15985412D02*
X14513515Y-15813984D01*
X14694468Y-16004460D02*
X14675420Y-16013984D01*
X14675420Y-16013984D02*
X14637325Y-16013984D01*
X14637325Y-16013984D02*
X14618277Y-16004460D01*
X14618277Y-16004460D02*
X14608753Y-15985412D01*
X14608753Y-15985412D02*
X14608753Y-15909222D01*
X14608753Y-15909222D02*
X14618277Y-15890174D01*
X14618277Y-15890174D02*
X14637325Y-15880650D01*
X14637325Y-15880650D02*
X14675420Y-15880650D01*
X14675420Y-15880650D02*
X14694468Y-15890174D01*
X14694468Y-15890174D02*
X14703991Y-15909222D01*
X14703991Y-15909222D02*
X14703991Y-15928269D01*
X14703991Y-15928269D02*
X14608753Y-15947317D01*
X14780182Y-16004460D02*
X14799230Y-16013984D01*
X14799230Y-16013984D02*
X14837325Y-16013984D01*
X14837325Y-16013984D02*
X14856372Y-16004460D01*
X14856372Y-16004460D02*
X14865896Y-15985412D01*
X14865896Y-15985412D02*
X14865896Y-15975888D01*
X14865896Y-15975888D02*
X14856372Y-15956841D01*
X14856372Y-15956841D02*
X14837325Y-15947317D01*
X14837325Y-15947317D02*
X14808753Y-15947317D01*
X14808753Y-15947317D02*
X14789706Y-15937793D01*
X14789706Y-15937793D02*
X14780182Y-15918746D01*
X14780182Y-15918746D02*
X14780182Y-15909222D01*
X14780182Y-15909222D02*
X14789706Y-15890174D01*
X14789706Y-15890174D02*
X14808753Y-15880650D01*
X14808753Y-15880650D02*
X14837325Y-15880650D01*
X14837325Y-15880650D02*
X14856372Y-15890174D01*
X15103992Y-15937793D02*
X15256373Y-15937793D01*
X15180182Y-16013984D02*
X15180182Y-15861603D01*
X15494468Y-15833031D02*
X15503992Y-15823508D01*
X15503992Y-15823508D02*
X15523039Y-15813984D01*
X15523039Y-15813984D02*
X15570658Y-15813984D01*
X15570658Y-15813984D02*
X15589706Y-15823508D01*
X15589706Y-15823508D02*
X15599230Y-15833031D01*
X15599230Y-15833031D02*
X15608753Y-15852079D01*
X15608753Y-15852079D02*
X15608753Y-15871127D01*
X15608753Y-15871127D02*
X15599230Y-15899698D01*
X15599230Y-15899698D02*
X15484944Y-16013984D01*
X15484944Y-16013984D02*
X15608753Y-16013984D01*
X15837325Y-16004460D02*
X15856373Y-16013984D01*
X15856373Y-16013984D02*
X15894468Y-16013984D01*
X15894468Y-16013984D02*
X15913515Y-16004460D01*
X15913515Y-16004460D02*
X15923039Y-15985412D01*
X15923039Y-15985412D02*
X15923039Y-15975888D01*
X15923039Y-15975888D02*
X15913515Y-15956841D01*
X15913515Y-15956841D02*
X15894468Y-15947317D01*
X15894468Y-15947317D02*
X15865896Y-15947317D01*
X15865896Y-15947317D02*
X15846849Y-15937793D01*
X15846849Y-15937793D02*
X15837325Y-15918746D01*
X15837325Y-15918746D02*
X15837325Y-15909222D01*
X15837325Y-15909222D02*
X15846849Y-15890174D01*
X15846849Y-15890174D02*
X15865896Y-15880650D01*
X15865896Y-15880650D02*
X15894468Y-15880650D01*
X15894468Y-15880650D02*
X15913515Y-15890174D01*
X16037325Y-16013984D02*
X16018277Y-16004460D01*
X16018277Y-16004460D02*
X16008754Y-15985412D01*
X16008754Y-15985412D02*
X16008754Y-15813984D01*
X16142087Y-16013984D02*
X16123039Y-16004460D01*
X16123039Y-16004460D02*
X16113515Y-15994936D01*
X16113515Y-15994936D02*
X16103992Y-15975888D01*
X16103992Y-15975888D02*
X16103992Y-15918746D01*
X16103992Y-15918746D02*
X16113515Y-15899698D01*
X16113515Y-15899698D02*
X16123039Y-15890174D01*
X16123039Y-15890174D02*
X16142087Y-15880650D01*
X16142087Y-15880650D02*
X16170658Y-15880650D01*
X16170658Y-15880650D02*
X16189706Y-15890174D01*
X16189706Y-15890174D02*
X16199230Y-15899698D01*
X16199230Y-15899698D02*
X16208754Y-15918746D01*
X16208754Y-15918746D02*
X16208754Y-15975888D01*
X16208754Y-15975888D02*
X16199230Y-15994936D01*
X16199230Y-15994936D02*
X16189706Y-16004460D01*
X16189706Y-16004460D02*
X16170658Y-16013984D01*
X16170658Y-16013984D02*
X16142087Y-16013984D01*
X16265896Y-15880650D02*
X16342087Y-15880650D01*
X16294468Y-15813984D02*
X16294468Y-15985412D01*
X16294468Y-15985412D02*
X16303992Y-16004460D01*
X16303992Y-16004460D02*
X16323039Y-16013984D01*
X16323039Y-16013984D02*
X16342087Y-16013984D01*
X16399230Y-16004460D02*
X16418277Y-16013984D01*
X16418277Y-16013984D02*
X16456373Y-16013984D01*
X16456373Y-16013984D02*
X16475420Y-16004460D01*
X16475420Y-16004460D02*
X16484944Y-15985412D01*
X16484944Y-15985412D02*
X16484944Y-15975888D01*
X16484944Y-15975888D02*
X16475420Y-15956841D01*
X16475420Y-15956841D02*
X16456373Y-15947317D01*
X16456373Y-15947317D02*
X16427801Y-15947317D01*
X16427801Y-15947317D02*
X16408754Y-15937793D01*
X16408754Y-15937793D02*
X16399230Y-15918746D01*
X16399230Y-15918746D02*
X16399230Y-15909222D01*
X16399230Y-15909222D02*
X16408754Y-15890174D01*
X16408754Y-15890174D02*
X16427801Y-15880650D01*
X16427801Y-15880650D02*
X16456373Y-15880650D01*
X16456373Y-15880650D02*
X16475420Y-15890174D01*
X16551611Y-16090174D02*
X16561135Y-16080650D01*
X16561135Y-16080650D02*
X16580182Y-16052079D01*
X16580182Y-16052079D02*
X16589706Y-16033031D01*
X16589706Y-16033031D02*
X16599230Y-16004460D01*
X16599230Y-16004460D02*
X16608754Y-15956841D01*
X16608754Y-15956841D02*
X16608754Y-15918746D01*
X16608754Y-15918746D02*
X16599230Y-15871127D01*
X16599230Y-15871127D02*
X16589706Y-15842555D01*
X16589706Y-15842555D02*
X16580182Y-15823508D01*
X16580182Y-15823508D02*
X16561135Y-15794936D01*
X16561135Y-15794936D02*
X16551611Y-15785412D01*
D12*
X10077500Y-16146500D02*
X10157500Y-16226500D01*
X10157500Y-16146500D02*
X10077500Y-16226500D01*
X10157500Y-16186500D02*
G75*
G02*
X10077500Y-16186500I-40000J0D01*
G01*
X10077500Y-16186500D02*
G75*
G02*
X10157500Y-16186500I40000J0D01*
G01*
D11*
X10456372Y-16077984D02*
X10475420Y-16077984D01*
X10475420Y-16077984D02*
X10494467Y-16087508D01*
X10494467Y-16087508D02*
X10503991Y-16097031D01*
X10503991Y-16097031D02*
X10513515Y-16116079D01*
X10513515Y-16116079D02*
X10523039Y-16154174D01*
X10523039Y-16154174D02*
X10523039Y-16201793D01*
X10523039Y-16201793D02*
X10513515Y-16239888D01*
X10513515Y-16239888D02*
X10503991Y-16258936D01*
X10503991Y-16258936D02*
X10494467Y-16268460D01*
X10494467Y-16268460D02*
X10475420Y-16277984D01*
X10475420Y-16277984D02*
X10456372Y-16277984D01*
X10456372Y-16277984D02*
X10437324Y-16268460D01*
X10437324Y-16268460D02*
X10427801Y-16258936D01*
X10427801Y-16258936D02*
X10418277Y-16239888D01*
X10418277Y-16239888D02*
X10408753Y-16201793D01*
X10408753Y-16201793D02*
X10408753Y-16154174D01*
X10408753Y-16154174D02*
X10418277Y-16116079D01*
X10418277Y-16116079D02*
X10427801Y-16097031D01*
X10427801Y-16097031D02*
X10437324Y-16087508D01*
X10437324Y-16087508D02*
X10456372Y-16077984D01*
X10608753Y-16258936D02*
X10618277Y-16268460D01*
X10618277Y-16268460D02*
X10608753Y-16277984D01*
X10608753Y-16277984D02*
X10599229Y-16268460D01*
X10599229Y-16268460D02*
X10608753Y-16258936D01*
X10608753Y-16258936D02*
X10608753Y-16277984D01*
X10732563Y-16163698D02*
X10713515Y-16154174D01*
X10713515Y-16154174D02*
X10703991Y-16144650D01*
X10703991Y-16144650D02*
X10694467Y-16125603D01*
X10694467Y-16125603D02*
X10694467Y-16116079D01*
X10694467Y-16116079D02*
X10703991Y-16097031D01*
X10703991Y-16097031D02*
X10713515Y-16087508D01*
X10713515Y-16087508D02*
X10732563Y-16077984D01*
X10732563Y-16077984D02*
X10770658Y-16077984D01*
X10770658Y-16077984D02*
X10789705Y-16087508D01*
X10789705Y-16087508D02*
X10799229Y-16097031D01*
X10799229Y-16097031D02*
X10808753Y-16116079D01*
X10808753Y-16116079D02*
X10808753Y-16125603D01*
X10808753Y-16125603D02*
X10799229Y-16144650D01*
X10799229Y-16144650D02*
X10789705Y-16154174D01*
X10789705Y-16154174D02*
X10770658Y-16163698D01*
X10770658Y-16163698D02*
X10732563Y-16163698D01*
X10732563Y-16163698D02*
X10713515Y-16173222D01*
X10713515Y-16173222D02*
X10703991Y-16182746D01*
X10703991Y-16182746D02*
X10694467Y-16201793D01*
X10694467Y-16201793D02*
X10694467Y-16239888D01*
X10694467Y-16239888D02*
X10703991Y-16258936D01*
X10703991Y-16258936D02*
X10713515Y-16268460D01*
X10713515Y-16268460D02*
X10732563Y-16277984D01*
X10732563Y-16277984D02*
X10770658Y-16277984D01*
X10770658Y-16277984D02*
X10789705Y-16268460D01*
X10789705Y-16268460D02*
X10799229Y-16258936D01*
X10799229Y-16258936D02*
X10808753Y-16239888D01*
X10808753Y-16239888D02*
X10808753Y-16201793D01*
X10808753Y-16201793D02*
X10799229Y-16182746D01*
X10799229Y-16182746D02*
X10789705Y-16173222D01*
X10789705Y-16173222D02*
X10770658Y-16163698D01*
X10932563Y-16077984D02*
X10951610Y-16077984D01*
X10951610Y-16077984D02*
X10970658Y-16087508D01*
X10970658Y-16087508D02*
X10980182Y-16097031D01*
X10980182Y-16097031D02*
X10989705Y-16116079D01*
X10989705Y-16116079D02*
X10999229Y-16154174D01*
X10999229Y-16154174D02*
X10999229Y-16201793D01*
X10999229Y-16201793D02*
X10989705Y-16239888D01*
X10989705Y-16239888D02*
X10980182Y-16258936D01*
X10980182Y-16258936D02*
X10970658Y-16268460D01*
X10970658Y-16268460D02*
X10951610Y-16277984D01*
X10951610Y-16277984D02*
X10932563Y-16277984D01*
X10932563Y-16277984D02*
X10913515Y-16268460D01*
X10913515Y-16268460D02*
X10903991Y-16258936D01*
X10903991Y-16258936D02*
X10894467Y-16239888D01*
X10894467Y-16239888D02*
X10884944Y-16201793D01*
X10884944Y-16201793D02*
X10884944Y-16154174D01*
X10884944Y-16154174D02*
X10894467Y-16116079D01*
X10894467Y-16116079D02*
X10903991Y-16097031D01*
X10903991Y-16097031D02*
X10913515Y-16087508D01*
X10913515Y-16087508D02*
X10932563Y-16077984D01*
X11123039Y-16077984D02*
X11142086Y-16077984D01*
X11142086Y-16077984D02*
X11161134Y-16087508D01*
X11161134Y-16087508D02*
X11170658Y-16097031D01*
X11170658Y-16097031D02*
X11180182Y-16116079D01*
X11180182Y-16116079D02*
X11189705Y-16154174D01*
X11189705Y-16154174D02*
X11189705Y-16201793D01*
X11189705Y-16201793D02*
X11180182Y-16239888D01*
X11180182Y-16239888D02*
X11170658Y-16258936D01*
X11170658Y-16258936D02*
X11161134Y-16268460D01*
X11161134Y-16268460D02*
X11142086Y-16277984D01*
X11142086Y-16277984D02*
X11123039Y-16277984D01*
X11123039Y-16277984D02*
X11103991Y-16268460D01*
X11103991Y-16268460D02*
X11094467Y-16258936D01*
X11094467Y-16258936D02*
X11084944Y-16239888D01*
X11084944Y-16239888D02*
X11075420Y-16201793D01*
X11075420Y-16201793D02*
X11075420Y-16154174D01*
X11075420Y-16154174D02*
X11084944Y-16116079D01*
X11084944Y-16116079D02*
X11094467Y-16097031D01*
X11094467Y-16097031D02*
X11103991Y-16087508D01*
X11103991Y-16087508D02*
X11123039Y-16077984D01*
X11275420Y-16277984D02*
X11275420Y-16144650D01*
X11275420Y-16163698D02*
X11284943Y-16154174D01*
X11284943Y-16154174D02*
X11303991Y-16144650D01*
X11303991Y-16144650D02*
X11332563Y-16144650D01*
X11332563Y-16144650D02*
X11351610Y-16154174D01*
X11351610Y-16154174D02*
X11361134Y-16173222D01*
X11361134Y-16173222D02*
X11361134Y-16277984D01*
X11361134Y-16173222D02*
X11370658Y-16154174D01*
X11370658Y-16154174D02*
X11389705Y-16144650D01*
X11389705Y-16144650D02*
X11418277Y-16144650D01*
X11418277Y-16144650D02*
X11437324Y-16154174D01*
X11437324Y-16154174D02*
X11446848Y-16173222D01*
X11446848Y-16173222D02*
X11446848Y-16277984D01*
X11542086Y-16277984D02*
X11542086Y-16144650D01*
X11542086Y-16163698D02*
X11551610Y-16154174D01*
X11551610Y-16154174D02*
X11570658Y-16144650D01*
X11570658Y-16144650D02*
X11599229Y-16144650D01*
X11599229Y-16144650D02*
X11618277Y-16154174D01*
X11618277Y-16154174D02*
X11627801Y-16173222D01*
X11627801Y-16173222D02*
X11627801Y-16277984D01*
X11627801Y-16173222D02*
X11637324Y-16154174D01*
X11637324Y-16154174D02*
X11656372Y-16144650D01*
X11656372Y-16144650D02*
X11684943Y-16144650D01*
X11684943Y-16144650D02*
X11703991Y-16154174D01*
X11703991Y-16154174D02*
X11713515Y-16173222D01*
X11713515Y-16173222D02*
X11713515Y-16277984D01*
X12103991Y-16068460D02*
X11932563Y-16325603D01*
X12361134Y-16077984D02*
X12380182Y-16077984D01*
X12380182Y-16077984D02*
X12399229Y-16087508D01*
X12399229Y-16087508D02*
X12408753Y-16097031D01*
X12408753Y-16097031D02*
X12418277Y-16116079D01*
X12418277Y-16116079D02*
X12427801Y-16154174D01*
X12427801Y-16154174D02*
X12427801Y-16201793D01*
X12427801Y-16201793D02*
X12418277Y-16239888D01*
X12418277Y-16239888D02*
X12408753Y-16258936D01*
X12408753Y-16258936D02*
X12399229Y-16268460D01*
X12399229Y-16268460D02*
X12380182Y-16277984D01*
X12380182Y-16277984D02*
X12361134Y-16277984D01*
X12361134Y-16277984D02*
X12342086Y-16268460D01*
X12342086Y-16268460D02*
X12332563Y-16258936D01*
X12332563Y-16258936D02*
X12323039Y-16239888D01*
X12323039Y-16239888D02*
X12313515Y-16201793D01*
X12313515Y-16201793D02*
X12313515Y-16154174D01*
X12313515Y-16154174D02*
X12323039Y-16116079D01*
X12323039Y-16116079D02*
X12332563Y-16097031D01*
X12332563Y-16097031D02*
X12342086Y-16087508D01*
X12342086Y-16087508D02*
X12361134Y-16077984D01*
X12513515Y-16258936D02*
X12523039Y-16268460D01*
X12523039Y-16268460D02*
X12513515Y-16277984D01*
X12513515Y-16277984D02*
X12503991Y-16268460D01*
X12503991Y-16268460D02*
X12513515Y-16258936D01*
X12513515Y-16258936D02*
X12513515Y-16277984D01*
X12646848Y-16077984D02*
X12665896Y-16077984D01*
X12665896Y-16077984D02*
X12684944Y-16087508D01*
X12684944Y-16087508D02*
X12694467Y-16097031D01*
X12694467Y-16097031D02*
X12703991Y-16116079D01*
X12703991Y-16116079D02*
X12713515Y-16154174D01*
X12713515Y-16154174D02*
X12713515Y-16201793D01*
X12713515Y-16201793D02*
X12703991Y-16239888D01*
X12703991Y-16239888D02*
X12694467Y-16258936D01*
X12694467Y-16258936D02*
X12684944Y-16268460D01*
X12684944Y-16268460D02*
X12665896Y-16277984D01*
X12665896Y-16277984D02*
X12646848Y-16277984D01*
X12646848Y-16277984D02*
X12627801Y-16268460D01*
X12627801Y-16268460D02*
X12618277Y-16258936D01*
X12618277Y-16258936D02*
X12608753Y-16239888D01*
X12608753Y-16239888D02*
X12599229Y-16201793D01*
X12599229Y-16201793D02*
X12599229Y-16154174D01*
X12599229Y-16154174D02*
X12608753Y-16116079D01*
X12608753Y-16116079D02*
X12618277Y-16097031D01*
X12618277Y-16097031D02*
X12627801Y-16087508D01*
X12627801Y-16087508D02*
X12646848Y-16077984D01*
X12780182Y-16077984D02*
X12903991Y-16077984D01*
X12903991Y-16077984D02*
X12837325Y-16154174D01*
X12837325Y-16154174D02*
X12865896Y-16154174D01*
X12865896Y-16154174D02*
X12884944Y-16163698D01*
X12884944Y-16163698D02*
X12894467Y-16173222D01*
X12894467Y-16173222D02*
X12903991Y-16192269D01*
X12903991Y-16192269D02*
X12903991Y-16239888D01*
X12903991Y-16239888D02*
X12894467Y-16258936D01*
X12894467Y-16258936D02*
X12884944Y-16268460D01*
X12884944Y-16268460D02*
X12865896Y-16277984D01*
X12865896Y-16277984D02*
X12808753Y-16277984D01*
X12808753Y-16277984D02*
X12789706Y-16268460D01*
X12789706Y-16268460D02*
X12780182Y-16258936D01*
X13094467Y-16277984D02*
X12980182Y-16277984D01*
X13037325Y-16277984D02*
X13037325Y-16077984D01*
X13037325Y-16077984D02*
X13018277Y-16106555D01*
X13018277Y-16106555D02*
X12999229Y-16125603D01*
X12999229Y-16125603D02*
X12980182Y-16135127D01*
X13275420Y-16077984D02*
X13180182Y-16077984D01*
X13180182Y-16077984D02*
X13170658Y-16173222D01*
X13170658Y-16173222D02*
X13180182Y-16163698D01*
X13180182Y-16163698D02*
X13199229Y-16154174D01*
X13199229Y-16154174D02*
X13246848Y-16154174D01*
X13246848Y-16154174D02*
X13265896Y-16163698D01*
X13265896Y-16163698D02*
X13275420Y-16173222D01*
X13275420Y-16173222D02*
X13284944Y-16192269D01*
X13284944Y-16192269D02*
X13284944Y-16239888D01*
X13284944Y-16239888D02*
X13275420Y-16258936D01*
X13275420Y-16258936D02*
X13265896Y-16268460D01*
X13265896Y-16268460D02*
X13246848Y-16277984D01*
X13246848Y-16277984D02*
X13199229Y-16277984D01*
X13199229Y-16277984D02*
X13180182Y-16268460D01*
X13180182Y-16268460D02*
X13170658Y-16258936D01*
X13361134Y-16077984D02*
X13361134Y-16116079D01*
X13437325Y-16077984D02*
X13437325Y-16116079D01*
X13732563Y-16354174D02*
X13723039Y-16344650D01*
X13723039Y-16344650D02*
X13703991Y-16316079D01*
X13703991Y-16316079D02*
X13694468Y-16297031D01*
X13694468Y-16297031D02*
X13684944Y-16268460D01*
X13684944Y-16268460D02*
X13675420Y-16220841D01*
X13675420Y-16220841D02*
X13675420Y-16182746D01*
X13675420Y-16182746D02*
X13684944Y-16135127D01*
X13684944Y-16135127D02*
X13694468Y-16106555D01*
X13694468Y-16106555D02*
X13703991Y-16087508D01*
X13703991Y-16087508D02*
X13723039Y-16058936D01*
X13723039Y-16058936D02*
X13732563Y-16049412D01*
X13903991Y-16077984D02*
X13808753Y-16077984D01*
X13808753Y-16077984D02*
X13799229Y-16173222D01*
X13799229Y-16173222D02*
X13808753Y-16163698D01*
X13808753Y-16163698D02*
X13827801Y-16154174D01*
X13827801Y-16154174D02*
X13875420Y-16154174D01*
X13875420Y-16154174D02*
X13894468Y-16163698D01*
X13894468Y-16163698D02*
X13903991Y-16173222D01*
X13903991Y-16173222D02*
X13913515Y-16192269D01*
X13913515Y-16192269D02*
X13913515Y-16239888D01*
X13913515Y-16239888D02*
X13903991Y-16258936D01*
X13903991Y-16258936D02*
X13894468Y-16268460D01*
X13894468Y-16268460D02*
X13875420Y-16277984D01*
X13875420Y-16277984D02*
X13827801Y-16277984D01*
X13827801Y-16277984D02*
X13808753Y-16268460D01*
X13808753Y-16268460D02*
X13799229Y-16258936D01*
X14084944Y-16144650D02*
X14084944Y-16277984D01*
X14037325Y-16068460D02*
X13989706Y-16211317D01*
X13989706Y-16211317D02*
X14113515Y-16211317D01*
X14342087Y-16277984D02*
X14342087Y-16077984D01*
X14427801Y-16277984D02*
X14427801Y-16173222D01*
X14427801Y-16173222D02*
X14418277Y-16154174D01*
X14418277Y-16154174D02*
X14399230Y-16144650D01*
X14399230Y-16144650D02*
X14370658Y-16144650D01*
X14370658Y-16144650D02*
X14351610Y-16154174D01*
X14351610Y-16154174D02*
X14342087Y-16163698D01*
X14551610Y-16277984D02*
X14532563Y-16268460D01*
X14532563Y-16268460D02*
X14523039Y-16258936D01*
X14523039Y-16258936D02*
X14513515Y-16239888D01*
X14513515Y-16239888D02*
X14513515Y-16182746D01*
X14513515Y-16182746D02*
X14523039Y-16163698D01*
X14523039Y-16163698D02*
X14532563Y-16154174D01*
X14532563Y-16154174D02*
X14551610Y-16144650D01*
X14551610Y-16144650D02*
X14580182Y-16144650D01*
X14580182Y-16144650D02*
X14599230Y-16154174D01*
X14599230Y-16154174D02*
X14608753Y-16163698D01*
X14608753Y-16163698D02*
X14618277Y-16182746D01*
X14618277Y-16182746D02*
X14618277Y-16239888D01*
X14618277Y-16239888D02*
X14608753Y-16258936D01*
X14608753Y-16258936D02*
X14599230Y-16268460D01*
X14599230Y-16268460D02*
X14580182Y-16277984D01*
X14580182Y-16277984D02*
X14551610Y-16277984D01*
X14732563Y-16277984D02*
X14713515Y-16268460D01*
X14713515Y-16268460D02*
X14703991Y-16249412D01*
X14703991Y-16249412D02*
X14703991Y-16077984D01*
X14884944Y-16268460D02*
X14865896Y-16277984D01*
X14865896Y-16277984D02*
X14827801Y-16277984D01*
X14827801Y-16277984D02*
X14808753Y-16268460D01*
X14808753Y-16268460D02*
X14799230Y-16249412D01*
X14799230Y-16249412D02*
X14799230Y-16173222D01*
X14799230Y-16173222D02*
X14808753Y-16154174D01*
X14808753Y-16154174D02*
X14827801Y-16144650D01*
X14827801Y-16144650D02*
X14865896Y-16144650D01*
X14865896Y-16144650D02*
X14884944Y-16154174D01*
X14884944Y-16154174D02*
X14894468Y-16173222D01*
X14894468Y-16173222D02*
X14894468Y-16192269D01*
X14894468Y-16192269D02*
X14799230Y-16211317D01*
X14970658Y-16268460D02*
X14989706Y-16277984D01*
X14989706Y-16277984D02*
X15027801Y-16277984D01*
X15027801Y-16277984D02*
X15046849Y-16268460D01*
X15046849Y-16268460D02*
X15056372Y-16249412D01*
X15056372Y-16249412D02*
X15056372Y-16239888D01*
X15056372Y-16239888D02*
X15046849Y-16220841D01*
X15046849Y-16220841D02*
X15027801Y-16211317D01*
X15027801Y-16211317D02*
X14999230Y-16211317D01*
X14999230Y-16211317D02*
X14980182Y-16201793D01*
X14980182Y-16201793D02*
X14970658Y-16182746D01*
X14970658Y-16182746D02*
X14970658Y-16173222D01*
X14970658Y-16173222D02*
X14980182Y-16154174D01*
X14980182Y-16154174D02*
X14999230Y-16144650D01*
X14999230Y-16144650D02*
X15027801Y-16144650D01*
X15027801Y-16144650D02*
X15046849Y-16154174D01*
X15123039Y-16354174D02*
X15132563Y-16344650D01*
X15132563Y-16344650D02*
X15151611Y-16316079D01*
X15151611Y-16316079D02*
X15161134Y-16297031D01*
X15161134Y-16297031D02*
X15170658Y-16268460D01*
X15170658Y-16268460D02*
X15180182Y-16220841D01*
X15180182Y-16220841D02*
X15180182Y-16182746D01*
X15180182Y-16182746D02*
X15170658Y-16135127D01*
X15170658Y-16135127D02*
X15161134Y-16106555D01*
X15161134Y-16106555D02*
X15151611Y-16087508D01*
X15151611Y-16087508D02*
X15132563Y-16058936D01*
X15132563Y-16058936D02*
X15123039Y-16049412D01*
D12*
X10057500Y-16400500D02*
X10157500Y-16500500D01*
X10157500Y-16400500D02*
X10057500Y-16500500D01*
X10107500Y-16400500D02*
X10107500Y-16500500D01*
X10057500Y-16450500D02*
X10157500Y-16450500D01*
D11*
X10523039Y-16541984D02*
X10408753Y-16541984D01*
X10465896Y-16541984D02*
X10465896Y-16341984D01*
X10465896Y-16341984D02*
X10446848Y-16370555D01*
X10446848Y-16370555D02*
X10427801Y-16389603D01*
X10427801Y-16389603D02*
X10408753Y-16399127D01*
X10608753Y-16522936D02*
X10618277Y-16532460D01*
X10618277Y-16532460D02*
X10608753Y-16541984D01*
X10608753Y-16541984D02*
X10599229Y-16532460D01*
X10599229Y-16532460D02*
X10608753Y-16522936D01*
X10608753Y-16522936D02*
X10608753Y-16541984D01*
X10742086Y-16341984D02*
X10761134Y-16341984D01*
X10761134Y-16341984D02*
X10780182Y-16351508D01*
X10780182Y-16351508D02*
X10789705Y-16361031D01*
X10789705Y-16361031D02*
X10799229Y-16380079D01*
X10799229Y-16380079D02*
X10808753Y-16418174D01*
X10808753Y-16418174D02*
X10808753Y-16465793D01*
X10808753Y-16465793D02*
X10799229Y-16503888D01*
X10799229Y-16503888D02*
X10789705Y-16522936D01*
X10789705Y-16522936D02*
X10780182Y-16532460D01*
X10780182Y-16532460D02*
X10761134Y-16541984D01*
X10761134Y-16541984D02*
X10742086Y-16541984D01*
X10742086Y-16541984D02*
X10723039Y-16532460D01*
X10723039Y-16532460D02*
X10713515Y-16522936D01*
X10713515Y-16522936D02*
X10703991Y-16503888D01*
X10703991Y-16503888D02*
X10694467Y-16465793D01*
X10694467Y-16465793D02*
X10694467Y-16418174D01*
X10694467Y-16418174D02*
X10703991Y-16380079D01*
X10703991Y-16380079D02*
X10713515Y-16361031D01*
X10713515Y-16361031D02*
X10723039Y-16351508D01*
X10723039Y-16351508D02*
X10742086Y-16341984D01*
X10932563Y-16341984D02*
X10951610Y-16341984D01*
X10951610Y-16341984D02*
X10970658Y-16351508D01*
X10970658Y-16351508D02*
X10980182Y-16361031D01*
X10980182Y-16361031D02*
X10989705Y-16380079D01*
X10989705Y-16380079D02*
X10999229Y-16418174D01*
X10999229Y-16418174D02*
X10999229Y-16465793D01*
X10999229Y-16465793D02*
X10989705Y-16503888D01*
X10989705Y-16503888D02*
X10980182Y-16522936D01*
X10980182Y-16522936D02*
X10970658Y-16532460D01*
X10970658Y-16532460D02*
X10951610Y-16541984D01*
X10951610Y-16541984D02*
X10932563Y-16541984D01*
X10932563Y-16541984D02*
X10913515Y-16532460D01*
X10913515Y-16532460D02*
X10903991Y-16522936D01*
X10903991Y-16522936D02*
X10894467Y-16503888D01*
X10894467Y-16503888D02*
X10884944Y-16465793D01*
X10884944Y-16465793D02*
X10884944Y-16418174D01*
X10884944Y-16418174D02*
X10894467Y-16380079D01*
X10894467Y-16380079D02*
X10903991Y-16361031D01*
X10903991Y-16361031D02*
X10913515Y-16351508D01*
X10913515Y-16351508D02*
X10932563Y-16341984D01*
X11123039Y-16341984D02*
X11142086Y-16341984D01*
X11142086Y-16341984D02*
X11161134Y-16351508D01*
X11161134Y-16351508D02*
X11170658Y-16361031D01*
X11170658Y-16361031D02*
X11180182Y-16380079D01*
X11180182Y-16380079D02*
X11189705Y-16418174D01*
X11189705Y-16418174D02*
X11189705Y-16465793D01*
X11189705Y-16465793D02*
X11180182Y-16503888D01*
X11180182Y-16503888D02*
X11170658Y-16522936D01*
X11170658Y-16522936D02*
X11161134Y-16532460D01*
X11161134Y-16532460D02*
X11142086Y-16541984D01*
X11142086Y-16541984D02*
X11123039Y-16541984D01*
X11123039Y-16541984D02*
X11103991Y-16532460D01*
X11103991Y-16532460D02*
X11094467Y-16522936D01*
X11094467Y-16522936D02*
X11084944Y-16503888D01*
X11084944Y-16503888D02*
X11075420Y-16465793D01*
X11075420Y-16465793D02*
X11075420Y-16418174D01*
X11075420Y-16418174D02*
X11084944Y-16380079D01*
X11084944Y-16380079D02*
X11094467Y-16361031D01*
X11094467Y-16361031D02*
X11103991Y-16351508D01*
X11103991Y-16351508D02*
X11123039Y-16341984D01*
X11275420Y-16541984D02*
X11275420Y-16408650D01*
X11275420Y-16427698D02*
X11284943Y-16418174D01*
X11284943Y-16418174D02*
X11303991Y-16408650D01*
X11303991Y-16408650D02*
X11332563Y-16408650D01*
X11332563Y-16408650D02*
X11351610Y-16418174D01*
X11351610Y-16418174D02*
X11361134Y-16437222D01*
X11361134Y-16437222D02*
X11361134Y-16541984D01*
X11361134Y-16437222D02*
X11370658Y-16418174D01*
X11370658Y-16418174D02*
X11389705Y-16408650D01*
X11389705Y-16408650D02*
X11418277Y-16408650D01*
X11418277Y-16408650D02*
X11437324Y-16418174D01*
X11437324Y-16418174D02*
X11446848Y-16437222D01*
X11446848Y-16437222D02*
X11446848Y-16541984D01*
X11542086Y-16541984D02*
X11542086Y-16408650D01*
X11542086Y-16427698D02*
X11551610Y-16418174D01*
X11551610Y-16418174D02*
X11570658Y-16408650D01*
X11570658Y-16408650D02*
X11599229Y-16408650D01*
X11599229Y-16408650D02*
X11618277Y-16418174D01*
X11618277Y-16418174D02*
X11627801Y-16437222D01*
X11627801Y-16437222D02*
X11627801Y-16541984D01*
X11627801Y-16437222D02*
X11637324Y-16418174D01*
X11637324Y-16418174D02*
X11656372Y-16408650D01*
X11656372Y-16408650D02*
X11684943Y-16408650D01*
X11684943Y-16408650D02*
X11703991Y-16418174D01*
X11703991Y-16418174D02*
X11713515Y-16437222D01*
X11713515Y-16437222D02*
X11713515Y-16541984D01*
X12103991Y-16332460D02*
X11932563Y-16589603D01*
X12361134Y-16341984D02*
X12380182Y-16341984D01*
X12380182Y-16341984D02*
X12399229Y-16351508D01*
X12399229Y-16351508D02*
X12408753Y-16361031D01*
X12408753Y-16361031D02*
X12418277Y-16380079D01*
X12418277Y-16380079D02*
X12427801Y-16418174D01*
X12427801Y-16418174D02*
X12427801Y-16465793D01*
X12427801Y-16465793D02*
X12418277Y-16503888D01*
X12418277Y-16503888D02*
X12408753Y-16522936D01*
X12408753Y-16522936D02*
X12399229Y-16532460D01*
X12399229Y-16532460D02*
X12380182Y-16541984D01*
X12380182Y-16541984D02*
X12361134Y-16541984D01*
X12361134Y-16541984D02*
X12342086Y-16532460D01*
X12342086Y-16532460D02*
X12332563Y-16522936D01*
X12332563Y-16522936D02*
X12323039Y-16503888D01*
X12323039Y-16503888D02*
X12313515Y-16465793D01*
X12313515Y-16465793D02*
X12313515Y-16418174D01*
X12313515Y-16418174D02*
X12323039Y-16380079D01*
X12323039Y-16380079D02*
X12332563Y-16361031D01*
X12332563Y-16361031D02*
X12342086Y-16351508D01*
X12342086Y-16351508D02*
X12361134Y-16341984D01*
X12513515Y-16522936D02*
X12523039Y-16532460D01*
X12523039Y-16532460D02*
X12513515Y-16541984D01*
X12513515Y-16541984D02*
X12503991Y-16532460D01*
X12503991Y-16532460D02*
X12513515Y-16522936D01*
X12513515Y-16522936D02*
X12513515Y-16541984D01*
X12646848Y-16341984D02*
X12665896Y-16341984D01*
X12665896Y-16341984D02*
X12684944Y-16351508D01*
X12684944Y-16351508D02*
X12694467Y-16361031D01*
X12694467Y-16361031D02*
X12703991Y-16380079D01*
X12703991Y-16380079D02*
X12713515Y-16418174D01*
X12713515Y-16418174D02*
X12713515Y-16465793D01*
X12713515Y-16465793D02*
X12703991Y-16503888D01*
X12703991Y-16503888D02*
X12694467Y-16522936D01*
X12694467Y-16522936D02*
X12684944Y-16532460D01*
X12684944Y-16532460D02*
X12665896Y-16541984D01*
X12665896Y-16541984D02*
X12646848Y-16541984D01*
X12646848Y-16541984D02*
X12627801Y-16532460D01*
X12627801Y-16532460D02*
X12618277Y-16522936D01*
X12618277Y-16522936D02*
X12608753Y-16503888D01*
X12608753Y-16503888D02*
X12599229Y-16465793D01*
X12599229Y-16465793D02*
X12599229Y-16418174D01*
X12599229Y-16418174D02*
X12608753Y-16380079D01*
X12608753Y-16380079D02*
X12618277Y-16361031D01*
X12618277Y-16361031D02*
X12627801Y-16351508D01*
X12627801Y-16351508D02*
X12646848Y-16341984D01*
X12780182Y-16341984D02*
X12903991Y-16341984D01*
X12903991Y-16341984D02*
X12837325Y-16418174D01*
X12837325Y-16418174D02*
X12865896Y-16418174D01*
X12865896Y-16418174D02*
X12884944Y-16427698D01*
X12884944Y-16427698D02*
X12894467Y-16437222D01*
X12894467Y-16437222D02*
X12903991Y-16456269D01*
X12903991Y-16456269D02*
X12903991Y-16503888D01*
X12903991Y-16503888D02*
X12894467Y-16522936D01*
X12894467Y-16522936D02*
X12884944Y-16532460D01*
X12884944Y-16532460D02*
X12865896Y-16541984D01*
X12865896Y-16541984D02*
X12808753Y-16541984D01*
X12808753Y-16541984D02*
X12789706Y-16532460D01*
X12789706Y-16532460D02*
X12780182Y-16522936D01*
X12999229Y-16541984D02*
X13037325Y-16541984D01*
X13037325Y-16541984D02*
X13056372Y-16532460D01*
X13056372Y-16532460D02*
X13065896Y-16522936D01*
X13065896Y-16522936D02*
X13084944Y-16494365D01*
X13084944Y-16494365D02*
X13094467Y-16456269D01*
X13094467Y-16456269D02*
X13094467Y-16380079D01*
X13094467Y-16380079D02*
X13084944Y-16361031D01*
X13084944Y-16361031D02*
X13075420Y-16351508D01*
X13075420Y-16351508D02*
X13056372Y-16341984D01*
X13056372Y-16341984D02*
X13018277Y-16341984D01*
X13018277Y-16341984D02*
X12999229Y-16351508D01*
X12999229Y-16351508D02*
X12989706Y-16361031D01*
X12989706Y-16361031D02*
X12980182Y-16380079D01*
X12980182Y-16380079D02*
X12980182Y-16427698D01*
X12980182Y-16427698D02*
X12989706Y-16446746D01*
X12989706Y-16446746D02*
X12999229Y-16456269D01*
X12999229Y-16456269D02*
X13018277Y-16465793D01*
X13018277Y-16465793D02*
X13056372Y-16465793D01*
X13056372Y-16465793D02*
X13075420Y-16456269D01*
X13075420Y-16456269D02*
X13084944Y-16446746D01*
X13084944Y-16446746D02*
X13094467Y-16427698D01*
X13265896Y-16408650D02*
X13265896Y-16541984D01*
X13218277Y-16332460D02*
X13170658Y-16475317D01*
X13170658Y-16475317D02*
X13294467Y-16475317D01*
X13361134Y-16341984D02*
X13361134Y-16380079D01*
X13437325Y-16341984D02*
X13437325Y-16380079D01*
X13732563Y-16618174D02*
X13723039Y-16608650D01*
X13723039Y-16608650D02*
X13703991Y-16580079D01*
X13703991Y-16580079D02*
X13694468Y-16561031D01*
X13694468Y-16561031D02*
X13684944Y-16532460D01*
X13684944Y-16532460D02*
X13675420Y-16484841D01*
X13675420Y-16484841D02*
X13675420Y-16446746D01*
X13675420Y-16446746D02*
X13684944Y-16399127D01*
X13684944Y-16399127D02*
X13694468Y-16370555D01*
X13694468Y-16370555D02*
X13703991Y-16351508D01*
X13703991Y-16351508D02*
X13723039Y-16322936D01*
X13723039Y-16322936D02*
X13732563Y-16313412D01*
X13789706Y-16341984D02*
X13923039Y-16341984D01*
X13923039Y-16341984D02*
X13837325Y-16541984D01*
X14151610Y-16541984D02*
X14151610Y-16341984D01*
X14237325Y-16541984D02*
X14237325Y-16437222D01*
X14237325Y-16437222D02*
X14227801Y-16418174D01*
X14227801Y-16418174D02*
X14208753Y-16408650D01*
X14208753Y-16408650D02*
X14180182Y-16408650D01*
X14180182Y-16408650D02*
X14161134Y-16418174D01*
X14161134Y-16418174D02*
X14151610Y-16427698D01*
X14361134Y-16541984D02*
X14342087Y-16532460D01*
X14342087Y-16532460D02*
X14332563Y-16522936D01*
X14332563Y-16522936D02*
X14323039Y-16503888D01*
X14323039Y-16503888D02*
X14323039Y-16446746D01*
X14323039Y-16446746D02*
X14332563Y-16427698D01*
X14332563Y-16427698D02*
X14342087Y-16418174D01*
X14342087Y-16418174D02*
X14361134Y-16408650D01*
X14361134Y-16408650D02*
X14389706Y-16408650D01*
X14389706Y-16408650D02*
X14408753Y-16418174D01*
X14408753Y-16418174D02*
X14418277Y-16427698D01*
X14418277Y-16427698D02*
X14427801Y-16446746D01*
X14427801Y-16446746D02*
X14427801Y-16503888D01*
X14427801Y-16503888D02*
X14418277Y-16522936D01*
X14418277Y-16522936D02*
X14408753Y-16532460D01*
X14408753Y-16532460D02*
X14389706Y-16541984D01*
X14389706Y-16541984D02*
X14361134Y-16541984D01*
X14542087Y-16541984D02*
X14523039Y-16532460D01*
X14523039Y-16532460D02*
X14513515Y-16513412D01*
X14513515Y-16513412D02*
X14513515Y-16341984D01*
X14694468Y-16532460D02*
X14675420Y-16541984D01*
X14675420Y-16541984D02*
X14637325Y-16541984D01*
X14637325Y-16541984D02*
X14618277Y-16532460D01*
X14618277Y-16532460D02*
X14608753Y-16513412D01*
X14608753Y-16513412D02*
X14608753Y-16437222D01*
X14608753Y-16437222D02*
X14618277Y-16418174D01*
X14618277Y-16418174D02*
X14637325Y-16408650D01*
X14637325Y-16408650D02*
X14675420Y-16408650D01*
X14675420Y-16408650D02*
X14694468Y-16418174D01*
X14694468Y-16418174D02*
X14703991Y-16437222D01*
X14703991Y-16437222D02*
X14703991Y-16456269D01*
X14703991Y-16456269D02*
X14608753Y-16475317D01*
X14780182Y-16532460D02*
X14799230Y-16541984D01*
X14799230Y-16541984D02*
X14837325Y-16541984D01*
X14837325Y-16541984D02*
X14856372Y-16532460D01*
X14856372Y-16532460D02*
X14865896Y-16513412D01*
X14865896Y-16513412D02*
X14865896Y-16503888D01*
X14865896Y-16503888D02*
X14856372Y-16484841D01*
X14856372Y-16484841D02*
X14837325Y-16475317D01*
X14837325Y-16475317D02*
X14808753Y-16475317D01*
X14808753Y-16475317D02*
X14789706Y-16465793D01*
X14789706Y-16465793D02*
X14780182Y-16446746D01*
X14780182Y-16446746D02*
X14780182Y-16437222D01*
X14780182Y-16437222D02*
X14789706Y-16418174D01*
X14789706Y-16418174D02*
X14808753Y-16408650D01*
X14808753Y-16408650D02*
X14837325Y-16408650D01*
X14837325Y-16408650D02*
X14856372Y-16418174D01*
X14932563Y-16618174D02*
X14942087Y-16608650D01*
X14942087Y-16608650D02*
X14961134Y-16580079D01*
X14961134Y-16580079D02*
X14970658Y-16561031D01*
X14970658Y-16561031D02*
X14980182Y-16532460D01*
X14980182Y-16532460D02*
X14989706Y-16484841D01*
X14989706Y-16484841D02*
X14989706Y-16446746D01*
X14989706Y-16446746D02*
X14980182Y-16399127D01*
X14980182Y-16399127D02*
X14970658Y-16370555D01*
X14970658Y-16370555D02*
X14961134Y-16351508D01*
X14961134Y-16351508D02*
X14942087Y-16322936D01*
X14942087Y-16322936D02*
X14932563Y-16313412D01*
D13*
X10055500Y-16663500D02*
X10157500Y-16765500D01*
X10157500Y-16663500D02*
X10055500Y-16765500D01*
X10142563Y-16750563D02*
X10142563Y-16678437D01*
X10070437Y-16678437D01*
X10070437Y-16750563D01*
X10142563Y-16750563D01*
D11*
X10523039Y-16805984D02*
X10408753Y-16805984D01*
X10465896Y-16805984D02*
X10465896Y-16605984D01*
X10465896Y-16605984D02*
X10446848Y-16634555D01*
X10446848Y-16634555D02*
X10427801Y-16653603D01*
X10427801Y-16653603D02*
X10408753Y-16663127D01*
X10608753Y-16786936D02*
X10618277Y-16796460D01*
X10618277Y-16796460D02*
X10608753Y-16805984D01*
X10608753Y-16805984D02*
X10599229Y-16796460D01*
X10599229Y-16796460D02*
X10608753Y-16786936D01*
X10608753Y-16786936D02*
X10608753Y-16805984D01*
X10742086Y-16605984D02*
X10761134Y-16605984D01*
X10761134Y-16605984D02*
X10780182Y-16615508D01*
X10780182Y-16615508D02*
X10789705Y-16625031D01*
X10789705Y-16625031D02*
X10799229Y-16644079D01*
X10799229Y-16644079D02*
X10808753Y-16682174D01*
X10808753Y-16682174D02*
X10808753Y-16729793D01*
X10808753Y-16729793D02*
X10799229Y-16767888D01*
X10799229Y-16767888D02*
X10789705Y-16786936D01*
X10789705Y-16786936D02*
X10780182Y-16796460D01*
X10780182Y-16796460D02*
X10761134Y-16805984D01*
X10761134Y-16805984D02*
X10742086Y-16805984D01*
X10742086Y-16805984D02*
X10723039Y-16796460D01*
X10723039Y-16796460D02*
X10713515Y-16786936D01*
X10713515Y-16786936D02*
X10703991Y-16767888D01*
X10703991Y-16767888D02*
X10694467Y-16729793D01*
X10694467Y-16729793D02*
X10694467Y-16682174D01*
X10694467Y-16682174D02*
X10703991Y-16644079D01*
X10703991Y-16644079D02*
X10713515Y-16625031D01*
X10713515Y-16625031D02*
X10723039Y-16615508D01*
X10723039Y-16615508D02*
X10742086Y-16605984D01*
X10884944Y-16625031D02*
X10894467Y-16615508D01*
X10894467Y-16615508D02*
X10913515Y-16605984D01*
X10913515Y-16605984D02*
X10961134Y-16605984D01*
X10961134Y-16605984D02*
X10980182Y-16615508D01*
X10980182Y-16615508D02*
X10989705Y-16625031D01*
X10989705Y-16625031D02*
X10999229Y-16644079D01*
X10999229Y-16644079D02*
X10999229Y-16663127D01*
X10999229Y-16663127D02*
X10989705Y-16691698D01*
X10989705Y-16691698D02*
X10875420Y-16805984D01*
X10875420Y-16805984D02*
X10999229Y-16805984D01*
X11123039Y-16605984D02*
X11142086Y-16605984D01*
X11142086Y-16605984D02*
X11161134Y-16615508D01*
X11161134Y-16615508D02*
X11170658Y-16625031D01*
X11170658Y-16625031D02*
X11180182Y-16644079D01*
X11180182Y-16644079D02*
X11189705Y-16682174D01*
X11189705Y-16682174D02*
X11189705Y-16729793D01*
X11189705Y-16729793D02*
X11180182Y-16767888D01*
X11180182Y-16767888D02*
X11170658Y-16786936D01*
X11170658Y-16786936D02*
X11161134Y-16796460D01*
X11161134Y-16796460D02*
X11142086Y-16805984D01*
X11142086Y-16805984D02*
X11123039Y-16805984D01*
X11123039Y-16805984D02*
X11103991Y-16796460D01*
X11103991Y-16796460D02*
X11094467Y-16786936D01*
X11094467Y-16786936D02*
X11084944Y-16767888D01*
X11084944Y-16767888D02*
X11075420Y-16729793D01*
X11075420Y-16729793D02*
X11075420Y-16682174D01*
X11075420Y-16682174D02*
X11084944Y-16644079D01*
X11084944Y-16644079D02*
X11094467Y-16625031D01*
X11094467Y-16625031D02*
X11103991Y-16615508D01*
X11103991Y-16615508D02*
X11123039Y-16605984D01*
X11275420Y-16805984D02*
X11275420Y-16672650D01*
X11275420Y-16691698D02*
X11284943Y-16682174D01*
X11284943Y-16682174D02*
X11303991Y-16672650D01*
X11303991Y-16672650D02*
X11332563Y-16672650D01*
X11332563Y-16672650D02*
X11351610Y-16682174D01*
X11351610Y-16682174D02*
X11361134Y-16701222D01*
X11361134Y-16701222D02*
X11361134Y-16805984D01*
X11361134Y-16701222D02*
X11370658Y-16682174D01*
X11370658Y-16682174D02*
X11389705Y-16672650D01*
X11389705Y-16672650D02*
X11418277Y-16672650D01*
X11418277Y-16672650D02*
X11437324Y-16682174D01*
X11437324Y-16682174D02*
X11446848Y-16701222D01*
X11446848Y-16701222D02*
X11446848Y-16805984D01*
X11542086Y-16805984D02*
X11542086Y-16672650D01*
X11542086Y-16691698D02*
X11551610Y-16682174D01*
X11551610Y-16682174D02*
X11570658Y-16672650D01*
X11570658Y-16672650D02*
X11599229Y-16672650D01*
X11599229Y-16672650D02*
X11618277Y-16682174D01*
X11618277Y-16682174D02*
X11627801Y-16701222D01*
X11627801Y-16701222D02*
X11627801Y-16805984D01*
X11627801Y-16701222D02*
X11637324Y-16682174D01*
X11637324Y-16682174D02*
X11656372Y-16672650D01*
X11656372Y-16672650D02*
X11684943Y-16672650D01*
X11684943Y-16672650D02*
X11703991Y-16682174D01*
X11703991Y-16682174D02*
X11713515Y-16701222D01*
X11713515Y-16701222D02*
X11713515Y-16805984D01*
X12103991Y-16596460D02*
X11932563Y-16853603D01*
X12361134Y-16605984D02*
X12380182Y-16605984D01*
X12380182Y-16605984D02*
X12399229Y-16615508D01*
X12399229Y-16615508D02*
X12408753Y-16625031D01*
X12408753Y-16625031D02*
X12418277Y-16644079D01*
X12418277Y-16644079D02*
X12427801Y-16682174D01*
X12427801Y-16682174D02*
X12427801Y-16729793D01*
X12427801Y-16729793D02*
X12418277Y-16767888D01*
X12418277Y-16767888D02*
X12408753Y-16786936D01*
X12408753Y-16786936D02*
X12399229Y-16796460D01*
X12399229Y-16796460D02*
X12380182Y-16805984D01*
X12380182Y-16805984D02*
X12361134Y-16805984D01*
X12361134Y-16805984D02*
X12342086Y-16796460D01*
X12342086Y-16796460D02*
X12332563Y-16786936D01*
X12332563Y-16786936D02*
X12323039Y-16767888D01*
X12323039Y-16767888D02*
X12313515Y-16729793D01*
X12313515Y-16729793D02*
X12313515Y-16682174D01*
X12313515Y-16682174D02*
X12323039Y-16644079D01*
X12323039Y-16644079D02*
X12332563Y-16625031D01*
X12332563Y-16625031D02*
X12342086Y-16615508D01*
X12342086Y-16615508D02*
X12361134Y-16605984D01*
X12513515Y-16786936D02*
X12523039Y-16796460D01*
X12523039Y-16796460D02*
X12513515Y-16805984D01*
X12513515Y-16805984D02*
X12503991Y-16796460D01*
X12503991Y-16796460D02*
X12513515Y-16786936D01*
X12513515Y-16786936D02*
X12513515Y-16805984D01*
X12646848Y-16605984D02*
X12665896Y-16605984D01*
X12665896Y-16605984D02*
X12684944Y-16615508D01*
X12684944Y-16615508D02*
X12694467Y-16625031D01*
X12694467Y-16625031D02*
X12703991Y-16644079D01*
X12703991Y-16644079D02*
X12713515Y-16682174D01*
X12713515Y-16682174D02*
X12713515Y-16729793D01*
X12713515Y-16729793D02*
X12703991Y-16767888D01*
X12703991Y-16767888D02*
X12694467Y-16786936D01*
X12694467Y-16786936D02*
X12684944Y-16796460D01*
X12684944Y-16796460D02*
X12665896Y-16805984D01*
X12665896Y-16805984D02*
X12646848Y-16805984D01*
X12646848Y-16805984D02*
X12627801Y-16796460D01*
X12627801Y-16796460D02*
X12618277Y-16786936D01*
X12618277Y-16786936D02*
X12608753Y-16767888D01*
X12608753Y-16767888D02*
X12599229Y-16729793D01*
X12599229Y-16729793D02*
X12599229Y-16682174D01*
X12599229Y-16682174D02*
X12608753Y-16644079D01*
X12608753Y-16644079D02*
X12618277Y-16625031D01*
X12618277Y-16625031D02*
X12627801Y-16615508D01*
X12627801Y-16615508D02*
X12646848Y-16605984D01*
X12884944Y-16672650D02*
X12884944Y-16805984D01*
X12837325Y-16596460D02*
X12789706Y-16739317D01*
X12789706Y-16739317D02*
X12913515Y-16739317D01*
X13027801Y-16605984D02*
X13046848Y-16605984D01*
X13046848Y-16605984D02*
X13065896Y-16615508D01*
X13065896Y-16615508D02*
X13075420Y-16625031D01*
X13075420Y-16625031D02*
X13084944Y-16644079D01*
X13084944Y-16644079D02*
X13094467Y-16682174D01*
X13094467Y-16682174D02*
X13094467Y-16729793D01*
X13094467Y-16729793D02*
X13084944Y-16767888D01*
X13084944Y-16767888D02*
X13075420Y-16786936D01*
X13075420Y-16786936D02*
X13065896Y-16796460D01*
X13065896Y-16796460D02*
X13046848Y-16805984D01*
X13046848Y-16805984D02*
X13027801Y-16805984D01*
X13027801Y-16805984D02*
X13008753Y-16796460D01*
X13008753Y-16796460D02*
X12999229Y-16786936D01*
X12999229Y-16786936D02*
X12989706Y-16767888D01*
X12989706Y-16767888D02*
X12980182Y-16729793D01*
X12980182Y-16729793D02*
X12980182Y-16682174D01*
X12980182Y-16682174D02*
X12989706Y-16644079D01*
X12989706Y-16644079D02*
X12999229Y-16625031D01*
X12999229Y-16625031D02*
X13008753Y-16615508D01*
X13008753Y-16615508D02*
X13027801Y-16605984D01*
X13170658Y-16625031D02*
X13180182Y-16615508D01*
X13180182Y-16615508D02*
X13199229Y-16605984D01*
X13199229Y-16605984D02*
X13246848Y-16605984D01*
X13246848Y-16605984D02*
X13265896Y-16615508D01*
X13265896Y-16615508D02*
X13275420Y-16625031D01*
X13275420Y-16625031D02*
X13284944Y-16644079D01*
X13284944Y-16644079D02*
X13284944Y-16663127D01*
X13284944Y-16663127D02*
X13275420Y-16691698D01*
X13275420Y-16691698D02*
X13161134Y-16805984D01*
X13161134Y-16805984D02*
X13284944Y-16805984D01*
X13361134Y-16605984D02*
X13361134Y-16644079D01*
X13437325Y-16605984D02*
X13437325Y-16644079D01*
X13732563Y-16882174D02*
X13723039Y-16872650D01*
X13723039Y-16872650D02*
X13703991Y-16844079D01*
X13703991Y-16844079D02*
X13694468Y-16825031D01*
X13694468Y-16825031D02*
X13684944Y-16796460D01*
X13684944Y-16796460D02*
X13675420Y-16748841D01*
X13675420Y-16748841D02*
X13675420Y-16710746D01*
X13675420Y-16710746D02*
X13684944Y-16663127D01*
X13684944Y-16663127D02*
X13694468Y-16634555D01*
X13694468Y-16634555D02*
X13703991Y-16615508D01*
X13703991Y-16615508D02*
X13723039Y-16586936D01*
X13723039Y-16586936D02*
X13732563Y-16577412D01*
X13846848Y-16605984D02*
X13865896Y-16605984D01*
X13865896Y-16605984D02*
X13884944Y-16615508D01*
X13884944Y-16615508D02*
X13894468Y-16625031D01*
X13894468Y-16625031D02*
X13903991Y-16644079D01*
X13903991Y-16644079D02*
X13913515Y-16682174D01*
X13913515Y-16682174D02*
X13913515Y-16729793D01*
X13913515Y-16729793D02*
X13903991Y-16767888D01*
X13903991Y-16767888D02*
X13894468Y-16786936D01*
X13894468Y-16786936D02*
X13884944Y-16796460D01*
X13884944Y-16796460D02*
X13865896Y-16805984D01*
X13865896Y-16805984D02*
X13846848Y-16805984D01*
X13846848Y-16805984D02*
X13827801Y-16796460D01*
X13827801Y-16796460D02*
X13818277Y-16786936D01*
X13818277Y-16786936D02*
X13808753Y-16767888D01*
X13808753Y-16767888D02*
X13799229Y-16729793D01*
X13799229Y-16729793D02*
X13799229Y-16682174D01*
X13799229Y-16682174D02*
X13808753Y-16644079D01*
X13808753Y-16644079D02*
X13818277Y-16625031D01*
X13818277Y-16625031D02*
X13827801Y-16615508D01*
X13827801Y-16615508D02*
X13846848Y-16605984D01*
X14151610Y-16805984D02*
X14151610Y-16605984D01*
X14237325Y-16805984D02*
X14237325Y-16701222D01*
X14237325Y-16701222D02*
X14227801Y-16682174D01*
X14227801Y-16682174D02*
X14208753Y-16672650D01*
X14208753Y-16672650D02*
X14180182Y-16672650D01*
X14180182Y-16672650D02*
X14161134Y-16682174D01*
X14161134Y-16682174D02*
X14151610Y-16691698D01*
X14361134Y-16805984D02*
X14342087Y-16796460D01*
X14342087Y-16796460D02*
X14332563Y-16786936D01*
X14332563Y-16786936D02*
X14323039Y-16767888D01*
X14323039Y-16767888D02*
X14323039Y-16710746D01*
X14323039Y-16710746D02*
X14332563Y-16691698D01*
X14332563Y-16691698D02*
X14342087Y-16682174D01*
X14342087Y-16682174D02*
X14361134Y-16672650D01*
X14361134Y-16672650D02*
X14389706Y-16672650D01*
X14389706Y-16672650D02*
X14408753Y-16682174D01*
X14408753Y-16682174D02*
X14418277Y-16691698D01*
X14418277Y-16691698D02*
X14427801Y-16710746D01*
X14427801Y-16710746D02*
X14427801Y-16767888D01*
X14427801Y-16767888D02*
X14418277Y-16786936D01*
X14418277Y-16786936D02*
X14408753Y-16796460D01*
X14408753Y-16796460D02*
X14389706Y-16805984D01*
X14389706Y-16805984D02*
X14361134Y-16805984D01*
X14542087Y-16805984D02*
X14523039Y-16796460D01*
X14523039Y-16796460D02*
X14513515Y-16777412D01*
X14513515Y-16777412D02*
X14513515Y-16605984D01*
X14694468Y-16796460D02*
X14675420Y-16805984D01*
X14675420Y-16805984D02*
X14637325Y-16805984D01*
X14637325Y-16805984D02*
X14618277Y-16796460D01*
X14618277Y-16796460D02*
X14608753Y-16777412D01*
X14608753Y-16777412D02*
X14608753Y-16701222D01*
X14608753Y-16701222D02*
X14618277Y-16682174D01*
X14618277Y-16682174D02*
X14637325Y-16672650D01*
X14637325Y-16672650D02*
X14675420Y-16672650D01*
X14675420Y-16672650D02*
X14694468Y-16682174D01*
X14694468Y-16682174D02*
X14703991Y-16701222D01*
X14703991Y-16701222D02*
X14703991Y-16720269D01*
X14703991Y-16720269D02*
X14608753Y-16739317D01*
X14780182Y-16796460D02*
X14799230Y-16805984D01*
X14799230Y-16805984D02*
X14837325Y-16805984D01*
X14837325Y-16805984D02*
X14856372Y-16796460D01*
X14856372Y-16796460D02*
X14865896Y-16777412D01*
X14865896Y-16777412D02*
X14865896Y-16767888D01*
X14865896Y-16767888D02*
X14856372Y-16748841D01*
X14856372Y-16748841D02*
X14837325Y-16739317D01*
X14837325Y-16739317D02*
X14808753Y-16739317D01*
X14808753Y-16739317D02*
X14789706Y-16729793D01*
X14789706Y-16729793D02*
X14780182Y-16710746D01*
X14780182Y-16710746D02*
X14780182Y-16701222D01*
X14780182Y-16701222D02*
X14789706Y-16682174D01*
X14789706Y-16682174D02*
X14808753Y-16672650D01*
X14808753Y-16672650D02*
X14837325Y-16672650D01*
X14837325Y-16672650D02*
X14856372Y-16682174D01*
X15103992Y-16729793D02*
X15256373Y-16729793D01*
X15180182Y-16805984D02*
X15180182Y-16653603D01*
X15494468Y-16625031D02*
X15503992Y-16615508D01*
X15503992Y-16615508D02*
X15523039Y-16605984D01*
X15523039Y-16605984D02*
X15570658Y-16605984D01*
X15570658Y-16605984D02*
X15589706Y-16615508D01*
X15589706Y-16615508D02*
X15599230Y-16625031D01*
X15599230Y-16625031D02*
X15608753Y-16644079D01*
X15608753Y-16644079D02*
X15608753Y-16663127D01*
X15608753Y-16663127D02*
X15599230Y-16691698D01*
X15599230Y-16691698D02*
X15484944Y-16805984D01*
X15484944Y-16805984D02*
X15608753Y-16805984D01*
X15837325Y-16796460D02*
X15856373Y-16805984D01*
X15856373Y-16805984D02*
X15894468Y-16805984D01*
X15894468Y-16805984D02*
X15913515Y-16796460D01*
X15913515Y-16796460D02*
X15923039Y-16777412D01*
X15923039Y-16777412D02*
X15923039Y-16767888D01*
X15923039Y-16767888D02*
X15913515Y-16748841D01*
X15913515Y-16748841D02*
X15894468Y-16739317D01*
X15894468Y-16739317D02*
X15865896Y-16739317D01*
X15865896Y-16739317D02*
X15846849Y-16729793D01*
X15846849Y-16729793D02*
X15837325Y-16710746D01*
X15837325Y-16710746D02*
X15837325Y-16701222D01*
X15837325Y-16701222D02*
X15846849Y-16682174D01*
X15846849Y-16682174D02*
X15865896Y-16672650D01*
X15865896Y-16672650D02*
X15894468Y-16672650D01*
X15894468Y-16672650D02*
X15913515Y-16682174D01*
X16037325Y-16805984D02*
X16018277Y-16796460D01*
X16018277Y-16796460D02*
X16008754Y-16777412D01*
X16008754Y-16777412D02*
X16008754Y-16605984D01*
X16142087Y-16805984D02*
X16123039Y-16796460D01*
X16123039Y-16796460D02*
X16113515Y-16786936D01*
X16113515Y-16786936D02*
X16103992Y-16767888D01*
X16103992Y-16767888D02*
X16103992Y-16710746D01*
X16103992Y-16710746D02*
X16113515Y-16691698D01*
X16113515Y-16691698D02*
X16123039Y-16682174D01*
X16123039Y-16682174D02*
X16142087Y-16672650D01*
X16142087Y-16672650D02*
X16170658Y-16672650D01*
X16170658Y-16672650D02*
X16189706Y-16682174D01*
X16189706Y-16682174D02*
X16199230Y-16691698D01*
X16199230Y-16691698D02*
X16208754Y-16710746D01*
X16208754Y-16710746D02*
X16208754Y-16767888D01*
X16208754Y-16767888D02*
X16199230Y-16786936D01*
X16199230Y-16786936D02*
X16189706Y-16796460D01*
X16189706Y-16796460D02*
X16170658Y-16805984D01*
X16170658Y-16805984D02*
X16142087Y-16805984D01*
X16265896Y-16672650D02*
X16342087Y-16672650D01*
X16294468Y-16605984D02*
X16294468Y-16777412D01*
X16294468Y-16777412D02*
X16303992Y-16796460D01*
X16303992Y-16796460D02*
X16323039Y-16805984D01*
X16323039Y-16805984D02*
X16342087Y-16805984D01*
X16399230Y-16796460D02*
X16418277Y-16805984D01*
X16418277Y-16805984D02*
X16456373Y-16805984D01*
X16456373Y-16805984D02*
X16475420Y-16796460D01*
X16475420Y-16796460D02*
X16484944Y-16777412D01*
X16484944Y-16777412D02*
X16484944Y-16767888D01*
X16484944Y-16767888D02*
X16475420Y-16748841D01*
X16475420Y-16748841D02*
X16456373Y-16739317D01*
X16456373Y-16739317D02*
X16427801Y-16739317D01*
X16427801Y-16739317D02*
X16408754Y-16729793D01*
X16408754Y-16729793D02*
X16399230Y-16710746D01*
X16399230Y-16710746D02*
X16399230Y-16701222D01*
X16399230Y-16701222D02*
X16408754Y-16682174D01*
X16408754Y-16682174D02*
X16427801Y-16672650D01*
X16427801Y-16672650D02*
X16456373Y-16672650D01*
X16456373Y-16672650D02*
X16475420Y-16682174D01*
X16551611Y-16882174D02*
X16561135Y-16872650D01*
X16561135Y-16872650D02*
X16580182Y-16844079D01*
X16580182Y-16844079D02*
X16589706Y-16825031D01*
X16589706Y-16825031D02*
X16599230Y-16796460D01*
X16599230Y-16796460D02*
X16608754Y-16748841D01*
X16608754Y-16748841D02*
X16608754Y-16710746D01*
X16608754Y-16710746D02*
X16599230Y-16663127D01*
X16599230Y-16663127D02*
X16589706Y-16634555D01*
X16589706Y-16634555D02*
X16580182Y-16615508D01*
X16580182Y-16615508D02*
X16561135Y-16586936D01*
X16561135Y-16586936D02*
X16551611Y-16577412D01*
D14*
X10042500Y-16921000D02*
X10157500Y-17036000D01*
X10157500Y-16921000D02*
X10042500Y-17036000D01*
X10100000Y-17036000D02*
X10157500Y-16978500D01*
X10100000Y-16921000D01*
X10042500Y-16978500D01*
X10100000Y-17036000D01*
D11*
X10523039Y-17069984D02*
X10408753Y-17069984D01*
X10465896Y-17069984D02*
X10465896Y-16869984D01*
X10465896Y-16869984D02*
X10446848Y-16898555D01*
X10446848Y-16898555D02*
X10427801Y-16917603D01*
X10427801Y-16917603D02*
X10408753Y-16927127D01*
X10608753Y-17050936D02*
X10618277Y-17060460D01*
X10618277Y-17060460D02*
X10608753Y-17069984D01*
X10608753Y-17069984D02*
X10599229Y-17060460D01*
X10599229Y-17060460D02*
X10608753Y-17050936D01*
X10608753Y-17050936D02*
X10608753Y-17069984D01*
X10808753Y-17069984D02*
X10694467Y-17069984D01*
X10751610Y-17069984D02*
X10751610Y-16869984D01*
X10751610Y-16869984D02*
X10732563Y-16898555D01*
X10732563Y-16898555D02*
X10713515Y-16917603D01*
X10713515Y-16917603D02*
X10694467Y-16927127D01*
X10989705Y-16869984D02*
X10894467Y-16869984D01*
X10894467Y-16869984D02*
X10884944Y-16965222D01*
X10884944Y-16965222D02*
X10894467Y-16955698D01*
X10894467Y-16955698D02*
X10913515Y-16946174D01*
X10913515Y-16946174D02*
X10961134Y-16946174D01*
X10961134Y-16946174D02*
X10980182Y-16955698D01*
X10980182Y-16955698D02*
X10989705Y-16965222D01*
X10989705Y-16965222D02*
X10999229Y-16984270D01*
X10999229Y-16984270D02*
X10999229Y-17031889D01*
X10999229Y-17031889D02*
X10989705Y-17050936D01*
X10989705Y-17050936D02*
X10980182Y-17060460D01*
X10980182Y-17060460D02*
X10961134Y-17069984D01*
X10961134Y-17069984D02*
X10913515Y-17069984D01*
X10913515Y-17069984D02*
X10894467Y-17060460D01*
X10894467Y-17060460D02*
X10884944Y-17050936D01*
X11123039Y-16869984D02*
X11142086Y-16869984D01*
X11142086Y-16869984D02*
X11161134Y-16879508D01*
X11161134Y-16879508D02*
X11170658Y-16889031D01*
X11170658Y-16889031D02*
X11180182Y-16908079D01*
X11180182Y-16908079D02*
X11189705Y-16946174D01*
X11189705Y-16946174D02*
X11189705Y-16993793D01*
X11189705Y-16993793D02*
X11180182Y-17031889D01*
X11180182Y-17031889D02*
X11170658Y-17050936D01*
X11170658Y-17050936D02*
X11161134Y-17060460D01*
X11161134Y-17060460D02*
X11142086Y-17069984D01*
X11142086Y-17069984D02*
X11123039Y-17069984D01*
X11123039Y-17069984D02*
X11103991Y-17060460D01*
X11103991Y-17060460D02*
X11094467Y-17050936D01*
X11094467Y-17050936D02*
X11084944Y-17031889D01*
X11084944Y-17031889D02*
X11075420Y-16993793D01*
X11075420Y-16993793D02*
X11075420Y-16946174D01*
X11075420Y-16946174D02*
X11084944Y-16908079D01*
X11084944Y-16908079D02*
X11094467Y-16889031D01*
X11094467Y-16889031D02*
X11103991Y-16879508D01*
X11103991Y-16879508D02*
X11123039Y-16869984D01*
X11275420Y-17069984D02*
X11275420Y-16936650D01*
X11275420Y-16955698D02*
X11284943Y-16946174D01*
X11284943Y-16946174D02*
X11303991Y-16936650D01*
X11303991Y-16936650D02*
X11332563Y-16936650D01*
X11332563Y-16936650D02*
X11351610Y-16946174D01*
X11351610Y-16946174D02*
X11361134Y-16965222D01*
X11361134Y-16965222D02*
X11361134Y-17069984D01*
X11361134Y-16965222D02*
X11370658Y-16946174D01*
X11370658Y-16946174D02*
X11389705Y-16936650D01*
X11389705Y-16936650D02*
X11418277Y-16936650D01*
X11418277Y-16936650D02*
X11437324Y-16946174D01*
X11437324Y-16946174D02*
X11446848Y-16965222D01*
X11446848Y-16965222D02*
X11446848Y-17069984D01*
X11542086Y-17069984D02*
X11542086Y-16936650D01*
X11542086Y-16955698D02*
X11551610Y-16946174D01*
X11551610Y-16946174D02*
X11570658Y-16936650D01*
X11570658Y-16936650D02*
X11599229Y-16936650D01*
X11599229Y-16936650D02*
X11618277Y-16946174D01*
X11618277Y-16946174D02*
X11627801Y-16965222D01*
X11627801Y-16965222D02*
X11627801Y-17069984D01*
X11627801Y-16965222D02*
X11637324Y-16946174D01*
X11637324Y-16946174D02*
X11656372Y-16936650D01*
X11656372Y-16936650D02*
X11684943Y-16936650D01*
X11684943Y-16936650D02*
X11703991Y-16946174D01*
X11703991Y-16946174D02*
X11713515Y-16965222D01*
X11713515Y-16965222D02*
X11713515Y-17069984D01*
X12103991Y-16860460D02*
X11932563Y-17117603D01*
X12361134Y-16869984D02*
X12380182Y-16869984D01*
X12380182Y-16869984D02*
X12399229Y-16879508D01*
X12399229Y-16879508D02*
X12408753Y-16889031D01*
X12408753Y-16889031D02*
X12418277Y-16908079D01*
X12418277Y-16908079D02*
X12427801Y-16946174D01*
X12427801Y-16946174D02*
X12427801Y-16993793D01*
X12427801Y-16993793D02*
X12418277Y-17031889D01*
X12418277Y-17031889D02*
X12408753Y-17050936D01*
X12408753Y-17050936D02*
X12399229Y-17060460D01*
X12399229Y-17060460D02*
X12380182Y-17069984D01*
X12380182Y-17069984D02*
X12361134Y-17069984D01*
X12361134Y-17069984D02*
X12342086Y-17060460D01*
X12342086Y-17060460D02*
X12332563Y-17050936D01*
X12332563Y-17050936D02*
X12323039Y-17031889D01*
X12323039Y-17031889D02*
X12313515Y-16993793D01*
X12313515Y-16993793D02*
X12313515Y-16946174D01*
X12313515Y-16946174D02*
X12323039Y-16908079D01*
X12323039Y-16908079D02*
X12332563Y-16889031D01*
X12332563Y-16889031D02*
X12342086Y-16879508D01*
X12342086Y-16879508D02*
X12361134Y-16869984D01*
X12513515Y-17050936D02*
X12523039Y-17060460D01*
X12523039Y-17060460D02*
X12513515Y-17069984D01*
X12513515Y-17069984D02*
X12503991Y-17060460D01*
X12503991Y-17060460D02*
X12513515Y-17050936D01*
X12513515Y-17050936D02*
X12513515Y-17069984D01*
X12646848Y-16869984D02*
X12665896Y-16869984D01*
X12665896Y-16869984D02*
X12684944Y-16879508D01*
X12684944Y-16879508D02*
X12694467Y-16889031D01*
X12694467Y-16889031D02*
X12703991Y-16908079D01*
X12703991Y-16908079D02*
X12713515Y-16946174D01*
X12713515Y-16946174D02*
X12713515Y-16993793D01*
X12713515Y-16993793D02*
X12703991Y-17031889D01*
X12703991Y-17031889D02*
X12694467Y-17050936D01*
X12694467Y-17050936D02*
X12684944Y-17060460D01*
X12684944Y-17060460D02*
X12665896Y-17069984D01*
X12665896Y-17069984D02*
X12646848Y-17069984D01*
X12646848Y-17069984D02*
X12627801Y-17060460D01*
X12627801Y-17060460D02*
X12618277Y-17050936D01*
X12618277Y-17050936D02*
X12608753Y-17031889D01*
X12608753Y-17031889D02*
X12599229Y-16993793D01*
X12599229Y-16993793D02*
X12599229Y-16946174D01*
X12599229Y-16946174D02*
X12608753Y-16908079D01*
X12608753Y-16908079D02*
X12618277Y-16889031D01*
X12618277Y-16889031D02*
X12627801Y-16879508D01*
X12627801Y-16879508D02*
X12646848Y-16869984D01*
X12884944Y-16936650D02*
X12884944Y-17069984D01*
X12837325Y-16860460D02*
X12789706Y-17003317D01*
X12789706Y-17003317D02*
X12913515Y-17003317D01*
X13084944Y-16869984D02*
X12989706Y-16869984D01*
X12989706Y-16869984D02*
X12980182Y-16965222D01*
X12980182Y-16965222D02*
X12989706Y-16955698D01*
X12989706Y-16955698D02*
X13008753Y-16946174D01*
X13008753Y-16946174D02*
X13056372Y-16946174D01*
X13056372Y-16946174D02*
X13075420Y-16955698D01*
X13075420Y-16955698D02*
X13084944Y-16965222D01*
X13084944Y-16965222D02*
X13094467Y-16984270D01*
X13094467Y-16984270D02*
X13094467Y-17031889D01*
X13094467Y-17031889D02*
X13084944Y-17050936D01*
X13084944Y-17050936D02*
X13075420Y-17060460D01*
X13075420Y-17060460D02*
X13056372Y-17069984D01*
X13056372Y-17069984D02*
X13008753Y-17069984D01*
X13008753Y-17069984D02*
X12989706Y-17060460D01*
X12989706Y-17060460D02*
X12980182Y-17050936D01*
X13161134Y-16869984D02*
X13284944Y-16869984D01*
X13284944Y-16869984D02*
X13218277Y-16946174D01*
X13218277Y-16946174D02*
X13246848Y-16946174D01*
X13246848Y-16946174D02*
X13265896Y-16955698D01*
X13265896Y-16955698D02*
X13275420Y-16965222D01*
X13275420Y-16965222D02*
X13284944Y-16984270D01*
X13284944Y-16984270D02*
X13284944Y-17031889D01*
X13284944Y-17031889D02*
X13275420Y-17050936D01*
X13275420Y-17050936D02*
X13265896Y-17060460D01*
X13265896Y-17060460D02*
X13246848Y-17069984D01*
X13246848Y-17069984D02*
X13189706Y-17069984D01*
X13189706Y-17069984D02*
X13170658Y-17060460D01*
X13170658Y-17060460D02*
X13161134Y-17050936D01*
X13361134Y-16869984D02*
X13361134Y-16908079D01*
X13437325Y-16869984D02*
X13437325Y-16908079D01*
X13732563Y-17146174D02*
X13723039Y-17136650D01*
X13723039Y-17136650D02*
X13703991Y-17108079D01*
X13703991Y-17108079D02*
X13694468Y-17089031D01*
X13694468Y-17089031D02*
X13684944Y-17060460D01*
X13684944Y-17060460D02*
X13675420Y-17012841D01*
X13675420Y-17012841D02*
X13675420Y-16974746D01*
X13675420Y-16974746D02*
X13684944Y-16927127D01*
X13684944Y-16927127D02*
X13694468Y-16898555D01*
X13694468Y-16898555D02*
X13703991Y-16879508D01*
X13703991Y-16879508D02*
X13723039Y-16850936D01*
X13723039Y-16850936D02*
X13732563Y-16841412D01*
X13913515Y-17069984D02*
X13799229Y-17069984D01*
X13856372Y-17069984D02*
X13856372Y-16869984D01*
X13856372Y-16869984D02*
X13837325Y-16898555D01*
X13837325Y-16898555D02*
X13818277Y-16917603D01*
X13818277Y-16917603D02*
X13799229Y-16927127D01*
X13989706Y-16889031D02*
X13999229Y-16879508D01*
X13999229Y-16879508D02*
X14018277Y-16869984D01*
X14018277Y-16869984D02*
X14065896Y-16869984D01*
X14065896Y-16869984D02*
X14084944Y-16879508D01*
X14084944Y-16879508D02*
X14094468Y-16889031D01*
X14094468Y-16889031D02*
X14103991Y-16908079D01*
X14103991Y-16908079D02*
X14103991Y-16927127D01*
X14103991Y-16927127D02*
X14094468Y-16955698D01*
X14094468Y-16955698D02*
X13980182Y-17069984D01*
X13980182Y-17069984D02*
X14103991Y-17069984D01*
X14342087Y-17069984D02*
X14342087Y-16869984D01*
X14427801Y-17069984D02*
X14427801Y-16965222D01*
X14427801Y-16965222D02*
X14418277Y-16946174D01*
X14418277Y-16946174D02*
X14399230Y-16936650D01*
X14399230Y-16936650D02*
X14370658Y-16936650D01*
X14370658Y-16936650D02*
X14351610Y-16946174D01*
X14351610Y-16946174D02*
X14342087Y-16955698D01*
X14551610Y-17069984D02*
X14532563Y-17060460D01*
X14532563Y-17060460D02*
X14523039Y-17050936D01*
X14523039Y-17050936D02*
X14513515Y-17031889D01*
X14513515Y-17031889D02*
X14513515Y-16974746D01*
X14513515Y-16974746D02*
X14523039Y-16955698D01*
X14523039Y-16955698D02*
X14532563Y-16946174D01*
X14532563Y-16946174D02*
X14551610Y-16936650D01*
X14551610Y-16936650D02*
X14580182Y-16936650D01*
X14580182Y-16936650D02*
X14599230Y-16946174D01*
X14599230Y-16946174D02*
X14608753Y-16955698D01*
X14608753Y-16955698D02*
X14618277Y-16974746D01*
X14618277Y-16974746D02*
X14618277Y-17031889D01*
X14618277Y-17031889D02*
X14608753Y-17050936D01*
X14608753Y-17050936D02*
X14599230Y-17060460D01*
X14599230Y-17060460D02*
X14580182Y-17069984D01*
X14580182Y-17069984D02*
X14551610Y-17069984D01*
X14732563Y-17069984D02*
X14713515Y-17060460D01*
X14713515Y-17060460D02*
X14703991Y-17041412D01*
X14703991Y-17041412D02*
X14703991Y-16869984D01*
X14884944Y-17060460D02*
X14865896Y-17069984D01*
X14865896Y-17069984D02*
X14827801Y-17069984D01*
X14827801Y-17069984D02*
X14808753Y-17060460D01*
X14808753Y-17060460D02*
X14799230Y-17041412D01*
X14799230Y-17041412D02*
X14799230Y-16965222D01*
X14799230Y-16965222D02*
X14808753Y-16946174D01*
X14808753Y-16946174D02*
X14827801Y-16936650D01*
X14827801Y-16936650D02*
X14865896Y-16936650D01*
X14865896Y-16936650D02*
X14884944Y-16946174D01*
X14884944Y-16946174D02*
X14894468Y-16965222D01*
X14894468Y-16965222D02*
X14894468Y-16984270D01*
X14894468Y-16984270D02*
X14799230Y-17003317D01*
X14970658Y-17060460D02*
X14989706Y-17069984D01*
X14989706Y-17069984D02*
X15027801Y-17069984D01*
X15027801Y-17069984D02*
X15046849Y-17060460D01*
X15046849Y-17060460D02*
X15056372Y-17041412D01*
X15056372Y-17041412D02*
X15056372Y-17031889D01*
X15056372Y-17031889D02*
X15046849Y-17012841D01*
X15046849Y-17012841D02*
X15027801Y-17003317D01*
X15027801Y-17003317D02*
X14999230Y-17003317D01*
X14999230Y-17003317D02*
X14980182Y-16993793D01*
X14980182Y-16993793D02*
X14970658Y-16974746D01*
X14970658Y-16974746D02*
X14970658Y-16965222D01*
X14970658Y-16965222D02*
X14980182Y-16946174D01*
X14980182Y-16946174D02*
X14999230Y-16936650D01*
X14999230Y-16936650D02*
X15027801Y-16936650D01*
X15027801Y-16936650D02*
X15046849Y-16946174D01*
X15123039Y-17146174D02*
X15132563Y-17136650D01*
X15132563Y-17136650D02*
X15151611Y-17108079D01*
X15151611Y-17108079D02*
X15161134Y-17089031D01*
X15161134Y-17089031D02*
X15170658Y-17060460D01*
X15170658Y-17060460D02*
X15180182Y-17012841D01*
X15180182Y-17012841D02*
X15180182Y-16974746D01*
X15180182Y-16974746D02*
X15170658Y-16927127D01*
X15170658Y-16927127D02*
X15161134Y-16898555D01*
X15161134Y-16898555D02*
X15151611Y-16879508D01*
X15151611Y-16879508D02*
X15132563Y-16850936D01*
X15132563Y-16850936D02*
X15123039Y-16841412D01*
D15*
X10097500Y-17182500D02*
X10097500Y-17302500D01*
X10037500Y-17242500D02*
X10157500Y-17242500D01*
X10157500Y-17242500D02*
G75*
G02*
X10037500Y-17242500I-60000J0D01*
G01*
X10037500Y-17242500D02*
G75*
G02*
X10157500Y-17242500I60000J0D01*
G01*
D11*
X10523039Y-17333984D02*
X10408753Y-17333984D01*
X10465896Y-17333984D02*
X10465896Y-17133984D01*
X10465896Y-17133984D02*
X10446848Y-17162555D01*
X10446848Y-17162555D02*
X10427801Y-17181603D01*
X10427801Y-17181603D02*
X10408753Y-17191127D01*
X10608753Y-17314936D02*
X10618277Y-17324460D01*
X10618277Y-17324460D02*
X10608753Y-17333984D01*
X10608753Y-17333984D02*
X10599229Y-17324460D01*
X10599229Y-17324460D02*
X10608753Y-17314936D01*
X10608753Y-17314936D02*
X10608753Y-17333984D01*
X10694467Y-17153031D02*
X10703991Y-17143508D01*
X10703991Y-17143508D02*
X10723039Y-17133984D01*
X10723039Y-17133984D02*
X10770658Y-17133984D01*
X10770658Y-17133984D02*
X10789705Y-17143508D01*
X10789705Y-17143508D02*
X10799229Y-17153031D01*
X10799229Y-17153031D02*
X10808753Y-17172079D01*
X10808753Y-17172079D02*
X10808753Y-17191127D01*
X10808753Y-17191127D02*
X10799229Y-17219698D01*
X10799229Y-17219698D02*
X10684944Y-17333984D01*
X10684944Y-17333984D02*
X10808753Y-17333984D01*
X10932563Y-17133984D02*
X10951610Y-17133984D01*
X10951610Y-17133984D02*
X10970658Y-17143508D01*
X10970658Y-17143508D02*
X10980182Y-17153031D01*
X10980182Y-17153031D02*
X10989705Y-17172079D01*
X10989705Y-17172079D02*
X10999229Y-17210174D01*
X10999229Y-17210174D02*
X10999229Y-17257793D01*
X10999229Y-17257793D02*
X10989705Y-17295889D01*
X10989705Y-17295889D02*
X10980182Y-17314936D01*
X10980182Y-17314936D02*
X10970658Y-17324460D01*
X10970658Y-17324460D02*
X10951610Y-17333984D01*
X10951610Y-17333984D02*
X10932563Y-17333984D01*
X10932563Y-17333984D02*
X10913515Y-17324460D01*
X10913515Y-17324460D02*
X10903991Y-17314936D01*
X10903991Y-17314936D02*
X10894467Y-17295889D01*
X10894467Y-17295889D02*
X10884944Y-17257793D01*
X10884944Y-17257793D02*
X10884944Y-17210174D01*
X10884944Y-17210174D02*
X10894467Y-17172079D01*
X10894467Y-17172079D02*
X10903991Y-17153031D01*
X10903991Y-17153031D02*
X10913515Y-17143508D01*
X10913515Y-17143508D02*
X10932563Y-17133984D01*
X11123039Y-17133984D02*
X11142086Y-17133984D01*
X11142086Y-17133984D02*
X11161134Y-17143508D01*
X11161134Y-17143508D02*
X11170658Y-17153031D01*
X11170658Y-17153031D02*
X11180182Y-17172079D01*
X11180182Y-17172079D02*
X11189705Y-17210174D01*
X11189705Y-17210174D02*
X11189705Y-17257793D01*
X11189705Y-17257793D02*
X11180182Y-17295889D01*
X11180182Y-17295889D02*
X11170658Y-17314936D01*
X11170658Y-17314936D02*
X11161134Y-17324460D01*
X11161134Y-17324460D02*
X11142086Y-17333984D01*
X11142086Y-17333984D02*
X11123039Y-17333984D01*
X11123039Y-17333984D02*
X11103991Y-17324460D01*
X11103991Y-17324460D02*
X11094467Y-17314936D01*
X11094467Y-17314936D02*
X11084944Y-17295889D01*
X11084944Y-17295889D02*
X11075420Y-17257793D01*
X11075420Y-17257793D02*
X11075420Y-17210174D01*
X11075420Y-17210174D02*
X11084944Y-17172079D01*
X11084944Y-17172079D02*
X11094467Y-17153031D01*
X11094467Y-17153031D02*
X11103991Y-17143508D01*
X11103991Y-17143508D02*
X11123039Y-17133984D01*
X11275420Y-17333984D02*
X11275420Y-17200650D01*
X11275420Y-17219698D02*
X11284943Y-17210174D01*
X11284943Y-17210174D02*
X11303991Y-17200650D01*
X11303991Y-17200650D02*
X11332563Y-17200650D01*
X11332563Y-17200650D02*
X11351610Y-17210174D01*
X11351610Y-17210174D02*
X11361134Y-17229222D01*
X11361134Y-17229222D02*
X11361134Y-17333984D01*
X11361134Y-17229222D02*
X11370658Y-17210174D01*
X11370658Y-17210174D02*
X11389705Y-17200650D01*
X11389705Y-17200650D02*
X11418277Y-17200650D01*
X11418277Y-17200650D02*
X11437324Y-17210174D01*
X11437324Y-17210174D02*
X11446848Y-17229222D01*
X11446848Y-17229222D02*
X11446848Y-17333984D01*
X11542086Y-17333984D02*
X11542086Y-17200650D01*
X11542086Y-17219698D02*
X11551610Y-17210174D01*
X11551610Y-17210174D02*
X11570658Y-17200650D01*
X11570658Y-17200650D02*
X11599229Y-17200650D01*
X11599229Y-17200650D02*
X11618277Y-17210174D01*
X11618277Y-17210174D02*
X11627801Y-17229222D01*
X11627801Y-17229222D02*
X11627801Y-17333984D01*
X11627801Y-17229222D02*
X11637324Y-17210174D01*
X11637324Y-17210174D02*
X11656372Y-17200650D01*
X11656372Y-17200650D02*
X11684943Y-17200650D01*
X11684943Y-17200650D02*
X11703991Y-17210174D01*
X11703991Y-17210174D02*
X11713515Y-17229222D01*
X11713515Y-17229222D02*
X11713515Y-17333984D01*
X12103991Y-17124460D02*
X11932563Y-17381603D01*
X12361134Y-17133984D02*
X12380182Y-17133984D01*
X12380182Y-17133984D02*
X12399229Y-17143508D01*
X12399229Y-17143508D02*
X12408753Y-17153031D01*
X12408753Y-17153031D02*
X12418277Y-17172079D01*
X12418277Y-17172079D02*
X12427801Y-17210174D01*
X12427801Y-17210174D02*
X12427801Y-17257793D01*
X12427801Y-17257793D02*
X12418277Y-17295889D01*
X12418277Y-17295889D02*
X12408753Y-17314936D01*
X12408753Y-17314936D02*
X12399229Y-17324460D01*
X12399229Y-17324460D02*
X12380182Y-17333984D01*
X12380182Y-17333984D02*
X12361134Y-17333984D01*
X12361134Y-17333984D02*
X12342086Y-17324460D01*
X12342086Y-17324460D02*
X12332563Y-17314936D01*
X12332563Y-17314936D02*
X12323039Y-17295889D01*
X12323039Y-17295889D02*
X12313515Y-17257793D01*
X12313515Y-17257793D02*
X12313515Y-17210174D01*
X12313515Y-17210174D02*
X12323039Y-17172079D01*
X12323039Y-17172079D02*
X12332563Y-17153031D01*
X12332563Y-17153031D02*
X12342086Y-17143508D01*
X12342086Y-17143508D02*
X12361134Y-17133984D01*
X12513515Y-17314936D02*
X12523039Y-17324460D01*
X12523039Y-17324460D02*
X12513515Y-17333984D01*
X12513515Y-17333984D02*
X12503991Y-17324460D01*
X12503991Y-17324460D02*
X12513515Y-17314936D01*
X12513515Y-17314936D02*
X12513515Y-17333984D01*
X12646848Y-17133984D02*
X12665896Y-17133984D01*
X12665896Y-17133984D02*
X12684944Y-17143508D01*
X12684944Y-17143508D02*
X12694467Y-17153031D01*
X12694467Y-17153031D02*
X12703991Y-17172079D01*
X12703991Y-17172079D02*
X12713515Y-17210174D01*
X12713515Y-17210174D02*
X12713515Y-17257793D01*
X12713515Y-17257793D02*
X12703991Y-17295889D01*
X12703991Y-17295889D02*
X12694467Y-17314936D01*
X12694467Y-17314936D02*
X12684944Y-17324460D01*
X12684944Y-17324460D02*
X12665896Y-17333984D01*
X12665896Y-17333984D02*
X12646848Y-17333984D01*
X12646848Y-17333984D02*
X12627801Y-17324460D01*
X12627801Y-17324460D02*
X12618277Y-17314936D01*
X12618277Y-17314936D02*
X12608753Y-17295889D01*
X12608753Y-17295889D02*
X12599229Y-17257793D01*
X12599229Y-17257793D02*
X12599229Y-17210174D01*
X12599229Y-17210174D02*
X12608753Y-17172079D01*
X12608753Y-17172079D02*
X12618277Y-17153031D01*
X12618277Y-17153031D02*
X12627801Y-17143508D01*
X12627801Y-17143508D02*
X12646848Y-17133984D01*
X12884944Y-17200650D02*
X12884944Y-17333984D01*
X12837325Y-17124460D02*
X12789706Y-17267317D01*
X12789706Y-17267317D02*
X12913515Y-17267317D01*
X12970658Y-17133984D02*
X13103991Y-17133984D01*
X13103991Y-17133984D02*
X13018277Y-17333984D01*
X13170658Y-17153031D02*
X13180182Y-17143508D01*
X13180182Y-17143508D02*
X13199229Y-17133984D01*
X13199229Y-17133984D02*
X13246848Y-17133984D01*
X13246848Y-17133984D02*
X13265896Y-17143508D01*
X13265896Y-17143508D02*
X13275420Y-17153031D01*
X13275420Y-17153031D02*
X13284944Y-17172079D01*
X13284944Y-17172079D02*
X13284944Y-17191127D01*
X13284944Y-17191127D02*
X13275420Y-17219698D01*
X13275420Y-17219698D02*
X13161134Y-17333984D01*
X13161134Y-17333984D02*
X13284944Y-17333984D01*
X13361134Y-17133984D02*
X13361134Y-17172079D01*
X13437325Y-17133984D02*
X13437325Y-17172079D01*
X13732563Y-17410174D02*
X13723039Y-17400650D01*
X13723039Y-17400650D02*
X13703991Y-17372079D01*
X13703991Y-17372079D02*
X13694468Y-17353031D01*
X13694468Y-17353031D02*
X13684944Y-17324460D01*
X13684944Y-17324460D02*
X13675420Y-17276841D01*
X13675420Y-17276841D02*
X13675420Y-17238746D01*
X13675420Y-17238746D02*
X13684944Y-17191127D01*
X13684944Y-17191127D02*
X13694468Y-17162555D01*
X13694468Y-17162555D02*
X13703991Y-17143508D01*
X13703991Y-17143508D02*
X13723039Y-17114936D01*
X13723039Y-17114936D02*
X13732563Y-17105412D01*
X13799229Y-17153031D02*
X13808753Y-17143508D01*
X13808753Y-17143508D02*
X13827801Y-17133984D01*
X13827801Y-17133984D02*
X13875420Y-17133984D01*
X13875420Y-17133984D02*
X13894468Y-17143508D01*
X13894468Y-17143508D02*
X13903991Y-17153031D01*
X13903991Y-17153031D02*
X13913515Y-17172079D01*
X13913515Y-17172079D02*
X13913515Y-17191127D01*
X13913515Y-17191127D02*
X13903991Y-17219698D01*
X13903991Y-17219698D02*
X13789706Y-17333984D01*
X13789706Y-17333984D02*
X13913515Y-17333984D01*
X14151610Y-17333984D02*
X14151610Y-17133984D01*
X14237325Y-17333984D02*
X14237325Y-17229222D01*
X14237325Y-17229222D02*
X14227801Y-17210174D01*
X14227801Y-17210174D02*
X14208753Y-17200650D01*
X14208753Y-17200650D02*
X14180182Y-17200650D01*
X14180182Y-17200650D02*
X14161134Y-17210174D01*
X14161134Y-17210174D02*
X14151610Y-17219698D01*
X14361134Y-17333984D02*
X14342087Y-17324460D01*
X14342087Y-17324460D02*
X14332563Y-17314936D01*
X14332563Y-17314936D02*
X14323039Y-17295889D01*
X14323039Y-17295889D02*
X14323039Y-17238746D01*
X14323039Y-17238746D02*
X14332563Y-17219698D01*
X14332563Y-17219698D02*
X14342087Y-17210174D01*
X14342087Y-17210174D02*
X14361134Y-17200650D01*
X14361134Y-17200650D02*
X14389706Y-17200650D01*
X14389706Y-17200650D02*
X14408753Y-17210174D01*
X14408753Y-17210174D02*
X14418277Y-17219698D01*
X14418277Y-17219698D02*
X14427801Y-17238746D01*
X14427801Y-17238746D02*
X14427801Y-17295889D01*
X14427801Y-17295889D02*
X14418277Y-17314936D01*
X14418277Y-17314936D02*
X14408753Y-17324460D01*
X14408753Y-17324460D02*
X14389706Y-17333984D01*
X14389706Y-17333984D02*
X14361134Y-17333984D01*
X14542087Y-17333984D02*
X14523039Y-17324460D01*
X14523039Y-17324460D02*
X14513515Y-17305412D01*
X14513515Y-17305412D02*
X14513515Y-17133984D01*
X14694468Y-17324460D02*
X14675420Y-17333984D01*
X14675420Y-17333984D02*
X14637325Y-17333984D01*
X14637325Y-17333984D02*
X14618277Y-17324460D01*
X14618277Y-17324460D02*
X14608753Y-17305412D01*
X14608753Y-17305412D02*
X14608753Y-17229222D01*
X14608753Y-17229222D02*
X14618277Y-17210174D01*
X14618277Y-17210174D02*
X14637325Y-17200650D01*
X14637325Y-17200650D02*
X14675420Y-17200650D01*
X14675420Y-17200650D02*
X14694468Y-17210174D01*
X14694468Y-17210174D02*
X14703991Y-17229222D01*
X14703991Y-17229222D02*
X14703991Y-17248270D01*
X14703991Y-17248270D02*
X14608753Y-17267317D01*
X14780182Y-17324460D02*
X14799230Y-17333984D01*
X14799230Y-17333984D02*
X14837325Y-17333984D01*
X14837325Y-17333984D02*
X14856372Y-17324460D01*
X14856372Y-17324460D02*
X14865896Y-17305412D01*
X14865896Y-17305412D02*
X14865896Y-17295889D01*
X14865896Y-17295889D02*
X14856372Y-17276841D01*
X14856372Y-17276841D02*
X14837325Y-17267317D01*
X14837325Y-17267317D02*
X14808753Y-17267317D01*
X14808753Y-17267317D02*
X14789706Y-17257793D01*
X14789706Y-17257793D02*
X14780182Y-17238746D01*
X14780182Y-17238746D02*
X14780182Y-17229222D01*
X14780182Y-17229222D02*
X14789706Y-17210174D01*
X14789706Y-17210174D02*
X14808753Y-17200650D01*
X14808753Y-17200650D02*
X14837325Y-17200650D01*
X14837325Y-17200650D02*
X14856372Y-17210174D01*
X14932563Y-17410174D02*
X14942087Y-17400650D01*
X14942087Y-17400650D02*
X14961134Y-17372079D01*
X14961134Y-17372079D02*
X14970658Y-17353031D01*
X14970658Y-17353031D02*
X14980182Y-17324460D01*
X14980182Y-17324460D02*
X14989706Y-17276841D01*
X14989706Y-17276841D02*
X14989706Y-17238746D01*
X14989706Y-17238746D02*
X14980182Y-17191127D01*
X14980182Y-17191127D02*
X14970658Y-17162555D01*
X14970658Y-17162555D02*
X14961134Y-17143508D01*
X14961134Y-17143508D02*
X14942087Y-17114936D01*
X14942087Y-17114936D02*
X14932563Y-17105412D01*
M02*
